<ttFont>
    <TTGlyph name=".notdef" xMin="220" yMin="0" xMax="1625" yMax="1416">
      <contour>
        <pt x="220" y="1416" on="1"/>
        <pt x="1625" y="1416" on="1"/>
        <pt x="1625" y="0" on="1"/>
        <pt x="220" y="0" on="1"/>
      </contour>
      <contour>
        <pt x="583" y="232" on="1"/>
        <pt x="920" y="595" on="1"/>
        <pt x="1271" y="231" on="1"/>
        <pt x="1386" y="347" on="1"/>
        <pt x="1031" y="709" on="1"/>
        <pt x="1386" y="1060" on="1"/>
        <pt x="1265" y="1179" on="1"/>
        <pt x="923" y="817" on="1"/>
        <pt x="577" y="1180" on="1"/>
        <pt x="461" y="1061" on="1"/>
        <pt x="812" y="705" on="1"/>
        <pt x="462" y="370" on="1"/>
      </contour>
    </TTGlyph>
    <TTGlyph name="A" xMin="-50" yMin="0" xMax="1152" yMax="1530">
      <contour>
        <pt x="695" y="1530" on="1"/>
        <pt x="863" y="1530" on="1"/>
        <pt x="1152" y="0" on="1"/>
        <pt x="1002" y="0" on="1"/>
        <pt x="926" y="431" on="1"/>
        <pt x="312" y="431" on="1"/>
        <pt x="111" y="0" on="1"/>
        <pt x="-50" y="0" on="1"/>
      </contour>
      <contour>
        <pt x="906" y="546" on="1"/>
        <pt x="777" y="1280" on="1"/>
        <pt x="762" y="1395" on="1"/>
        <pt x="366" y="546" on="1"/>
      </contour>
    </TTGlyph>
    <TTGlyph name="AE" xMin="-107" yMin="0" xMax="1717" yMax="1530">
      <contour>
        <pt x="-107" y="0" on="1"/>
        <pt x="699" y="1436" on="1"/>
        <pt x="401" y="1453" on="1"/>
        <pt x="412" y="1530" on="1"/>
        <pt x="1717" y="1530" on="1"/>
        <pt x="1711" y="1410" on="1"/>
        <pt x="1097" y="1417" on="1"/>
        <pt x="1023" y="838" on="1"/>
        <pt x="1498" y="844" on="1"/>
        <pt x="1489" y="717" on="1"/>
        <pt x="1010" y="728" on="1"/>
        <pt x="932" y="114" on="1"/>
        <pt x="1669" y="127" on="1"/>
        <pt x="1658" y="0" on="1"/>
        <pt x="768" y="0" on="1"/>
        <pt x="826" y="459" on="1"/>
        <pt x="306" y="459" on="1"/>
        <pt x="55" y="0" on="1"/>
      </contour>
      <contour>
        <pt x="840" y="575" on="1"/>
        <pt x="947" y="1420" on="1"/>
        <pt x="836" y="1425" on="1"/>
        <pt x="370" y="575" on="1"/>
      </contour>
    </TTGlyph>
    <TTGlyph name="AEacute" xMin="-107" yMin="0" xMax="1717" yMax="2000">
      <component glyphName="acute.cap" x="929" y="0" flags="0x1004"/>
      <component glyphName="AE" x="0" y="0" flags="0x1004"/>
    </TTGlyph>
    <TTGlyph name="Aacute" xMin="-50" yMin="0" xMax="1152" yMax="2000">
      <component glyphName="A" x="0" y="0" flags="0x1204"/>
      <component glyphName="acute.cap" x="659" y="0" flags="0x1004"/>
    </TTGlyph>
    <TTGlyph name="Abreve" xMin="-50" yMin="0" xMax="1152" yMax="1980">
      <component glyphName="A" x="0" y="0" flags="0x1204"/>
      <component glyphName="breve.cap" x="454" y="0" flags="0x1004"/>
    </TTGlyph>
    <TTGlyph name="Acircumflex" xMin="-50" yMin="0" xMax="1152" yMax="2000">
      <component glyphName="A" x="0" y="0" flags="0x1204"/>
      <component glyphName="circumflex.cap" x="411" y="0" flags="0x1004"/>
    </TTGlyph>
    <TTGlyph name="Adieresis" xMin="-50" yMin="0" xMax="1152" yMax="1935">
      <component glyphName="A" x="0" y="0" flags="0x1204"/>
      <component glyphName="dieresis.cap" x="416" y="0" flags="0x1004"/>
    </TTGlyph>
    <TTGlyph name="Agrave" xMin="-50" yMin="0" xMax="1152" yMax="2000">
      <component glyphName="A" x="0" y="0" flags="0x1204"/>
      <component glyphName="grave.cap" x="458" y="0" flags="0x1004"/>
    </TTGlyph>
    <TTGlyph name="Amacron" xMin="-50" yMin="0" xMax="1152" yMax="1862">
      <component glyphName="A" x="0" y="0" flags="0x1204"/>
      <component glyphName="macron.cap" x="482" y="0" flags="0x1004"/>
    </TTGlyph>
    <TTGlyph name="Aogonek" xMin="-50" yMin="-436" xMax="1176" yMax="1530">
      <contour>
        <pt x="742" y="-287" on="1"/>
        <pt x="742" y="-141" on="0"/>
        <pt x="1002" y="1" on="1"/>
        <pt x="926" y="431" on="1"/>
        <pt x="312" y="431" on="1"/>
        <pt x="111" y="0" on="1"/>
        <pt x="-50" y="0" on="1"/>
        <pt x="695" y="1530" on="1"/>
        <pt x="863" y="1530" on="1"/>
        <pt x="1152" y="0" on="1"/>
        <pt x="1124" y="0" on="1"/>
        <pt x="1054" y="-47" on="1"/>
        <pt x="890" y="-156" on="0"/>
        <pt x="890" y="-242" on="1"/>
        <pt x="890" y="-281" on="0"/>
        <pt x="940" y="-322" on="0"/>
        <pt x="978" y="-322" on="1"/>
        <pt x="1061" y="-322" on="0"/>
        <pt x="1136" y="-264" on="1"/>
        <pt x="1176" y="-342" on="1"/>
        <pt x="1062" y="-436" on="0"/>
        <pt x="930" y="-436" on="1"/>
        <pt x="837" y="-436" on="0"/>
        <pt x="784" y="-384" on="1"/>
        <pt x="742" y="-341" on="0"/>
      </contour>
      <contour>
        <pt x="906" y="546" on="1"/>
        <pt x="777" y="1280" on="1"/>
        <pt x="762" y="1395" on="1"/>
        <pt x="366" y="546" on="1"/>
      </contour>
    </TTGlyph>
    <TTGlyph name="Aring" xMin="-50" yMin="0" xMax="1152" yMax="2000">
      <contour>
        <pt x="677" y="1494" on="1"/>
        <pt x="498" y="1537" on="0"/>
        <pt x="498" y="1728" on="1"/>
        <pt x="498" y="1861" on="0"/>
        <pt x="610" y="1935" on="1"/>
        <pt x="707" y="2000" on="0"/>
        <pt x="840" y="2000" on="1"/>
        <pt x="1032" y="2000" on="0"/>
        <pt x="1091" y="1854" on="1"/>
        <pt x="1110" y="1808" on="0"/>
        <pt x="1110" y="1692" on="0"/>
        <pt x="1072" y="1604" on="0"/>
        <pt x="1040" y="1572" on="1"/>
        <pt x="975" y="1510" on="0"/>
        <pt x="870" y="1491" on="1"/>
        <pt x="1152" y="0" on="1"/>
        <pt x="1002" y="0" on="1"/>
        <pt x="926" y="431" on="1"/>
        <pt x="312" y="431" on="1"/>
        <pt x="111" y="0" on="1"/>
        <pt x="-50" y="0" on="1"/>
      </contour>
      <contour>
        <pt x="783" y="1565" on="1"/>
        <pt x="1001" y="1565" on="0"/>
        <pt x="1001" y="1762" on="1"/>
        <pt x="1001" y="1870" on="0"/>
        <pt x="900" y="1905" on="1"/>
        <pt x="868" y="1916" on="0"/>
        <pt x="789" y="1916" on="0"/>
        <pt x="710" y="1898" on="0"/>
        <pt x="678" y="1876" on="1"/>
        <pt x="605" y="1826" on="0"/>
        <pt x="605" y="1723" on="1"/>
        <pt x="605" y="1655" on="0"/>
        <pt x="654" y="1610" on="1"/>
        <pt x="703" y="1565" on="0"/>
      </contour>
      <contour>
        <pt x="906" y="546" on="1"/>
        <pt x="777" y="1280" on="1"/>
        <pt x="762" y="1395" on="1"/>
        <pt x="366" y="546" on="1"/>
      </contour>
    </TTGlyph>
    <TTGlyph name="Atilde" xMin="-50" yMin="0" xMax="1199" yMax="1964">
      <component glyphName="A" x="0" y="0" flags="0x1204"/>
      <component glyphName="tilde.cap" x="405" y="0" flags="0x1004"/>
    </TTGlyph>
    <TTGlyph name="B" xMin="121" yMin="-14" xMax="1139" yMax="1546">
      <contour>
        <pt x="458" y="-14" on="1"/>
        <pt x="191" y="0" on="1"/>
        <pt x="121" y="0" on="1"/>
        <pt x="314" y="1530" on="1"/>
        <pt x="396" y="1530" on="1"/>
        <pt x="467" y="1531" on="0"/>
        <pt x="614" y="1546" on="0"/>
        <pt x="821" y="1546" on="0"/>
        <pt x="992" y="1491" on="0"/>
        <pt x="1044" y="1446" on="1"/>
        <pt x="1139" y="1361" on="0"/>
        <pt x="1139" y="1211" on="1"/>
        <pt x="1139" y="973" on="0"/>
        <pt x="952" y="858" on="1"/>
        <pt x="892" y="821" on="0"/>
        <pt x="819" y="800" on="1"/>
        <pt x="949" y="786" on="0"/>
        <pt x="1036" y="703" on="1"/>
        <pt x="1131" y="614" on="0"/>
        <pt x="1131" y="350" on="0"/>
        <pt x="1032" y="162" on="0"/>
        <pt x="942" y="102" on="1"/>
        <pt x="769" y="-14" on="0"/>
      </contour>
      <contour>
        <pt x="453" y="846" on="1"/>
        <pt x="612" y="847" on="1"/>
        <pt x="777" y="847" on="0"/>
        <pt x="880" y="938" on="1"/>
        <pt x="988" y="1033" on="0"/>
        <pt x="988" y="1195" on="1"/>
        <pt x="988" y="1380" on="0"/>
        <pt x="809" y="1425" on="1"/>
        <pt x="746" y="1441" on="0"/>
        <pt x="645" y="1441" on="0"/>
        <pt x="595" y="1439" on="0"/>
        <pt x="566" y="1437" on="1"/>
        <pt x="505" y="1433" on="1"/>
        <pt x="474" y="1431" on="0"/>
        <pt x="451" y="1428" on="1"/>
        <pt x="378" y="847" on="1"/>
        <pt x="413" y="846" on="0"/>
      </contour>
      <contour>
        <pt x="286" y="113" on="1"/>
        <pt x="347" y="94" on="0"/>
        <pt x="592" y="94" on="0"/>
        <pt x="680" y="114" on="1"/>
        <pt x="864" y="154" on="0"/>
        <pt x="935" y="294" on="1"/>
        <pt x="971" y="364" on="0"/>
        <pt x="971" y="466" on="1"/>
        <pt x="971" y="600" on="0"/>
        <pt x="874" y="672" on="1"/>
        <pt x="785" y="739" on="0"/>
        <pt x="626" y="739" on="1"/>
        <pt x="478" y="739" on="0"/>
        <pt x="364" y="733" on="1"/>
      </contour>
    </TTGlyph>
    <TTGlyph name="C" xMin="110" yMin="-15" xMax="1147" yMax="1546">
      <contour>
        <pt x="1038" y="83" on="1"/>
        <pt x="880" y="-15" on="0"/>
        <pt x="622" y="-15" on="1"/>
        <pt x="358" y="-15" on="0"/>
        <pt x="225" y="190" on="1"/>
        <pt x="110" y="367" on="0"/>
        <pt x="110" y="657" on="1"/>
        <pt x="110" y="904" on="0"/>
        <pt x="200" y="1109" on="1"/>
        <pt x="290" y="1313" on="0"/>
        <pt x="456" y="1430" on="1"/>
        <pt x="621" y="1546" on="0"/>
        <pt x="824" y="1546" on="1"/>
        <pt x="948" y="1546" on="0"/>
        <pt x="1044" y="1516" on="1"/>
        <pt x="1147" y="1484" on="1"/>
        <pt x="1094" y="1358" on="1"/>
        <pt x="1056" y="1376" on="1"/>
        <pt x="960" y="1420" on="0"/>
        <pt x="720" y="1420" on="0"/>
        <pt x="561" y="1353" on="0"/>
        <pt x="436" y="1238" on="0"/>
        <pt x="391" y="1162" on="1"/>
        <pt x="264" y="945" on="0"/>
        <pt x="264" y="665" on="1"/>
        <pt x="264" y="277" on="0"/>
        <pt x="476" y="148" on="1"/>
        <pt x="548" y="105" on="0"/>
        <pt x="711" y="105" on="0"/>
        <pt x="825" y="127" on="0"/>
        <pt x="873" y="144" on="1"/>
        <pt x="965" y="175" on="0"/>
        <pt x="1015" y="211" on="1"/>
      </contour>
    </TTGlyph>
    <TTGlyph name="Cacute" xMin="110" yMin="-15" xMax="1147" yMax="2000">
      <component glyphName="C" x="0" y="0" flags="0x1204"/>
      <component glyphName="acute.cap" x="677" y="0" flags="0x1004"/>
    </TTGlyph>
    <TTGlyph name="Ccaron" xMin="110" yMin="-15" xMax="1189" yMax="2000">
      <component glyphName="C" x="0" y="0" flags="0x1204"/>
      <component glyphName="caron.cap" x="444" y="0" flags="0x1004"/>
    </TTGlyph>
    <TTGlyph name="Ccedilla" xMin="110" yMin="-463" xMax="1147" yMax="1546">
      <contour>
        <pt x="334" y="-319" on="1"/>
        <pt x="367" y="-337" on="0"/>
        <pt x="422" y="-337" on="1"/>
        <pt x="592" y="-337" on="0"/>
        <pt x="592" y="-144" on="1"/>
        <pt x="592" y="-60" on="0"/>
        <pt x="584" y="-14" on="1"/>
        <pt x="340" y="0" on="0"/>
        <pt x="217" y="202" on="1"/>
        <pt x="110" y="379" on="0"/>
        <pt x="110" y="657" on="1"/>
        <pt x="110" y="904" on="0"/>
        <pt x="200" y="1109" on="1"/>
        <pt x="290" y="1313" on="0"/>
        <pt x="456" y="1430" on="1"/>
        <pt x="621" y="1546" on="0"/>
        <pt x="824" y="1546" on="1"/>
        <pt x="948" y="1546" on="0"/>
        <pt x="1044" y="1516" on="1"/>
        <pt x="1147" y="1484" on="1"/>
        <pt x="1094" y="1358" on="1"/>
        <pt x="1056" y="1376" on="1"/>
        <pt x="960" y="1420" on="0"/>
        <pt x="720" y="1420" on="0"/>
        <pt x="561" y="1353" on="0"/>
        <pt x="436" y="1238" on="0"/>
        <pt x="391" y="1162" on="1"/>
        <pt x="264" y="945" on="0"/>
        <pt x="264" y="665" on="1"/>
        <pt x="264" y="277" on="0"/>
        <pt x="476" y="148" on="1"/>
        <pt x="548" y="105" on="0"/>
        <pt x="711" y="105" on="0"/>
        <pt x="825" y="127" on="0"/>
        <pt x="873" y="144" on="1"/>
        <pt x="965" y="175" on="0"/>
        <pt x="1015" y="211" on="1"/>
        <pt x="1038" y="83" on="1"/>
        <pt x="907" y="0" on="0"/>
        <pt x="695" y="-12" on="1"/>
        <pt x="723" y="-81" on="0"/>
        <pt x="723" y="-260" on="0"/>
        <pt x="681" y="-369" on="0"/>
        <pt x="645" y="-402" on="1"/>
        <pt x="578" y="-463" on="0"/>
        <pt x="460" y="-463" on="1"/>
        <pt x="353" y="-463" on="0"/>
        <pt x="314" y="-434" on="1"/>
      </contour>
    </TTGlyph>
    <TTGlyph name="Ccircumflex" xMin="110" yMin="-15" xMax="1161" yMax="2000">
      <component glyphName="C" x="0" y="0" flags="0x1204"/>
      <component glyphName="circumflex.cap" x="429" y="0" flags="0x1004"/>
    </TTGlyph>
    <TTGlyph name="Cdotaccent" xMin="110" yMin="-15" xMax="1147" yMax="1920">
      <component glyphName="dotaccent.cap" x="672" y="0" flags="0x1004"/>
      <component glyphName="C" x="0" y="0" flags="0x1004"/>
    </TTGlyph>
    <TTGlyph name="D" xMin="121" yMin="-16" xMax="1298" yMax="1546">
      <contour>
        <pt x="401" y="1530" on="1"/>
        <pt x="722" y="1546" on="1"/>
        <pt x="1014" y="1546" on="0"/>
        <pt x="1160" y="1373" on="1"/>
        <pt x="1298" y="1211" on="0"/>
        <pt x="1298" y="902" on="1"/>
        <pt x="1298" y="513" on="0"/>
        <pt x="1088" y="250" on="1"/>
        <pt x="949" y="75" on="0"/>
        <pt x="743" y="12" on="1"/>
        <pt x="648" y="-16" on="0"/>
        <pt x="542" y="-16" on="1"/>
        <pt x="515" y="-16" on="0"/>
        <pt x="498" y="-15" on="1"/>
        <pt x="436" y="-11" on="1"/>
        <pt x="401" y="-9" on="0"/>
        <pt x="338" y="-4" on="0"/>
        <pt x="308" y="-3" on="1"/>
        <pt x="248" y="-1" on="1"/>
        <pt x="219" y="0" on="0"/>
        <pt x="198" y="0" on="1"/>
        <pt x="121" y="0" on="1"/>
        <pt x="314" y="1530" on="1"/>
      </contour>
      <contour>
        <pt x="287" y="125" on="1"/>
        <pt x="445" y="99" on="0"/>
        <pt x="548" y="99" on="0"/>
        <pt x="558" y="99" on="1"/>
        <pt x="743" y="103" on="0"/>
        <pt x="884" y="224" on="1"/>
        <pt x="1010" y="332" on="0"/>
        <pt x="1080" y="524" on="1"/>
        <pt x="1142" y="695" on="0"/>
        <pt x="1142" y="898" on="1"/>
        <pt x="1142" y="1181" on="0"/>
        <pt x="1032" y="1308" on="1"/>
        <pt x="925" y="1434" on="0"/>
        <pt x="679" y="1434" on="1"/>
        <pt x="606" y="1434" on="0"/>
        <pt x="539" y="1426" on="1"/>
        <pt x="449" y="1415" on="1"/>
      </contour>
    </TTGlyph>
    <TTGlyph name="Dcaron" xMin="121" yMin="-16" xMax="1298" yMax="2000">
      <component glyphName="caron.cap" x="405" y="0" flags="0x1004"/>
      <component glyphName="D" x="0" y="0" flags="0x1004"/>
    </TTGlyph>
    <TTGlyph name="Dcroat" xMin="53" yMin="-15" xMax="1298" yMax="1547">
      <contour>
        <pt x="401" y="1531" on="1"/>
        <pt x="722" y="1547" on="1"/>
        <pt x="1014" y="1547" on="0"/>
        <pt x="1160" y="1374" on="1"/>
        <pt x="1298" y="1212" on="0"/>
        <pt x="1298" y="903" on="1"/>
        <pt x="1298" y="514" on="0"/>
        <pt x="1088" y="251" on="1"/>
        <pt x="949" y="76" on="0"/>
        <pt x="743" y="14" on="1"/>
        <pt x="648" y="-15" on="0"/>
        <pt x="542" y="-15" on="1"/>
        <pt x="515" y="-15" on="0"/>
        <pt x="498" y="-14" on="1"/>
        <pt x="436" y="-10" on="1"/>
        <pt x="401" y="-8" on="0"/>
        <pt x="338" y="-3" on="0"/>
        <pt x="308" y="-2" on="1"/>
        <pt x="248" y="0" on="1"/>
        <pt x="219" y="1" on="0"/>
        <pt x="198" y="1" on="1"/>
        <pt x="121" y="1" on="1"/>
        <pt x="213" y="733" on="1"/>
        <pt x="53" y="733" on="1"/>
        <pt x="65" y="833" on="1"/>
        <pt x="226" y="833" on="1"/>
        <pt x="314" y="1531" on="1"/>
      </contour>
      <contour>
        <pt x="287" y="126" on="1"/>
        <pt x="445" y="100" on="0"/>
        <pt x="548" y="100" on="0"/>
        <pt x="558" y="100" on="1"/>
        <pt x="743" y="104" on="0"/>
        <pt x="884" y="226" on="1"/>
        <pt x="1010" y="333" on="0"/>
        <pt x="1080" y="525" on="1"/>
        <pt x="1142" y="696" on="0"/>
        <pt x="1142" y="899" on="1"/>
        <pt x="1142" y="1182" on="0"/>
        <pt x="1032" y="1310" on="1"/>
        <pt x="925" y="1435" on="0"/>
        <pt x="679" y="1435" on="1"/>
        <pt x="606" y="1435" on="0"/>
        <pt x="539" y="1427" on="1"/>
        <pt x="449" y="1416" on="1"/>
        <pt x="375" y="833" on="1"/>
        <pt x="804" y="833" on="1"/>
        <pt x="792" y="733" on="1"/>
        <pt x="363" y="733" on="1"/>
      </contour>
    </TTGlyph>
    <TTGlyph name="Delta" xMin="-20" yMin="0" xMax="1319" yMax="1508">
      <contour>
        <pt x="-20" y="22" on="1"/>
        <pt x="733" y="1508" on="1"/>
        <pt x="763" y="1508" on="1"/>
        <pt x="1319" y="26" on="1"/>
        <pt x="1302" y="0" on="1"/>
        <pt x="-8" y="0" on="1"/>
      </contour>
      <contour>
        <pt x="1108" y="130" on="1"/>
        <pt x="731" y="1184" on="1"/>
        <pt x="218" y="130" on="1"/>
      </contour>
    </TTGlyph>
    <TTGlyph name="E" xMin="121" yMin="0" xMax="1070" yMax="1530">
      <contour>
        <pt x="314" y="1530" on="1"/>
        <pt x="1070" y="1530" on="1"/>
        <pt x="1064" y="1410" on="1"/>
        <pt x="450" y="1417" on="1"/>
        <pt x="377" y="838" on="1"/>
        <pt x="851" y="844" on="1"/>
        <pt x="842" y="717" on="1"/>
        <pt x="363" y="728" on="1"/>
        <pt x="285" y="114" on="1"/>
        <pt x="1022" y="127" on="1"/>
        <pt x="1011" y="0" on="1"/>
        <pt x="121" y="0" on="1"/>
      </contour>
    </TTGlyph>
    <TTGlyph name="Eacute" xMin="121" yMin="0" xMax="1070" yMax="2000">
      <component glyphName="acute.cap" x="577" y="0" flags="0x1004"/>
      <component glyphName="E" x="0" y="0" flags="0x1004"/>
    </TTGlyph>
    <TTGlyph name="Ebreve" xMin="121" yMin="0" xMax="1070" yMax="1980">
      <component glyphName="breve.cap" x="372" y="0" flags="0x1004"/>
      <component glyphName="E" x="0" y="0" flags="0x1004"/>
    </TTGlyph>
    <TTGlyph name="Ecaron" xMin="121" yMin="0" xMax="1088" yMax="2000">
      <component glyphName="caron.cap" x="343" y="0" flags="0x1004"/>
      <component glyphName="E" x="0" y="0" flags="0x1004"/>
    </TTGlyph>
    <TTGlyph name="Ecircumflex" xMin="121" yMin="0" xMax="1070" yMax="2000">
      <component glyphName="E" x="0" y="0" flags="0x1204"/>
      <component glyphName="circumflex.cap" x="329" y="0" flags="0x1004"/>
    </TTGlyph>
    <TTGlyph name="Edieresis" xMin="121" yMin="0" xMax="1070" yMax="1935">
      <component glyphName="dieresis.cap" x="333" y="0" flags="0x1004"/>
      <component glyphName="E" x="0" y="0" flags="0x1004"/>
    </TTGlyph>
    <TTGlyph name="Edotaccent" xMin="121" yMin="0" xMax="1070" yMax="1920">
      <component glyphName="dotaccent.cap" x="571" y="0" flags="0x1004"/>
      <component glyphName="E" x="0" y="0" flags="0x1004"/>
    </TTGlyph>
    <TTGlyph name="Egrave" xMin="121" yMin="0" xMax="1070" yMax="2000">
      <component glyphName="grave.cap" x="376" y="0" flags="0x1004"/>
      <component glyphName="E" x="0" y="0" flags="0x1004"/>
    </TTGlyph>
    <TTGlyph name="Emacron" xMin="121" yMin="0" xMax="1070" yMax="1862">
      <component glyphName="macron.cap" x="399" y="0" flags="0x1004"/>
      <component glyphName="E" x="0" y="0" flags="0x1004"/>
    </TTGlyph>
    <TTGlyph name="Eng" xMin="121" yMin="-315" xMax="1333" yMax="1530">
      <contour>
        <pt x="314" y="1530" on="1"/>
        <pt x="472" y="1530" on="1"/>
        <pt x="963" y="403" on="1"/>
        <pt x="1035" y="196" on="1"/>
        <pt x="1056" y="434" on="1"/>
        <pt x="1190" y="1530" on="1"/>
        <pt x="1333" y="1530" on="1"/>
        <pt x="1140" y="0" on="1"/>
        <pt x="1137" y="0" on="1"/>
        <pt x="1045" y="-255" on="0"/>
        <pt x="701" y="-315" on="1"/>
        <pt x="673" y="-247" on="1"/>
        <pt x="844" y="-200" on="0"/>
        <pt x="940" y="-72" on="1"/>
        <pt x="969" y="-32" on="0"/>
        <pt x="986" y="11" on="1"/>
        <pt x="497" y="1122" on="1"/>
        <pt x="425" y="1361" on="1"/>
        <pt x="396" y="1073" on="1"/>
        <pt x="262" y="0" on="1"/>
        <pt x="121" y="0" on="1"/>
      </contour>
    </TTGlyph>
    <TTGlyph name="Eogonek" xMin="121" yMin="-436" xMax="1070" yMax="1530">
      <contour>
        <pt x="994" y="-342" on="1"/>
        <pt x="880" y="-436" on="0"/>
        <pt x="748" y="-436" on="1"/>
        <pt x="655" y="-436" on="0"/>
        <pt x="602" y="-384" on="1"/>
        <pt x="560" y="-341" on="0"/>
        <pt x="560" y="-235" on="0"/>
        <pt x="617" y="-147" on="0"/>
        <pt x="658" y="-110" on="1"/>
        <pt x="713" y="-61" on="0"/>
        <pt x="823" y="0" on="1"/>
        <pt x="121" y="0" on="1"/>
        <pt x="314" y="1530" on="1"/>
        <pt x="1070" y="1530" on="1"/>
        <pt x="1064" y="1410" on="1"/>
        <pt x="450" y="1417" on="1"/>
        <pt x="377" y="838" on="1"/>
        <pt x="851" y="844" on="1"/>
        <pt x="842" y="717" on="1"/>
        <pt x="363" y="728" on="1"/>
        <pt x="285" y="114" on="1"/>
        <pt x="1022" y="127" on="1"/>
        <pt x="1011" y="0" on="1"/>
        <pt x="947" y="0" on="1"/>
        <pt x="876" y="-47" on="1"/>
        <pt x="708" y="-158" on="0"/>
        <pt x="708" y="-242" on="1"/>
        <pt x="708" y="-281" on="0"/>
        <pt x="758" y="-322" on="0"/>
        <pt x="796" y="-322" on="1"/>
        <pt x="880" y="-322" on="0"/>
        <pt x="955" y="-264" on="1"/>
      </contour>
    </TTGlyph>
    <TTGlyph name="Eth" xMin="52" yMin="-15" xMax="1298" yMax="1547">
      <contour>
        <pt x="401" y="1531" on="1"/>
        <pt x="722" y="1547" on="1"/>
        <pt x="1014" y="1547" on="0"/>
        <pt x="1160" y="1374" on="1"/>
        <pt x="1298" y="1212" on="0"/>
        <pt x="1298" y="903" on="1"/>
        <pt x="1298" y="514" on="0"/>
        <pt x="1088" y="251" on="1"/>
        <pt x="949" y="76" on="0"/>
        <pt x="743" y="14" on="1"/>
        <pt x="648" y="-15" on="0"/>
        <pt x="542" y="-15" on="1"/>
        <pt x="515" y="-15" on="0"/>
        <pt x="498" y="-14" on="1"/>
        <pt x="436" y="-10" on="1"/>
        <pt x="401" y="-8" on="0"/>
        <pt x="338" y="-3" on="0"/>
        <pt x="308" y="-2" on="1"/>
        <pt x="248" y="0" on="1"/>
        <pt x="219" y="1" on="0"/>
        <pt x="198" y="1" on="1"/>
        <pt x="121" y="1" on="1"/>
        <pt x="213" y="733" on="1"/>
        <pt x="52" y="733" on="1"/>
        <pt x="64" y="833" on="1"/>
        <pt x="226" y="833" on="1"/>
        <pt x="314" y="1531" on="1"/>
      </contour>
      <contour>
        <pt x="287" y="126" on="1"/>
        <pt x="445" y="100" on="0"/>
        <pt x="548" y="100" on="0"/>
        <pt x="558" y="100" on="1"/>
        <pt x="743" y="104" on="0"/>
        <pt x="884" y="226" on="1"/>
        <pt x="1010" y="333" on="0"/>
        <pt x="1080" y="525" on="1"/>
        <pt x="1142" y="696" on="0"/>
        <pt x="1142" y="899" on="1"/>
        <pt x="1142" y="1182" on="0"/>
        <pt x="1032" y="1310" on="1"/>
        <pt x="925" y="1435" on="0"/>
        <pt x="679" y="1435" on="1"/>
        <pt x="606" y="1435" on="0"/>
        <pt x="539" y="1427" on="1"/>
        <pt x="449" y="1416" on="1"/>
        <pt x="375" y="833" on="1"/>
        <pt x="803" y="833" on="1"/>
        <pt x="791" y="733" on="1"/>
        <pt x="363" y="733" on="1"/>
      </contour>
    </TTGlyph>
    <TTGlyph name="Euro" xMin="26" yMin="-16" xMax="1244" yMax="1546">
      <contour>
        <pt x="727" y="97" on="1"/>
        <pt x="935" y="97" on="0"/>
        <pt x="1099" y="215" on="1"/>
        <pt x="1142" y="111" on="1"/>
        <pt x="1064" y="23" on="0"/>
        <pt x="849" y="-6" on="1"/>
        <pt x="780" y="-16" on="0"/>
        <pt x="627" y="-16" on="0"/>
        <pt x="500" y="29" on="0"/>
        <pt x="400" y="110" on="0"/>
        <pt x="325" y="219" on="0"/>
        <pt x="299" y="284" on="1"/>
        <pt x="247" y="411" on="0"/>
        <pt x="237" y="562" on="1"/>
        <pt x="26" y="562" on="1"/>
        <pt x="42" y="670" on="1"/>
        <pt x="234" y="670" on="1"/>
        <pt x="236" y="802" on="0"/>
        <pt x="261" y="917" on="1"/>
        <pt x="75" y="917" on="1"/>
        <pt x="91" y="1025" on="1"/>
        <pt x="289" y="1025" on="1"/>
        <pt x="367" y="1268" on="0"/>
        <pt x="714" y="1546" on="0"/>
        <pt x="935" y="1546" on="1"/>
        <pt x="1073" y="1546" on="0"/>
        <pt x="1186" y="1510" on="1"/>
        <pt x="1244" y="1492" on="1"/>
        <pt x="1195" y="1371" on="1"/>
        <pt x="1141" y="1409" on="0"/>
        <pt x="1004" y="1426" on="1"/>
        <pt x="954" y="1432" on="0"/>
        <pt x="810" y="1432" on="0"/>
        <pt x="669" y="1375" on="0"/>
        <pt x="613" y="1322" on="1"/>
        <pt x="502" y="1216" on="0"/>
        <pt x="445" y="1025" on="1"/>
        <pt x="1028" y="1025" on="1"/>
        <pt x="1013" y="917" on="1"/>
        <pt x="419" y="917" on="1"/>
        <pt x="398" y="807" on="0"/>
        <pt x="394" y="670" on="1"/>
        <pt x="979" y="670" on="1"/>
        <pt x="964" y="562" on="1"/>
        <pt x="395" y="562" on="1"/>
        <pt x="411" y="231" on="0"/>
        <pt x="584" y="132" on="1"/>
        <pt x="644" y="97" on="0"/>
      </contour>
    </TTGlyph>
    <TTGlyph name="F" xMin="121" yMin="0" xMax="1093" yMax="1530">
      <contour>
        <pt x="314" y="1530" on="1"/>
        <pt x="1093" y="1530" on="1"/>
        <pt x="1082" y="1410" on="1"/>
        <pt x="450" y="1417" on="1"/>
        <pt x="377" y="835" on="1"/>
        <pt x="885" y="843" on="1"/>
        <pt x="875" y="713" on="1"/>
        <pt x="363" y="725" on="1"/>
        <pt x="271" y="0" on="1"/>
        <pt x="121" y="0" on="1"/>
      </contour>
    </TTGlyph>
    <TTGlyph name="G" xMin="112" yMin="-55" xMax="1247" yMax="1546">
      <contour>
        <pt x="1199" y="1342" on="1"/>
        <pt x="1060" y="1424" on="0"/>
        <pt x="843" y="1424" on="1"/>
        <pt x="657" y="1424" on="0"/>
        <pt x="518" y="1304" on="1"/>
        <pt x="331" y="1141" on="0"/>
        <pt x="280" y="830" on="1"/>
        <pt x="265" y="743" on="0"/>
        <pt x="265" y="650" on="0"/>
        <pt x="266" y="544" on="0"/>
        <pt x="306" y="350" on="0"/>
        <pt x="351" y="273" on="1"/>
        <pt x="452" y="101" on="0"/>
        <pt x="643" y="101" on="1"/>
        <pt x="786" y="101" on="0"/>
        <pt x="1014" y="186" on="1"/>
        <pt x="1068" y="607" on="1"/>
        <pt x="787" y="608" on="1"/>
        <pt x="802" y="729" on="1"/>
        <pt x="1232" y="729" on="1"/>
        <pt x="1150" y="94" on="1"/>
        <pt x="1121" y="91" on="0"/>
        <pt x="1088" y="82" on="1"/>
        <pt x="930" y="36" on="1"/>
        <pt x="630" y="-55" on="0"/>
        <pt x="454" y="9" on="1"/>
        <pt x="253" y="82" on="0"/>
        <pt x="165" y="322" on="1"/>
        <pt x="112" y="469" on="0"/>
        <pt x="112" y="777" on="0"/>
        <pt x="159" y="1007" on="0"/>
        <pt x="253" y="1211" on="0"/>
        <pt x="386" y="1373" on="0"/>
        <pt x="468" y="1430" on="1"/>
        <pt x="639" y="1546" on="0"/>
        <pt x="845" y="1546" on="1"/>
        <pt x="1036" y="1546" on="0"/>
        <pt x="1208" y="1491" on="1"/>
        <pt x="1247" y="1479" on="1"/>
      </contour>
    </TTGlyph>
    <TTGlyph name="Gbreve" xMin="112" yMin="-55" xMax="1247" yMax="1980">
      <component glyphName="breve.cap" x="504" y="0" flags="0x1004"/>
      <component glyphName="G" x="0" y="0" flags="0x1004"/>
    </TTGlyph>
    <TTGlyph name="Gcircumflex" xMin="112" yMin="-55" xMax="1247" yMax="2000">
      <component glyphName="G" x="0" y="0" flags="0x1204"/>
      <component glyphName="circumflex.cap" x="461" y="0" flags="0x1004"/>
    </TTGlyph>
    <TTGlyph name="Gcommaaccent" xMin="112" yMin="-560" xMax="1247" yMax="1546">
      <component glyphName="commaaccent" x="495" y="0" flags="0x1004"/>
      <component glyphName="G" x="0" y="0" flags="0x1004"/>
    </TTGlyph>
    <TTGlyph name="Gdotaccent" xMin="112" yMin="-55" xMax="1247" yMax="1920">
      <component glyphName="dotaccent.cap" x="703" y="0" flags="0x1004"/>
      <component glyphName="G" x="0" y="0" flags="0x1004"/>
    </TTGlyph>
    <TTGlyph name="H" xMin="121" yMin="0" xMax="1340" yMax="1530">
      <contour>
        <pt x="314" y="1530" on="1"/>
        <pt x="464" y="1530" on="1"/>
        <pt x="375" y="829" on="1"/>
        <pt x="1101" y="829" on="1"/>
        <pt x="1190" y="1530" on="1"/>
        <pt x="1340" y="1530" on="1"/>
        <pt x="1148" y="0" on="1"/>
        <pt x="997" y="0" on="1"/>
        <pt x="1087" y="714" on="1"/>
        <pt x="361" y="714" on="1"/>
        <pt x="271" y="0" on="1"/>
        <pt x="121" y="0" on="1"/>
      </contour>
    </TTGlyph>
    <TTGlyph name="Hbar" xMin="56" yMin="0" xMax="1516" yMax="1530">
      <contour>
        <pt x="251" y="1036" on="1"/>
        <pt x="56" y="1036" on="1"/>
        <pt x="67" y="1151" on="1"/>
        <pt x="266" y="1151" on="1"/>
        <pt x="314" y="1530" on="1"/>
        <pt x="464" y="1530" on="1"/>
        <pt x="416" y="1151" on="1"/>
        <pt x="1142" y="1151" on="1"/>
        <pt x="1190" y="1530" on="1"/>
        <pt x="1340" y="1530" on="1"/>
        <pt x="1292" y="1151" on="1"/>
        <pt x="1516" y="1151" on="1"/>
        <pt x="1505" y="1036" on="1"/>
        <pt x="1278" y="1036" on="1"/>
        <pt x="1148" y="0" on="1"/>
        <pt x="997" y="0" on="1"/>
        <pt x="1074" y="610" on="1"/>
        <pt x="348" y="610" on="1"/>
        <pt x="271" y="0" on="1"/>
        <pt x="121" y="0" on="1"/>
      </contour>
      <contour>
        <pt x="1088" y="725" on="1"/>
        <pt x="1127" y="1036" on="1"/>
        <pt x="401" y="1036" on="1"/>
        <pt x="362" y="725" on="1"/>
      </contour>
    </TTGlyph>
    <TTGlyph name="Hcircumflex" xMin="121" yMin="0" xMax="1340" yMax="2000">
      <component glyphName="H" x="0" y="0" flags="0x1204"/>
      <component glyphName="circumflex.cap" x="451" y="0" flags="0x1004"/>
    </TTGlyph>
    <TTGlyph name="I" xMin="145" yMin="0" xMax="489" yMax="1530">
      <contour>
        <pt x="338" y="1530" on="1"/>
        <pt x="489" y="1530" on="1"/>
        <pt x="296" y="0" on="1"/>
        <pt x="145" y="0" on="1"/>
      </contour>
    </TTGlyph>
    <TTGlyph name="IJ" xMin="145" yMin="-323" xMax="1073" yMax="1530">
      <component glyphName="I" x="0" y="0" flags="0x1004"/>
      <component glyphName="J" x="572" y="0" flags="0x1004"/>
    </TTGlyph>
    <TTGlyph name="Iacute" xMin="145" yMin="0" xMax="750" yMax="2000">
      <component glyphName="I" x="0" y="0" flags="0x1204"/>
      <component glyphName="acute.cap" x="295" y="0" flags="0x1004"/>
    </TTGlyph>
    <TTGlyph name="Ibreve" xMin="142" yMin="0" xMax="773" yMax="1980">
      <component glyphName="I" x="0" y="0" flags="0x1204"/>
      <component glyphName="breve.cap" x="90" y="0" flags="0x1004"/>
    </TTGlyph>
    <TTGlyph name="Icircumflex" xMin="98" yMin="0" xMax="779" yMax="2000">
      <component glyphName="I" x="0" y="0" flags="0x1204"/>
      <component glyphName="circumflex.cap" x="47" y="0" flags="0x1004"/>
    </TTGlyph>
    <TTGlyph name="Idieresis" xMin="139" yMin="0" xMax="761" yMax="1935">
      <component glyphName="I" x="0" y="0" flags="0x1204"/>
      <component glyphName="dieresis.cap" x="52" y="0" flags="0x1004"/>
    </TTGlyph>
    <TTGlyph name="Idotaccent" xMin="145" yMin="0" xMax="550" yMax="1920">
      <component glyphName="I" x="0" y="0" flags="0x1204"/>
      <component glyphName="dotaccent.cap" x="290" y="0" flags="0x1004"/>
    </TTGlyph>
    <TTGlyph name="Igrave" xMin="145" yMin="0" xMax="513" yMax="2000">
      <component glyphName="I" x="0" y="0" flags="0x1204"/>
      <component glyphName="grave.cap" x="94" y="0" flags="0x1004"/>
    </TTGlyph>
    <TTGlyph name="Imacron" xMin="145" yMin="0" xMax="675" yMax="1862">
      <component glyphName="I" x="0" y="0" flags="0x1204"/>
      <component glyphName="macron.cap" x="117" y="0" flags="0x1004"/>
    </TTGlyph>
    <TTGlyph name="Iogonek" xMin="-122" yMin="-436" xMax="489" yMax="1530">
      <contour>
        <pt x="312" y="-342" on="1"/>
        <pt x="198" y="-436" on="0"/>
        <pt x="65" y="-436" on="1"/>
        <pt x="-29" y="-436" on="0"/>
        <pt x="-80" y="-384" on="1"/>
        <pt x="-122" y="-341" on="0"/>
        <pt x="-122" y="-235" on="0"/>
        <pt x="-64" y="-145" on="0"/>
        <pt x="-22" y="-108" on="1"/>
        <pt x="38" y="-56" on="0"/>
        <pt x="145" y="2" on="1"/>
        <pt x="338" y="1530" on="1"/>
        <pt x="489" y="1530" on="1"/>
        <pt x="296" y="0" on="1"/>
        <pt x="265" y="0" on="1"/>
        <pt x="194" y="-47" on="1"/>
        <pt x="26" y="-158" on="0"/>
        <pt x="26" y="-242" on="1"/>
        <pt x="26" y="-281" on="0"/>
        <pt x="76" y="-322" on="0"/>
        <pt x="114" y="-322" on="1"/>
        <pt x="197" y="-322" on="0"/>
        <pt x="272" y="-264" on="1"/>
      </contour>
    </TTGlyph>
    <TTGlyph name="Itilde" xMin="71" yMin="0" xMax="835" yMax="1964">
      <component glyphName="I" x="0" y="0" flags="0x1204"/>
      <component glyphName="tilde.cap" x="41" y="0" flags="0x1004"/>
    </TTGlyph>
    <TTGlyph name="J" xMin="-169" yMin="-323" xMax="501" yMax="1530">
      <contour>
        <pt x="168" y="108" on="1"/>
        <pt x="184" y="182" on="0"/>
        <pt x="221" y="411" on="0"/>
        <pt x="254" y="659" on="0"/>
        <pt x="269" y="790" on="1"/>
        <pt x="324" y="1298" on="1"/>
        <pt x="337" y="1421" on="0"/>
        <pt x="350" y="1530" on="1"/>
        <pt x="501" y="1530" on="1"/>
        <pt x="450" y="1073" on="0"/>
        <pt x="429" y="898" on="1"/>
        <pt x="429" y="898" on="0"/>
        <pt x="390" y="586" on="1"/>
        <pt x="334" y="158" on="0"/>
        <pt x="279" y="-28" on="0"/>
        <pt x="187" y="-168" on="0"/>
        <pt x="129" y="-214" on="1"/>
        <pt x="26" y="-294" on="0"/>
        <pt x="-141" y="-323" on="1"/>
        <pt x="-169" y="-255" on="1"/>
        <pt x="-32" y="-217" on="0"/>
        <pt x="60" y="-116" on="1"/>
        <pt x="140" y="-26" on="0"/>
      </contour>
    </TTGlyph>
    <TTGlyph name="Jcircumflex" xMin="-169" yMin="-323" xMax="789" yMax="2000">
      <component glyphName="J" x="0" y="0" flags="0x1204"/>
      <component glyphName="circumflex.cap" x="57" y="0" flags="0x1004"/>
    </TTGlyph>
    <TTGlyph name="K" xMin="121" yMin="0" xMax="1283" yMax="1530">
      <contour>
        <pt x="314" y="1530" on="1"/>
        <pt x="464" y="1530" on="1"/>
        <pt x="359" y="702" on="1"/>
        <pt x="1105" y="1530" on="1"/>
        <pt x="1283" y="1530" on="1"/>
        <pt x="661" y="854" on="1"/>
        <pt x="661" y="854" on="0"/>
        <pt x="1066" y="150" on="1"/>
        <pt x="1117" y="63" on="0"/>
        <pt x="1163" y="0" on="1"/>
        <pt x="982" y="0" on="1"/>
        <pt x="974" y="8" on="0"/>
        <pt x="956" y="38" on="1"/>
        <pt x="595" y="696" on="0"/>
        <pt x="564" y="749" on="1"/>
        <pt x="333" y="497" on="1"/>
        <pt x="271" y="0" on="1"/>
        <pt x="121" y="0" on="1"/>
      </contour>
    </TTGlyph>
    <TTGlyph name="Kcommaaccent" xMin="121" yMin="-558" xMax="1283" yMax="1530">
      <component glyphName="commaaccent" x="480" y="2" flags="0x1004"/>
      <component glyphName="K" x="0" y="0" flags="0x1004"/>
    </TTGlyph>
    <TTGlyph name="L" xMin="121" yMin="0" xMax="880" yMax="1530">
      <contour>
        <pt x="314" y="1530" on="1"/>
        <pt x="464" y="1530" on="1"/>
        <pt x="287" y="126" on="1"/>
        <pt x="880" y="130" on="1"/>
        <pt x="864" y="0" on="1"/>
        <pt x="121" y="0" on="1"/>
      </contour>
    </TTGlyph>
    <TTGlyph name="Lacute" xMin="121" yMin="0" xMax="880" yMax="2002">
      <component glyphName="acute.cap" x="300" y="2" flags="0x1004"/>
      <component glyphName="L" x="0" y="0" flags="0x1004"/>
    </TTGlyph>
    <TTGlyph name="Lcaron" xMin="121" yMin="0" xMax="1004" yMax="1618">
      <component glyphName="L" x="0" y="0" flags="0x1204"/>
      <component glyphName="caronvertical" x="596" y="-62" flags="0x1004"/>
    </TTGlyph>
    <TTGlyph name="Lcommaaccent" xMin="121" yMin="-558" xMax="880" yMax="1530">
      <component glyphName="commaaccent" x="379" y="2" flags="0x1004"/>
      <component glyphName="L" x="0" y="0" flags="0x1004"/>
    </TTGlyph>
    <TTGlyph name="Ldot" xMin="121" yMin="0" xMax="1006" yMax="1530">
      <component glyphName="L" x="0" y="0" flags="0x1004"/>
      <component glyphName="period" x="695" y="789" flags="0x1004"/>
    </TTGlyph>
    <TTGlyph name="Lslash" xMin="-29" yMin="1" xMax="880" yMax="1531">
      <contour>
        <pt x="195" y="593" on="1"/>
        <pt x="-1" y="510" on="1"/>
        <pt x="-29" y="601" on="1"/>
        <pt x="209" y="704" on="1"/>
        <pt x="314" y="1531" on="1"/>
        <pt x="464" y="1531" on="1"/>
        <pt x="368" y="772" on="1"/>
        <pt x="796" y="957" on="1"/>
        <pt x="823" y="859" on="1"/>
        <pt x="354" y="660" on="1"/>
        <pt x="287" y="127" on="1"/>
        <pt x="880" y="131" on="1"/>
        <pt x="864" y="1" on="1"/>
        <pt x="121" y="1" on="1"/>
      </contour>
    </TTGlyph>
    <TTGlyph name="M" xMin="72" yMin="-18" xMax="1620" yMax="1530">
      <contour>
        <pt x="452" y="1530" on="1"/>
        <pt x="646" y="1530" on="1"/>
        <pt x="819" y="462" on="1"/>
        <pt x="850" y="226" on="1"/>
        <pt x="942" y="460" on="1"/>
        <pt x="1402" y="1530" on="1"/>
        <pt x="1620" y="1530" on="1"/>
        <pt x="1576" y="0" on="1"/>
        <pt x="1423" y="0" on="1"/>
        <pt x="1472" y="1022" on="1"/>
        <pt x="1496" y="1431" on="1"/>
        <pt x="872" y="-4" on="1"/>
        <pt x="765" y="-18" on="1"/>
        <pt x="595" y="1045" on="1"/>
        <pt x="545" y="1431" on="1"/>
        <pt x="468" y="1037" on="1"/>
        <pt x="225" y="0" on="1"/>
        <pt x="72" y="0" on="1"/>
      </contour>
    </TTGlyph>
    <TTGlyph name="N" xMin="121" yMin="0" xMax="1333" yMax="1530">
      <contour>
        <pt x="314" y="1530" on="1"/>
        <pt x="472" y="1530" on="1"/>
        <pt x="963" y="403" on="1"/>
        <pt x="1035" y="196" on="1"/>
        <pt x="1056" y="434" on="1"/>
        <pt x="1190" y="1530" on="1"/>
        <pt x="1333" y="1530" on="1"/>
        <pt x="1140" y="0" on="1"/>
        <pt x="991" y="0" on="1"/>
        <pt x="497" y="1122" on="1"/>
        <pt x="425" y="1361" on="1"/>
        <pt x="396" y="1073" on="1"/>
        <pt x="262" y="0" on="1"/>
        <pt x="121" y="0" on="1"/>
      </contour>
    </TTGlyph>
    <TTGlyph name="Nacute" xMin="121" yMin="0" xMax="1333" yMax="2000">
      <component glyphName="acute.cap" x="723" y="0" flags="0x1004"/>
      <component glyphName="N" x="0" y="0" flags="0x1004"/>
    </TTGlyph>
    <TTGlyph name="Ncaron" xMin="121" yMin="0" xMax="1333" yMax="2000">
      <component glyphName="caron.cap" x="489" y="0" flags="0x1004"/>
      <component glyphName="N" x="0" y="0" flags="0x1004"/>
    </TTGlyph>
    <TTGlyph name="Ncommaaccent" xMin="121" yMin="-560" xMax="1333" yMax="1530">
      <component glyphName="commaaccent" x="481" y="0" flags="0x1004"/>
      <component glyphName="N" x="0" y="0" flags="0x1004"/>
    </TTGlyph>
    <TTGlyph name="Ntilde" xMin="121" yMin="0" xMax="1333" yMax="1964">
      <component glyphName="tilde.cap" x="468" y="0" flags="0x1004"/>
      <component glyphName="N" x="0" y="0" flags="0x1004"/>
    </TTGlyph>
    <TTGlyph name="O" xMin="112" yMin="-17" xMax="1300" yMax="1547">
      <contour>
        <pt x="597" y="-17" on="1"/>
        <pt x="486" y="-17" on="0"/>
        <pt x="304" y="79" on="0"/>
        <pt x="242" y="164" on="1"/>
        <pt x="112" y="341" on="0"/>
        <pt x="112" y="644" on="1"/>
        <pt x="112" y="1020" on="0"/>
        <pt x="308" y="1279" on="1"/>
        <pt x="437" y="1450" on="0"/>
        <pt x="620" y="1514" on="1"/>
        <pt x="712" y="1547" on="0"/>
        <pt x="933" y="1547" on="0"/>
        <pt x="1114" y="1447" on="0"/>
        <pt x="1174" y="1361" on="1"/>
        <pt x="1300" y="1182" on="0"/>
        <pt x="1300" y="894" on="1"/>
        <pt x="1300" y="513" on="0"/>
        <pt x="1111" y="254" on="1"/>
        <pt x="913" y="-17" on="0"/>
      </contour>
      <contour>
        <pt x="1143" y="864" on="1"/>
        <pt x="1143" y="1427" on="0"/>
        <pt x="789" y="1427" on="1"/>
        <pt x="565" y="1427" on="0"/>
        <pt x="412" y="1192" on="1"/>
        <pt x="319" y="1047" on="0"/>
        <pt x="284" y="846" on="1"/>
        <pt x="269" y="757" on="0"/>
        <pt x="269" y="654" on="0"/>
        <pt x="269" y="643" on="1"/>
        <pt x="273" y="368" on="0"/>
        <pt x="459" y="99" on="0"/>
        <pt x="629" y="99" on="1"/>
        <pt x="856" y="99" on="0"/>
        <pt x="1004" y="332" on="1"/>
        <pt x="1143" y="552" on="0"/>
      </contour>
    </TTGlyph>
    <TTGlyph name="OE" xMin="112" yMin="-17" xMax="2058" yMax="1547">
      <contour>
        <pt x="593" y="-17" on="1"/>
        <pt x="490" y="-17" on="0"/>
        <pt x="306" y="79" on="0"/>
        <pt x="244" y="164" on="1"/>
        <pt x="112" y="342" on="0"/>
        <pt x="112" y="643" on="1"/>
        <pt x="112" y="883" on="0"/>
        <pt x="200" y="1091" on="1"/>
        <pt x="290" y="1301" on="0"/>
        <pt x="452" y="1422" on="1"/>
        <pt x="617" y="1547" on="0"/>
        <pt x="818" y="1547" on="1"/>
        <pt x="1071" y="1547" on="0"/>
        <pt x="1196" y="1329" on="1"/>
        <pt x="1235" y="1262" on="0"/>
        <pt x="1258" y="1181" on="1"/>
        <pt x="1302" y="1530" on="1"/>
        <pt x="2058" y="1530" on="1"/>
        <pt x="2052" y="1410" on="1"/>
        <pt x="1438" y="1417" on="1"/>
        <pt x="1365" y="838" on="1"/>
        <pt x="1839" y="844" on="1"/>
        <pt x="1830" y="717" on="1"/>
        <pt x="1351" y="728" on="1"/>
        <pt x="1273" y="114" on="1"/>
        <pt x="2010" y="127" on="1"/>
        <pt x="1999" y="0" on="1"/>
        <pt x="1109" y="0" on="1"/>
        <pt x="1148" y="309" on="1"/>
        <pt x="952" y="-17" on="0"/>
      </contour>
      <contour>
        <pt x="1154" y="865" on="1"/>
        <pt x="1154" y="1427" on="0"/>
        <pt x="794" y="1427" on="1"/>
        <pt x="678" y="1427" on="0"/>
        <pt x="580" y="1364" on="1"/>
        <pt x="383" y="1235" on="0"/>
        <pt x="305" y="942" on="1"/>
        <pt x="269" y="807" on="0"/>
        <pt x="269" y="659" on="1"/>
        <pt x="269" y="374" on="0"/>
        <pt x="459" y="99" on="0"/>
        <pt x="634" y="99" on="1"/>
        <pt x="786" y="99" on="0"/>
        <pt x="908" y="208" on="1"/>
        <pt x="1088" y="368" on="0"/>
        <pt x="1140" y="680" on="1"/>
        <pt x="1154" y="770" on="0"/>
      </contour>
    </TTGlyph>
    <TTGlyph name="Oacute" xMin="112" yMin="-17" xMax="1300" yMax="2000">
      <component glyphName="acute.cap" x="699" y="0" flags="0x1004"/>
      <component glyphName="O" x="0" y="0" flags="0x1004"/>
    </TTGlyph>
    <TTGlyph name="Obreve" xMin="112" yMin="-17" xMax="1300" yMax="1980">
      <component glyphName="breve.cap" x="493" y="0" flags="0x1004"/>
      <component glyphName="O" x="0" y="0" flags="0x1004"/>
    </TTGlyph>
    <TTGlyph name="Ocircumflex" xMin="112" yMin="-17" xMax="1300" yMax="2000">
      <component glyphName="O" x="0" y="0" flags="0x1204"/>
      <component glyphName="circumflex.cap" x="451" y="0" flags="0x1004"/>
    </TTGlyph>
    <TTGlyph name="Odieresis" xMin="112" yMin="-17" xMax="1300" yMax="1935">
      <component glyphName="dieresis.cap" x="455" y="0" flags="0x1004"/>
      <component glyphName="O" x="0" y="0" flags="0x1004"/>
    </TTGlyph>
    <TTGlyph name="Ograve" xMin="112" yMin="-17" xMax="1300" yMax="2000">
      <component glyphName="grave.cap" x="498" y="0" flags="0x1004"/>
      <component glyphName="O" x="0" y="0" flags="0x1004"/>
    </TTGlyph>
    <TTGlyph name="Ohungarumlaut" xMin="112" yMin="-17" xMax="1386" yMax="1996">
      <component glyphName="O" x="0" y="0" flags="0x1204"/>
      <component glyphName="hungarumlaut.cap" x="499" y="0" flags="0x1004"/>
    </TTGlyph>
    <TTGlyph name="Omacron" xMin="112" yMin="-17" xMax="1300" yMax="1862">
      <component glyphName="macron.cap" x="521" y="0" flags="0x1004"/>
      <component glyphName="O" x="0" y="0" flags="0x1004"/>
    </TTGlyph>
    <TTGlyph name="Omega" xMin="72" yMin="0" xMax="1531" yMax="1546">
      <contour>
        <pt x="86" y="116" on="1"/>
        <pt x="480" y="116" on="1"/>
        <pt x="359" y="201" on="0"/>
        <pt x="261" y="382" on="1"/>
        <pt x="152" y="582" on="0"/>
        <pt x="152" y="964" on="0"/>
        <pt x="265" y="1254" on="0"/>
        <pt x="364" y="1351" on="1"/>
        <pt x="563" y="1546" on="0"/>
        <pt x="891" y="1546" on="1"/>
        <pt x="1165" y="1546" on="0"/>
        <pt x="1344" y="1376" on="1"/>
        <pt x="1531" y="1201" on="0"/>
        <pt x="1531" y="925" on="1"/>
        <pt x="1531" y="727" on="0"/>
        <pt x="1279" y="249" on="0"/>
        <pt x="1096" y="123" on="1"/>
        <pt x="1511" y="123" on="1"/>
        <pt x="1501" y="0" on="1"/>
        <pt x="923" y="0" on="1"/>
        <pt x="907" y="107" on="1"/>
        <pt x="1094" y="210" on="0"/>
        <pt x="1231" y="429" on="1"/>
        <pt x="1380" y="667" on="0"/>
        <pt x="1380" y="911" on="1"/>
        <pt x="1380" y="1162" on="0"/>
        <pt x="1221" y="1303" on="1"/>
        <pt x="1081" y="1427" on="0"/>
        <pt x="877" y="1427" on="1"/>
        <pt x="623" y="1427" on="0"/>
        <pt x="467" y="1262" on="1"/>
        <pt x="300" y="1085" on="0"/>
        <pt x="300" y="769" on="1"/>
        <pt x="300" y="557" on="0"/>
        <pt x="417" y="354" on="1"/>
        <pt x="481" y="243" on="0"/>
        <pt x="566" y="164" on="1"/>
        <pt x="604" y="128" on="0"/>
        <pt x="640" y="107" on="1"/>
        <pt x="609" y="0" on="1"/>
        <pt x="72" y="0" on="1"/>
      </contour>
    </TTGlyph>
    <TTGlyph name="Oslash" xMin="55" yMin="-122" xMax="1312" yMax="1659">
      <contour>
        <pt x="605" y="-16" on="1"/>
        <pt x="411" y="-16" on="0"/>
        <pt x="285" y="114" on="1"/>
        <pt x="125" y="-122" on="1"/>
        <pt x="55" y="-83" on="1"/>
        <pt x="233" y="178" on="1"/>
        <pt x="112" y="354" on="0"/>
        <pt x="112" y="645" on="1"/>
        <pt x="112" y="1021" on="0"/>
        <pt x="308" y="1280" on="1"/>
        <pt x="437" y="1451" on="0"/>
        <pt x="620" y="1516" on="1"/>
        <pt x="712" y="1548" on="0"/>
        <pt x="813" y="1548" on="1"/>
        <pt x="979" y="1548" on="0"/>
        <pt x="1098" y="1446" on="1"/>
        <pt x="1242" y="1659" on="1"/>
        <pt x="1312" y="1621" on="1"/>
        <pt x="1154" y="1389" on="1"/>
        <pt x="1300" y="1208" on="0"/>
        <pt x="1300" y="895" on="1"/>
        <pt x="1300" y="514" on="0"/>
        <pt x="1111" y="255" on="1"/>
        <pt x="986" y="83" on="0"/>
        <pt x="800" y="17" on="1"/>
        <pt x="708" y="-16" on="0"/>
      </contour>
      <contour>
        <pt x="1015" y="1336" on="1"/>
        <pt x="931" y="1428" on="0"/>
        <pt x="789" y="1428" on="1"/>
        <pt x="565" y="1428" on="0"/>
        <pt x="412" y="1192" on="1"/>
        <pt x="319" y="1048" on="0"/>
        <pt x="284" y="847" on="1"/>
        <pt x="269" y="758" on="0"/>
        <pt x="269" y="707" on="1"/>
        <pt x="269" y="441" on="0"/>
        <pt x="328" y="304" on="1"/>
      </contour>
      <contour>
        <pt x="372" y="226" on="1"/>
        <pt x="463" y="100" on="0"/>
        <pt x="629" y="100" on="1"/>
        <pt x="856" y="100" on="0"/>
        <pt x="1004" y="334" on="1"/>
        <pt x="1143" y="553" on="0"/>
        <pt x="1143" y="865" on="1"/>
        <pt x="1143" y="1122" on="0"/>
        <pt x="1065" y="1267" on="1"/>
      </contour>
    </TTGlyph>
    <TTGlyph name="Otilde" xMin="112" yMin="-17" xMax="1300" yMax="1964">
      <component glyphName="tilde.cap" x="444" y="0" flags="0x1004"/>
      <component glyphName="O" x="0" y="0" flags="0x1004"/>
    </TTGlyph>
    <TTGlyph name="P" xMin="121" yMin="0" xMax="1166" yMax="1546">
      <contour>
        <pt x="402" y="1530" on="1"/>
        <pt x="709" y="1546" on="1"/>
        <pt x="1160" y="1546" on="0"/>
        <pt x="1166" y="1157" on="1"/>
        <pt x="1166" y="1148" on="0"/>
        <pt x="1166" y="1139" on="1"/>
        <pt x="1166" y="862" on="0"/>
        <pt x="998" y="694" on="1"/>
        <pt x="828" y="526" on="0"/>
        <pt x="552" y="526" on="1"/>
        <pt x="485" y="526" on="0"/>
        <pt x="440" y="530" on="1"/>
        <pt x="372" y="536" on="1"/>
        <pt x="351" y="538" on="0"/>
        <pt x="340" y="540" on="1"/>
        <pt x="271" y="0" on="1"/>
        <pt x="121" y="0" on="1"/>
        <pt x="314" y="1530" on="1"/>
      </contour>
      <contour>
        <pt x="1014" y="1146" on="1"/>
        <pt x="1014" y="1433" on="0"/>
        <pt x="686" y="1433" on="1"/>
        <pt x="628" y="1433" on="0"/>
        <pt x="552" y="1424" on="1"/>
        <pt x="449" y="1413" on="1"/>
        <pt x="355" y="662" on="1"/>
        <pt x="440" y="645" on="0"/>
        <pt x="557" y="645" on="1"/>
        <pt x="781" y="646" on="0"/>
        <pt x="1013" y="906" on="0"/>
      </contour>
    </TTGlyph>
    <TTGlyph name="Q" xMin="112" yMin="-359" xMax="1300" yMax="1547">
      <contour>
        <pt x="1217" y="-185" on="1"/>
        <pt x="1217" y="-302" on="1"/>
        <pt x="1162" y="-341" on="0"/>
        <pt x="1000" y="-355" on="1"/>
        <pt x="954" y="-359" on="0"/>
        <pt x="841" y="-359" on="0"/>
        <pt x="776" y="-338" on="1"/>
        <pt x="639" y="-293" on="0"/>
        <pt x="592" y="-168" on="1"/>
        <pt x="575" y="-123" on="0"/>
        <pt x="575" y="-43" on="0"/>
        <pt x="578" y="-16" on="1"/>
        <pt x="360" y="-4" on="0"/>
        <pt x="236" y="174" on="1"/>
        <pt x="112" y="352" on="0"/>
        <pt x="112" y="644" on="1"/>
        <pt x="112" y="1020" on="0"/>
        <pt x="308" y="1279" on="1"/>
        <pt x="437" y="1450" on="0"/>
        <pt x="620" y="1514" on="1"/>
        <pt x="712" y="1547" on="0"/>
        <pt x="933" y="1547" on="0"/>
        <pt x="1114" y="1447" on="0"/>
        <pt x="1174" y="1361" on="1"/>
        <pt x="1300" y="1182" on="0"/>
        <pt x="1300" y="893" on="1"/>
        <pt x="1300" y="542" on="0"/>
        <pt x="1135" y="289" on="1"/>
        <pt x="1054" y="165" on="0"/>
        <pt x="825" y="8" on="0"/>
        <pt x="686" y="-11" on="1"/>
        <pt x="686" y="-131" on="0"/>
        <pt x="788" y="-182" on="1"/>
        <pt x="862" y="-220" on="0"/>
        <pt x="1128" y="-220" on="0"/>
      </contour>
      <contour>
        <pt x="1143" y="864" on="1"/>
        <pt x="1143" y="1427" on="0"/>
        <pt x="789" y="1427" on="1"/>
        <pt x="565" y="1427" on="0"/>
        <pt x="412" y="1192" on="1"/>
        <pt x="319" y="1047" on="0"/>
        <pt x="284" y="846" on="1"/>
        <pt x="269" y="757" on="0"/>
        <pt x="269" y="654" on="0"/>
        <pt x="269" y="643" on="1"/>
        <pt x="273" y="368" on="0"/>
        <pt x="459" y="99" on="0"/>
        <pt x="629" y="99" on="1"/>
        <pt x="856" y="99" on="0"/>
        <pt x="1004" y="332" on="1"/>
        <pt x="1143" y="552" on="0"/>
      </contour>
    </TTGlyph>
    <TTGlyph name="R" xMin="120" yMin="-1" xMax="1169" yMax="1546">
      <contour>
        <pt x="388" y="1530" on="1"/>
        <pt x="698" y="1546" on="1"/>
        <pt x="925" y="1546" on="0"/>
        <pt x="1046" y="1457" on="1"/>
        <pt x="1169" y="1366" on="0"/>
        <pt x="1169" y="1180" on="1"/>
        <pt x="1169" y="999" on="0"/>
        <pt x="1072" y="864" on="1"/>
        <pt x="971" y="724" on="0"/>
        <pt x="799" y="678" on="1"/>
        <pt x="872" y="614" on="0"/>
        <pt x="966" y="386" on="1"/>
        <pt x="1090" y="92" on="0"/>
        <pt x="1132" y="15" on="0"/>
        <pt x="1144" y="-1" on="1"/>
        <pt x="972" y="1" on="1"/>
        <pt x="947" y="39" on="0"/>
        <pt x="914" y="118" on="1"/>
        <pt x="859" y="258" on="1"/>
        <pt x="760" y="536" on="0"/>
        <pt x="682" y="620" on="1"/>
        <pt x="649" y="655" on="0"/>
        <pt x="615" y="656" on="1"/>
        <pt x="576" y="656" on="1"/>
        <pt x="545" y="656" on="0"/>
        <pt x="504" y="656" on="1"/>
        <pt x="422" y="658" on="1"/>
        <pt x="380" y="658" on="0"/>
        <pt x="353" y="658" on="1"/>
        <pt x="271" y="0" on="1"/>
        <pt x="120" y="0" on="1"/>
        <pt x="312" y="1530" on="1"/>
      </contour>
      <contour>
        <pt x="368" y="779" on="1"/>
        <pt x="410" y="777" on="0"/>
        <pt x="478" y="777" on="1"/>
        <pt x="557" y="777" on="0"/>
        <pt x="724" y="777" on="0"/>
        <pt x="794" y="808" on="1"/>
        <pt x="934" y="869" on="0"/>
        <pt x="984" y="1022" on="1"/>
        <pt x="1006" y="1091" on="0"/>
        <pt x="1006" y="1180" on="0"/>
        <pt x="1006" y="1187" on="1"/>
        <pt x="1002" y="1430" on="0"/>
        <pt x="677" y="1430" on="1"/>
        <pt x="600" y="1430" on="0"/>
        <pt x="448" y="1414" on="1"/>
      </contour>
    </TTGlyph>
    <TTGlyph name="Racute" xMin="120" yMin="-1" xMax="1169" yMax="2000">
      <component glyphName="R" x="0" y="0" flags="0x1204"/>
      <component glyphName="acute.cap" x="624" y="0" flags="0x1004"/>
    </TTGlyph>
    <TTGlyph name="Rcaron" xMin="120" yMin="-1" xMax="1169" yMax="2000">
      <component glyphName="caron.cap" x="390" y="0" flags="0x1004"/>
      <component glyphName="R" x="0" y="0" flags="0x1004"/>
    </TTGlyph>
    <TTGlyph name="Rcommaaccent" xMin="120" yMin="-560" xMax="1169" yMax="1546">
      <component glyphName="commaaccent" x="463" y="0" flags="0x1004"/>
      <component glyphName="R" x="0" y="0" flags="0x1004"/>
    </TTGlyph>
    <TTGlyph name="S" xMin="29" yMin="-16" xMax="991" yMax="1547">
      <contour>
        <pt x="71" y="196" on="1"/>
        <pt x="123" y="140" on="0"/>
        <pt x="299" y="111" on="1"/>
        <pt x="353" y="102" on="0"/>
        <pt x="476" y="102" on="0"/>
        <pt x="605" y="133" on="0"/>
        <pt x="655" y="166" on="1"/>
        <pt x="765" y="239" on="0"/>
        <pt x="765" y="374" on="1"/>
        <pt x="765" y="517" on="0"/>
        <pt x="626" y="628" on="1"/>
        <pt x="580" y="665" on="0"/>
        <pt x="466" y="739" on="0"/>
        <pt x="349" y="823" on="0"/>
        <pt x="300" y="876" on="1"/>
        <pt x="187" y="1002" on="0"/>
        <pt x="187" y="1161" on="1"/>
        <pt x="187" y="1336" on="0"/>
        <pt x="316" y="1443" on="1"/>
        <pt x="441" y="1547" on="0"/>
        <pt x="645" y="1547" on="1"/>
        <pt x="873" y="1547" on="0"/>
        <pt x="991" y="1462" on="1"/>
        <pt x="943" y="1346" on="1"/>
        <pt x="882" y="1407" on="0"/>
        <pt x="738" y="1426" on="1"/>
        <pt x="695" y="1431" on="0"/>
        <pt x="609" y="1431" on="0"/>
        <pt x="500" y="1412" on="0"/>
        <pt x="452" y="1386" on="1"/>
        <pt x="338" y="1323" on="0"/>
        <pt x="338" y="1177" on="1"/>
        <pt x="338" y="1062" on="0"/>
        <pt x="412" y="978" on="1"/>
        <pt x="463" y="920" on="0"/>
        <pt x="664" y="788" on="0"/>
        <pt x="774" y="709" on="0"/>
        <pt x="818" y="660" on="1"/>
        <pt x="922" y="546" on="0"/>
        <pt x="922" y="401" on="1"/>
        <pt x="922" y="203" on="0"/>
        <pt x="776" y="92" on="1"/>
        <pt x="635" y="-16" on="0"/>
        <pt x="404" y="-16" on="1"/>
        <pt x="223" y="-16" on="0"/>
        <pt x="82" y="44" on="1"/>
        <pt x="46" y="59" on="0"/>
        <pt x="29" y="73" on="1"/>
      </contour>
    </TTGlyph>
    <TTGlyph name="Sacute" xMin="29" yMin="-16" xMax="1002" yMax="2000">
      <component glyphName="S" x="0" y="0" flags="0x1204"/>
      <component glyphName="acute.cap" x="547" y="0" flags="0x1004"/>
    </TTGlyph>
    <TTGlyph name="Scaron" xMin="29" yMin="-16" xMax="1059" yMax="2000">
      <component glyphName="S" x="0" y="0" flags="0x1204"/>
      <component glyphName="caron.cap" x="314" y="0" flags="0x1004"/>
    </TTGlyph>
    <TTGlyph name="Scedilla" xMin="29" yMin="-465" xMax="991" yMax="1547">
      <contour>
        <pt x="211" y="-339" on="1"/>
        <pt x="381" y="-339" on="0"/>
        <pt x="381" y="-146" on="1"/>
        <pt x="381" y="-61" on="0"/>
        <pt x="373" y="-15" on="1"/>
        <pt x="199" y="-9" on="0"/>
        <pt x="78" y="45" on="1"/>
        <pt x="45" y="60" on="0"/>
        <pt x="29" y="73" on="1"/>
        <pt x="71" y="196" on="1"/>
        <pt x="123" y="140" on="0"/>
        <pt x="299" y="111" on="1"/>
        <pt x="353" y="102" on="0"/>
        <pt x="476" y="102" on="0"/>
        <pt x="605" y="133" on="0"/>
        <pt x="655" y="166" on="1"/>
        <pt x="765" y="239" on="0"/>
        <pt x="765" y="374" on="1"/>
        <pt x="765" y="517" on="0"/>
        <pt x="626" y="628" on="1"/>
        <pt x="580" y="665" on="0"/>
        <pt x="466" y="739" on="0"/>
        <pt x="349" y="823" on="0"/>
        <pt x="300" y="876" on="1"/>
        <pt x="187" y="1002" on="0"/>
        <pt x="187" y="1161" on="1"/>
        <pt x="187" y="1336" on="0"/>
        <pt x="316" y="1443" on="1"/>
        <pt x="441" y="1547" on="0"/>
        <pt x="645" y="1547" on="1"/>
        <pt x="873" y="1547" on="0"/>
        <pt x="991" y="1462" on="1"/>
        <pt x="943" y="1346" on="1"/>
        <pt x="882" y="1407" on="0"/>
        <pt x="738" y="1426" on="1"/>
        <pt x="695" y="1431" on="0"/>
        <pt x="609" y="1431" on="0"/>
        <pt x="500" y="1412" on="0"/>
        <pt x="452" y="1386" on="1"/>
        <pt x="338" y="1323" on="0"/>
        <pt x="338" y="1177" on="1"/>
        <pt x="338" y="1062" on="0"/>
        <pt x="412" y="978" on="1"/>
        <pt x="463" y="920" on="0"/>
        <pt x="664" y="788" on="0"/>
        <pt x="774" y="709" on="0"/>
        <pt x="818" y="660" on="1"/>
        <pt x="922" y="546" on="0"/>
        <pt x="922" y="405" on="1"/>
        <pt x="922" y="222" on="0"/>
        <pt x="800" y="112" on="1"/>
        <pt x="684" y="7" on="0"/>
        <pt x="483" y="-12" on="1"/>
        <pt x="512" y="-78" on="0"/>
        <pt x="512" y="-262" on="0"/>
        <pt x="470" y="-371" on="0"/>
        <pt x="434" y="-404" on="1"/>
        <pt x="367" y="-465" on="0"/>
        <pt x="249" y="-465" on="1"/>
        <pt x="142" y="-465" on="0"/>
        <pt x="103" y="-436" on="1"/>
        <pt x="123" y="-321" on="1"/>
        <pt x="156" y="-339" on="0"/>
      </contour>
    </TTGlyph>
    <TTGlyph name="Scircumflex" xMin="29" yMin="-16" xMax="1031" yMax="2000">
      <component glyphName="S" x="0" y="0" flags="0x1204"/>
      <component glyphName="circumflex.cap" x="299" y="0" flags="0x1004"/>
    </TTGlyph>
    <TTGlyph name="T" xMin="138" yMin="0" xMax="1199" yMax="1530">
      <contour>
        <pt x="589" y="1419" on="1"/>
        <pt x="138" y="1410" on="1"/>
        <pt x="155" y="1530" on="1"/>
        <pt x="1199" y="1530" on="1"/>
        <pt x="1182" y="1410" on="1"/>
        <pt x="739" y="1419" on="1"/>
        <pt x="560" y="0" on="1"/>
        <pt x="410" y="0" on="1"/>
      </contour>
    </TTGlyph>
    <TTGlyph name="Tbar" xMin="138" yMin="0" xMax="1199" yMax="1530">
      <contour>
        <pt x="502" y="733" on="1"/>
        <pt x="219" y="733" on="1"/>
        <pt x="232" y="833" on="1"/>
        <pt x="515" y="833" on="1"/>
        <pt x="589" y="1419" on="1"/>
        <pt x="138" y="1410" on="1"/>
        <pt x="155" y="1530" on="1"/>
        <pt x="1199" y="1530" on="1"/>
        <pt x="1182" y="1410" on="1"/>
        <pt x="739" y="1419" on="1"/>
        <pt x="665" y="833" on="1"/>
        <pt x="974" y="833" on="1"/>
        <pt x="961" y="733" on="1"/>
        <pt x="652" y="733" on="1"/>
        <pt x="560" y="0" on="1"/>
        <pt x="410" y="0" on="1"/>
      </contour>
    </TTGlyph>
    <TTGlyph name="Tcaron" xMin="138" yMin="0" xMax="1199" yMax="2000">
      <component glyphName="caron.cap" x="360" y="0" flags="0x1004"/>
      <component glyphName="T" x="0" y="0" flags="0x1004"/>
    </TTGlyph>
    <TTGlyph name="Thorn" xMin="121" yMin="0" xMax="1126" yMax="1530">
      <contour>
        <pt x="520" y="286" on="1"/>
        <pt x="392" y="286" on="0"/>
        <pt x="308" y="297" on="1"/>
        <pt x="271" y="0" on="1"/>
        <pt x="121" y="0" on="1"/>
        <pt x="314" y="1530" on="1"/>
        <pt x="464" y="1530" on="1"/>
        <pt x="431" y="1266" on="1"/>
        <pt x="637" y="1281" on="0"/>
        <pt x="676" y="1281" on="1"/>
        <pt x="1122" y="1281" on="0"/>
        <pt x="1126" y="887" on="1"/>
        <pt x="1126" y="881" on="0"/>
        <pt x="1126" y="875" on="1"/>
        <pt x="1126" y="608" on="0"/>
        <pt x="958" y="447" on="1"/>
        <pt x="789" y="286" on="0"/>
      </contour>
      <contour>
        <pt x="324" y="419" on="1"/>
        <pt x="399" y="404" on="0"/>
        <pt x="628" y="405" on="0"/>
        <pt x="798" y="469" on="0"/>
        <pt x="856" y="529" on="1"/>
        <pt x="974" y="653" on="0"/>
        <pt x="974" y="881" on="1"/>
        <pt x="974" y="1167" on="0"/>
        <pt x="652" y="1167" on="1"/>
        <pt x="556" y="1167" on="0"/>
        <pt x="416" y="1147" on="1"/>
      </contour>
    </TTGlyph>
    <TTGlyph name="U" xMin="154" yMin="-17" xMax="1316" yMax="1530">
      <contour>
        <pt x="410" y="13" on="1"/>
        <pt x="154" y="106" on="0"/>
        <pt x="154" y="438" on="1"/>
        <pt x="154" y="483" on="0"/>
        <pt x="166" y="593" on="1"/>
        <pt x="285" y="1530" on="1"/>
        <pt x="435" y="1530" on="1"/>
        <pt x="320" y="619" on="1"/>
        <pt x="308" y="519" on="0"/>
        <pt x="308" y="434" on="0"/>
        <pt x="309" y="353" on="0"/>
        <pt x="349" y="233" on="0"/>
        <pt x="388" y="192" on="1"/>
        <pt x="468" y="106" on="0"/>
        <pt x="623" y="106" on="1"/>
        <pt x="811" y="106" on="0"/>
        <pt x="913" y="227" on="1"/>
        <pt x="1020" y="353" on="0"/>
        <pt x="1057" y="640" on="1"/>
        <pt x="1169" y="1530" on="1"/>
        <pt x="1316" y="1530" on="1"/>
        <pt x="1202" y="627" on="1"/>
        <pt x="1157" y="280" on="0"/>
        <pt x="1008" y="128" on="1"/>
        <pt x="868" y="-17" on="0"/>
        <pt x="602" y="-17" on="1"/>
        <pt x="492" y="-17" on="0"/>
      </contour>
    </TTGlyph>
    <TTGlyph name="Uacute" xMin="154" yMin="-17" xMax="1316" yMax="2000">
      <component glyphName="acute.cap" x="680" y="0" flags="0x1004"/>
      <component glyphName="U" x="0" y="0" flags="0x1004"/>
    </TTGlyph>
    <TTGlyph name="Ubreve" xMin="154" yMin="-17" xMax="1316" yMax="1980">
      <component glyphName="breve.cap" x="474" y="0" flags="0x1004"/>
      <component glyphName="U" x="0" y="0" flags="0x1004"/>
    </TTGlyph>
    <TTGlyph name="Ucircumflex" xMin="154" yMin="-17" xMax="1316" yMax="2000">
      <component glyphName="U" x="0" y="0" flags="0x1204"/>
      <component glyphName="circumflex.cap" x="432" y="0" flags="0x1004"/>
    </TTGlyph>
    <TTGlyph name="Udieresis" xMin="154" yMin="-17" xMax="1316" yMax="1935">
      <component glyphName="dieresis.cap" x="436" y="0" flags="0x1004"/>
      <component glyphName="U" x="0" y="0" flags="0x1004"/>
    </TTGlyph>
    <TTGlyph name="Ugrave" xMin="154" yMin="-17" xMax="1316" yMax="2000">
      <component glyphName="grave.cap" x="479" y="0" flags="0x1004"/>
      <component glyphName="U" x="0" y="0" flags="0x1004"/>
    </TTGlyph>
    <TTGlyph name="Uhungarumlaut" xMin="154" yMin="-17" xMax="1367" yMax="1996">
      <component glyphName="U" x="0" y="0" flags="0x1204"/>
      <component glyphName="hungarumlaut.cap" x="480" y="0" flags="0x1004"/>
    </TTGlyph>
    <TTGlyph name="Umacron" xMin="154" yMin="-17" xMax="1316" yMax="1862">
      <component glyphName="macron.cap" x="502" y="0" flags="0x1004"/>
      <component glyphName="U" x="0" y="0" flags="0x1004"/>
    </TTGlyph>
    <TTGlyph name="Uogonek" xMin="154" yMin="-435" xMax="1316" yMax="1530">
      <contour>
        <pt x="711" y="-10" on="1"/>
        <pt x="650" y="-17" on="0"/>
        <pt x="492" y="-17" on="0"/>
        <pt x="327" y="43" on="0"/>
        <pt x="270" y="99" on="1"/>
        <pt x="154" y="215" on="0"/>
        <pt x="154" y="438" on="1"/>
        <pt x="154" y="483" on="0"/>
        <pt x="166" y="593" on="1"/>
        <pt x="285" y="1530" on="1"/>
        <pt x="435" y="1530" on="1"/>
        <pt x="320" y="619" on="1"/>
        <pt x="308" y="519" on="0"/>
        <pt x="308" y="434" on="0"/>
        <pt x="309" y="353" on="0"/>
        <pt x="349" y="233" on="0"/>
        <pt x="388" y="192" on="1"/>
        <pt x="468" y="106" on="0"/>
        <pt x="623" y="106" on="1"/>
        <pt x="811" y="106" on="0"/>
        <pt x="913" y="227" on="1"/>
        <pt x="1020" y="353" on="0"/>
        <pt x="1057" y="640" on="1"/>
        <pt x="1169" y="1530" on="1"/>
        <pt x="1316" y="1530" on="1"/>
        <pt x="1202" y="627" on="1"/>
        <pt x="1152" y="235" on="0"/>
        <pt x="966" y="90" on="1"/>
        <pt x="904" y="41" on="0"/>
        <pt x="826" y="15" on="1"/>
        <pt x="752" y="-51" on="1"/>
        <pt x="612" y="-182" on="0"/>
        <pt x="612" y="-242" on="1"/>
        <pt x="612" y="-281" on="0"/>
        <pt x="661" y="-322" on="0"/>
        <pt x="699" y="-322" on="1"/>
        <pt x="783" y="-322" on="0"/>
        <pt x="858" y="-263" on="1"/>
        <pt x="897" y="-341" on="1"/>
        <pt x="790" y="-435" on="0"/>
        <pt x="651" y="-435" on="1"/>
        <pt x="558" y="-435" on="0"/>
        <pt x="506" y="-382" on="1"/>
        <pt x="463" y="-340" on="0"/>
        <pt x="463" y="-241" on="0"/>
        <pt x="515" y="-159" on="0"/>
        <pt x="552" y="-124" on="1"/>
        <pt x="606" y="-73" on="0"/>
      </contour>
    </TTGlyph>
    <TTGlyph name="Uring" xMin="154" yMin="-17" xMax="1316" yMax="2000">
      <component glyphName="U" x="0" y="0" flags="0x1204"/>
      <component glyphName="ring.cap" x="464" y="0" flags="0x1004"/>
    </TTGlyph>
    <TTGlyph name="Utilde" xMin="154" yMin="-17" xMax="1316" yMax="1964">
      <component glyphName="tilde.cap" x="425" y="0" flags="0x1004"/>
      <component glyphName="U" x="0" y="0" flags="0x1004"/>
    </TTGlyph>
    <TTGlyph name="V" xMin="154" yMin="-5" xMax="1264" yMax="1530">
      <contour>
        <pt x="154" y="1530" on="1"/>
        <pt x="304" y="1530" on="1"/>
        <pt x="472" y="434" on="1"/>
        <pt x="511" y="152" on="1"/>
        <pt x="626" y="434" on="1"/>
        <pt x="1104" y="1530" on="1"/>
        <pt x="1264" y="1530" on="1"/>
        <pt x="569" y="-4" on="1"/>
        <pt x="408" y="-5" on="1"/>
      </contour>
    </TTGlyph>
    <TTGlyph name="W" xMin="149" yMin="-10" xMax="1867" yMax="1530">
      <contour>
        <pt x="149" y="1530" on="1"/>
        <pt x="299" y="1530" on="1"/>
        <pt x="445" y="434" on="1"/>
        <pt x="485" y="166" on="1"/>
        <pt x="571" y="425" on="1"/>
        <pt x="923" y="1304" on="1"/>
        <pt x="900" y="1530" on="1"/>
        <pt x="1044" y="1530" on="1"/>
        <pt x="1153" y="434" on="1"/>
        <pt x="1173" y="166" on="1"/>
        <pt x="1272" y="425" on="1"/>
        <pt x="1715" y="1530" on="1"/>
        <pt x="1867" y="1530" on="1"/>
        <pt x="1220" y="-10" on="1"/>
        <pt x="1066" y="-10" on="1"/>
        <pt x="977" y="850" on="1"/>
        <pt x="959" y="1086" on="1"/>
        <pt x="875" y="850" on="1"/>
        <pt x="535" y="-10" on="1"/>
        <pt x="380" y="-10" on="1"/>
      </contour>
    </TTGlyph>
    <TTGlyph name="Wacute" xMin="149" yMin="-10" xMax="1867" yMax="2000">
      <component glyphName="acute.cap" x="912" y="0" flags="0x1004"/>
      <component glyphName="W" x="0" y="0" flags="0x1004"/>
    </TTGlyph>
    <TTGlyph name="Wcircumflex" xMin="149" yMin="-10" xMax="1867" yMax="2000">
      <component glyphName="W" x="0" y="0" flags="0x1204"/>
      <component glyphName="circumflex.cap" x="665" y="0" flags="0x1004"/>
    </TTGlyph>
    <TTGlyph name="Wdieresis" xMin="149" yMin="-10" xMax="1867" yMax="1935">
      <component glyphName="dieresis.cap" x="669" y="0" flags="0x1004"/>
      <component glyphName="W" x="0" y="0" flags="0x1004"/>
    </TTGlyph>
    <TTGlyph name="Wgrave" xMin="149" yMin="-10" xMax="1867" yMax="2000">
      <component glyphName="grave.cap" x="712" y="0" flags="0x1004"/>
      <component glyphName="W" x="0" y="0" flags="0x1004"/>
    </TTGlyph>
    <TTGlyph name="X" xMin="-35" yMin="0" xMax="1212" yMax="1530">
      <contour>
        <pt x="520" y="788" on="1"/>
        <pt x="197" y="1530" on="1"/>
        <pt x="363" y="1530" on="1"/>
        <pt x="618" y="895" on="1"/>
        <pt x="1042" y="1530" on="1"/>
        <pt x="1212" y="1530" on="1"/>
        <pt x="676" y="758" on="1"/>
        <pt x="1024" y="0" on="1"/>
        <pt x="852" y="0" on="1"/>
        <pt x="578" y="656" on="1"/>
        <pt x="148" y="0" on="1"/>
        <pt x="-35" y="0" on="1"/>
      </contour>
    </TTGlyph>
    <TTGlyph name="Y" xMin="105" yMin="0" xMax="1213" yMax="1530">
      <contour>
        <pt x="478" y="585" on="1"/>
        <pt x="105" y="1530" on="1"/>
        <pt x="266" y="1530" on="1"/>
        <pt x="527" y="820" on="1"/>
        <pt x="568" y="717" on="1"/>
        <pt x="623" y="819" on="1"/>
        <pt x="1051" y="1530" on="1"/>
        <pt x="1213" y="1530" on="1"/>
        <pt x="621" y="585" on="1"/>
        <pt x="546" y="0" on="1"/>
        <pt x="402" y="0" on="1"/>
      </contour>
    </TTGlyph>
    <TTGlyph name="Yacute" xMin="105" yMin="0" xMax="1213" yMax="2000">
      <component glyphName="Y" x="0" y="0" flags="0x1204"/>
      <component glyphName="acute.cap" x="547" y="0" flags="0x1004"/>
    </TTGlyph>
    <TTGlyph name="Ycircumflex" xMin="105" yMin="0" xMax="1213" yMax="2000">
      <component glyphName="Y" x="0" y="0" flags="0x1204"/>
      <component glyphName="circumflex.cap" x="299" y="0" flags="0x1004"/>
    </TTGlyph>
    <TTGlyph name="Ydieresis" xMin="105" yMin="0" xMax="1213" yMax="1935">
      <component glyphName="Y" x="0" y="0" flags="0x1204"/>
      <component glyphName="dieresis.cap" x="304" y="0" flags="0x1004"/>
    </TTGlyph>
    <TTGlyph name="Ygrave" xMin="105" yMin="0" xMax="1213" yMax="2000">
      <component glyphName="Y" x="0" y="0" flags="0x1204"/>
      <component glyphName="grave.cap" x="346" y="0" flags="0x1004"/>
    </TTGlyph>
    <TTGlyph name="Z" xMin="15" yMin="0" xMax="1182" yMax="1530">
      <contour>
        <pt x="15" y="70" on="1"/>
        <pt x="837" y="1227" on="1"/>
        <pt x="988" y="1413" on="1"/>
        <pt x="244" y="1402" on="1"/>
        <pt x="260" y="1530" on="1"/>
        <pt x="1163" y="1530" on="1"/>
        <pt x="1182" y="1464" on="1"/>
        <pt x="339" y="269" on="1"/>
        <pt x="215" y="121" on="1"/>
        <pt x="1027" y="130" on="1"/>
        <pt x="1006" y="0" on="1"/>
        <pt x="36" y="0" on="1"/>
      </contour>
    </TTGlyph>
    <TTGlyph name="Zacute" xMin="15" yMin="0" xMax="1182" yMax="2000">
      <component glyphName="Z" x="0" y="0" flags="0x1204"/>
      <component glyphName="acute.cap" x="614" y="0" flags="0x1004"/>
    </TTGlyph>
    <TTGlyph name="Zcaron" xMin="15" yMin="0" xMax="1182" yMax="2000">
      <component glyphName="caron.cap" x="380" y="0" flags="0x1004"/>
      <component glyphName="Z" x="0" y="0" flags="0x1004"/>
    </TTGlyph>
    <TTGlyph name="Zdotaccent" xMin="15" yMin="0" xMax="1182" yMax="1920">
      <component glyphName="dotaccent.cap" x="608" y="0" flags="0x1004"/>
      <component glyphName="Z" x="0" y="0" flags="0x1004"/>
    </TTGlyph>
    <TTGlyph name="a" xMin="81" yMin="-16" xMax="1041" yMax="1156">
      <contour>
        <pt x="514" y="1123" on="1"/>
        <pt x="604" y="1156" on="0"/>
        <pt x="810" y="1156" on="0"/>
        <pt x="928" y="1119" on="1"/>
        <pt x="1041" y="1156" on="1"/>
        <pt x="884" y="0" on="1"/>
        <pt x="753" y="0" on="1"/>
        <pt x="772" y="202" on="1"/>
        <pt x="772" y="205" on="1"/>
        <pt x="672" y="60" on="0"/>
        <pt x="516" y="4" on="1"/>
        <pt x="461" y="-16" on="0"/>
        <pt x="318" y="-16" on="0"/>
        <pt x="198" y="46" on="0"/>
        <pt x="158" y="103" on="1"/>
        <pt x="81" y="215" on="0"/>
        <pt x="81" y="415" on="1"/>
        <pt x="81" y="685" on="0"/>
        <pt x="232" y="903" on="1"/>
        <pt x="341" y="1059" on="0"/>
      </contour>
      <contour>
        <pt x="235" y="433" on="1"/>
        <pt x="235" y="100" on="0"/>
        <pt x="424" y="100" on="1"/>
        <pt x="536" y="100" on="0"/>
        <pt x="648" y="197" on="1"/>
        <pt x="734" y="271" on="0"/>
        <pt x="791" y="372" on="1"/>
        <pt x="811" y="557" on="1"/>
        <pt x="875" y="1008" on="1"/>
        <pt x="790" y="1046" on="0"/>
        <pt x="615" y="1046" on="0"/>
        <pt x="488" y="993" on="0"/>
        <pt x="387" y="902" on="0"/>
        <pt x="311" y="781" on="0"/>
        <pt x="286" y="713" on="1"/>
        <pt x="235" y="578" on="0"/>
      </contour>
    </TTGlyph>
    <TTGlyph name="aacute" xMin="81" yMin="-16" xMax="1041" yMax="1704">
      <component glyphName="a" x="0" y="0" flags="0x1204"/>
      <component glyphName="acute" x="559" y="0" flags="0x1004"/>
    </TTGlyph>
    <TTGlyph name="abreve" xMin="81" yMin="-16" xMax="1047" yMax="1648">
      <component glyphName="a" x="0" y="0" flags="0x1204"/>
      <component glyphName="breve" x="364" y="0" flags="0x1004"/>
    </TTGlyph>
    <TTGlyph name="acircumflex" xMin="81" yMin="-16" xMax="1041" yMax="1650">
      <component glyphName="a" x="0" y="0" flags="0x1204"/>
      <component glyphName="circumflex" x="300" y="0" flags="0x1004"/>
    </TTGlyph>
    <TTGlyph name="acute" xMin="58" yMin="1249" xMax="481" yMax="1704">
      <contour>
        <pt x="58" y="1304" on="1"/>
        <pt x="366" y="1704" on="1"/>
        <pt x="481" y="1600" on="1"/>
        <pt x="460" y="1564" on="0"/>
        <pt x="414" y="1514" on="1"/>
        <pt x="414" y="1514" on="0"/>
        <pt x="332" y="1427" on="1"/>
        <pt x="209" y="1302" on="0"/>
        <pt x="121" y="1249" on="1"/>
      </contour>
    </TTGlyph>
    <TTGlyph name="acute.cap" xMin="82" yMin="1603" xMax="455" yMax="2000">
      <contour>
        <pt x="82" y="1654" on="1"/>
        <pt x="360" y="2000" on="1"/>
        <pt x="455" y="1903" on="1"/>
        <pt x="413" y="1832" on="0"/>
        <pt x="340" y="1764" on="1"/>
        <pt x="221" y="1653" on="0"/>
        <pt x="139" y="1603" on="1"/>
      </contour>
    </TTGlyph>
    <TTGlyph name="adieresis" xMin="81" yMin="-16" xMax="1046" yMax="1623">
      <component glyphName="a" x="0" y="0" flags="0x1204"/>
      <component glyphName="dieresis" x="327" y="0" flags="0x1004"/>
    </TTGlyph>
    <TTGlyph name="ae" xMin="81" yMin="-16" xMax="1552" yMax="1156">
      <contour>
        <pt x="703" y="265" on="1"/>
        <pt x="557" y="-16" on="0"/>
        <pt x="358" y="-16" on="1"/>
        <pt x="81" y="-16" on="0"/>
        <pt x="81" y="415" on="1"/>
        <pt x="81" y="685" on="0"/>
        <pt x="232" y="903" on="1"/>
        <pt x="341" y="1059" on="0"/>
        <pt x="514" y="1123" on="1"/>
        <pt x="604" y="1156" on="0"/>
        <pt x="867" y="1156" on="0"/>
        <pt x="998" y="1078" on="1"/>
        <pt x="1121" y="1156" on="0"/>
        <pt x="1273" y="1156" on="1"/>
        <pt x="1478" y="1156" on="0"/>
        <pt x="1535" y="1004" on="1"/>
        <pt x="1552" y="959" on="0"/>
        <pt x="1552" y="823" on="0"/>
        <pt x="1479" y="692" on="0"/>
        <pt x="1359" y="591" on="0"/>
        <pt x="1206" y="519" on="0"/>
        <pt x="1127" y="495" on="1"/>
        <pt x="980" y="450" on="0"/>
        <pt x="840" y="443" on="1"/>
        <pt x="839" y="428" on="0"/>
        <pt x="839" y="370" on="0"/>
        <pt x="855" y="264" on="0"/>
        <pt x="882" y="214" on="1"/>
        <pt x="945" y="102" on="0"/>
        <pt x="1089" y="102" on="1"/>
        <pt x="1270" y="102" on="0"/>
        <pt x="1437" y="273" on="1"/>
        <pt x="1480" y="186" on="1"/>
        <pt x="1430" y="115" on="0"/>
        <pt x="1327" y="56" on="1"/>
        <pt x="1203" y="-16" on="0"/>
        <pt x="1072" y="-16" on="1"/>
        <pt x="850" y="-16" on="0"/>
        <pt x="749" y="155" on="1"/>
        <pt x="719" y="206" on="0"/>
      </contour>
      <contour>
        <pt x="235" y="433" on="1"/>
        <pt x="235" y="100" on="0"/>
        <pt x="391" y="100" on="1"/>
        <pt x="531" y="100" on="0"/>
        <pt x="684" y="382" on="1"/>
        <pt x="672" y="565" on="0"/>
        <pt x="742" y="750" on="1"/>
        <pt x="794" y="890" on="0"/>
        <pt x="891" y="991" on="1"/>
        <pt x="794" y="1046" on="0"/>
        <pt x="615" y="1046" on="0"/>
        <pt x="488" y="993" on="0"/>
        <pt x="387" y="902" on="0"/>
        <pt x="311" y="781" on="0"/>
        <pt x="286" y="713" on="1"/>
        <pt x="235" y="578" on="0"/>
      </contour>
      <contour>
        <pt x="845" y="550" on="1"/>
        <pt x="1039" y="557" on="0"/>
        <pt x="1208" y="646" on="1"/>
        <pt x="1403" y="747" on="0"/>
        <pt x="1403" y="1043" on="0"/>
        <pt x="1082" y="1043" on="0"/>
        <pt x="861" y="736" on="0"/>
      </contour>
    </TTGlyph>
    <TTGlyph name="aeacute" xMin="81" yMin="-16" xMax="1552" yMax="1704">
      <component glyphName="acute" x="761" y="0" flags="0x1004"/>
      <component glyphName="ae" x="0" y="0" flags="0x1004"/>
    </TTGlyph>
    <TTGlyph name="afii61352" xMin="159" yMin="0" xMax="2412" yMax="1532">
      <contour>
        <pt x="1560" y="981" on="1"/>
        <pt x="1560" y="1155" on="0"/>
        <pt x="1673" y="1365" on="0"/>
        <pt x="1740" y="1422" on="1"/>
        <pt x="1871" y="1532" on="0"/>
        <pt x="2039" y="1532" on="1"/>
        <pt x="2232" y="1532" on="0"/>
        <pt x="2332" y="1401" on="1"/>
        <pt x="2412" y="1296" on="0"/>
        <pt x="2412" y="1125" on="1"/>
        <pt x="2412" y="918" on="0"/>
        <pt x="2314" y="774" on="1"/>
        <pt x="2211" y="623" on="0"/>
        <pt x="2034" y="582" on="1"/>
        <pt x="1982" y="570" on="0"/>
        <pt x="1836" y="570" on="0"/>
        <pt x="1762" y="604" on="1"/>
        <pt x="1560" y="699" on="0"/>
      </contour>
      <contour>
        <pt x="350" y="1530" on="1"/>
        <pt x="507" y="1530" on="1"/>
        <pt x="982" y="437" on="1"/>
        <pt x="1068" y="202" on="1"/>
        <pt x="1093" y="469" on="1"/>
        <pt x="1224" y="1530" on="1"/>
        <pt x="1367" y="1530" on="1"/>
        <pt x="1173" y="0" on="1"/>
        <pt x="1027" y="0" on="1"/>
        <pt x="531" y="1122" on="1"/>
        <pt x="461" y="1357" on="1"/>
        <pt x="433" y="1073" on="1"/>
        <pt x="301" y="0" on="1"/>
        <pt x="159" y="0" on="1"/>
      </contour>
      <contour>
        <pt x="1816" y="1340" on="1"/>
        <pt x="1703" y="1227" on="0"/>
        <pt x="1703" y="993" on="1"/>
        <pt x="1703" y="866" on="0"/>
        <pt x="1743" y="800" on="1"/>
        <pt x="1816" y="680" on="0"/>
        <pt x="1943" y="680" on="1"/>
        <pt x="1946" y="680" on="0"/>
        <pt x="2009" y="680" on="0"/>
        <pt x="2116" y="722" on="0"/>
        <pt x="2158" y="766" on="1"/>
        <pt x="2269" y="880" on="0"/>
        <pt x="2269" y="1112" on="1"/>
        <pt x="2269" y="1238" on="0"/>
        <pt x="2229" y="1304" on="1"/>
        <pt x="2156" y="1423" on="0"/>
        <pt x="2029" y="1423" on="1"/>
        <pt x="2026" y="1423" on="0"/>
        <pt x="1966" y="1423" on="0"/>
        <pt x="1859" y="1383" on="0"/>
      </contour>
      <contour>
        <pt x="1515" y="121" on="1"/>
        <pt x="2275" y="121" on="1"/>
        <pt x="2264" y="0" on="1"/>
        <pt x="1504" y="0" on="1"/>
      </contour>
    </TTGlyph>
    <TTGlyph name="agrave" xMin="81" yMin="-16" xMax="1041" yMax="1701">
      <component glyphName="a" x="0" y="0" flags="0x1204"/>
      <component glyphName="grave" x="283" y="0" flags="0x1004"/>
    </TTGlyph>
    <TTGlyph name="amacron" xMin="81" yMin="-16" xMax="1041" yMax="1548">
      <component glyphName="a" x="0" y="0" flags="0x1204"/>
      <component glyphName="macron" x="396" y="0" flags="0x1004"/>
    </TTGlyph>
    <TTGlyph name="ampersand" xMin="105" yMin="-51" xMax="1443" yMax="1547">
      <contour>
        <pt x="979" y="64" on="1"/>
        <pt x="827" y="-17" on="0"/>
        <pt x="622" y="-17" on="1"/>
        <pt x="269" y="-17" on="0"/>
        <pt x="148" y="188" on="1"/>
        <pt x="105" y="261" on="0"/>
        <pt x="105" y="437" on="0"/>
        <pt x="159" y="554" on="0"/>
        <pt x="204" y="603" on="1"/>
        <pt x="277" y="682" on="0"/>
        <pt x="437" y="771" on="1"/>
        <pt x="343" y="969" on="0"/>
        <pt x="343" y="1137" on="1"/>
        <pt x="343" y="1318" on="0"/>
        <pt x="459" y="1432" on="1"/>
        <pt x="575" y="1547" on="0"/>
        <pt x="754" y="1547" on="1"/>
        <pt x="913" y="1547" on="0"/>
        <pt x="1008" y="1447" on="1"/>
        <pt x="1092" y="1359" on="0"/>
        <pt x="1092" y="1245" on="1"/>
        <pt x="1092" y="1067" on="0"/>
        <pt x="934" y="940" on="1"/>
        <pt x="845" y="867" on="0"/>
        <pt x="754" y="819" on="1"/>
        <pt x="605" y="739" on="1"/>
        <pt x="795" y="411" on="0"/>
        <pt x="999" y="223" on="1"/>
        <pt x="1130" y="348" on="0"/>
        <pt x="1130" y="553" on="1"/>
        <pt x="1130" y="632" on="0"/>
        <pt x="1106" y="694" on="1"/>
        <pt x="1021" y="692" on="0"/>
        <pt x="984" y="672" on="1"/>
        <pt x="993" y="777" on="1"/>
        <pt x="1022" y="806" on="0"/>
        <pt x="1129" y="806" on="1"/>
        <pt x="1174" y="806" on="0"/>
        <pt x="1218" y="806" on="1"/>
        <pt x="1356" y="805" on="1"/>
        <pt x="1400" y="805" on="0"/>
        <pt x="1443" y="805" on="1"/>
        <pt x="1435" y="694" on="1"/>
        <pt x="1254" y="694" on="1"/>
        <pt x="1268" y="645" on="0"/>
        <pt x="1268" y="586" on="1"/>
        <pt x="1268" y="307" on="0"/>
        <pt x="1094" y="145" on="1"/>
        <pt x="1190" y="83" on="0"/>
        <pt x="1330" y="83" on="1"/>
        <pt x="1340" y="83" on="0"/>
        <pt x="1378" y="80" on="0"/>
        <pt x="1403" y="87" on="1"/>
        <pt x="1388" y="-6" on="1"/>
        <pt x="1204" y="-51" on="0"/>
        <pt x="1040" y="26" on="1"/>
        <pt x="1007" y="42" on="0"/>
      </contour>
      <contour>
        <pt x="554" y="833" on="1"/>
        <pt x="701" y="914" on="1"/>
        <pt x="950" y="1056" on="0"/>
        <pt x="950" y="1229" on="1"/>
        <pt x="950" y="1378" on="0"/>
        <pt x="839" y="1428" on="1"/>
        <pt x="801" y="1445" on="0"/>
        <pt x="687" y="1445" on="0"/>
        <pt x="588" y="1397" on="0"/>
        <pt x="553" y="1356" on="1"/>
        <pt x="480" y="1270" on="0"/>
        <pt x="480" y="1141" on="1"/>
        <pt x="480" y="981" on="0"/>
      </contour>
      <contour>
        <pt x="295" y="505" on="0"/>
        <pt x="260" y="420" on="0"/>
        <pt x="260" y="295" on="0"/>
        <pt x="320" y="190" on="0"/>
        <pt x="371" y="156" on="1"/>
        <pt x="471" y="91" on="0"/>
        <pt x="776" y="91" on="0"/>
        <pt x="889" y="146" on="1"/>
        <pt x="757" y="272" on="0"/>
        <pt x="610" y="476" on="0"/>
        <pt x="570" y="541" on="1"/>
        <pt x="490" y="674" on="1"/>
        <pt x="380" y="607" on="0"/>
      </contour>
    </TTGlyph>
    <TTGlyph name="aogonek" xMin="93" yMin="-435" xMax="1053" yMax="1156">
      <contour>
        <pt x="937" y="-341" on="1"/>
        <pt x="830" y="-435" on="0"/>
        <pt x="690" y="-435" on="1"/>
        <pt x="596" y="-435" on="0"/>
        <pt x="545" y="-382" on="1"/>
        <pt x="503" y="-340" on="0"/>
        <pt x="503" y="-234" on="0"/>
        <pt x="560" y="-144" on="0"/>
        <pt x="600" y="-108" on="1"/>
        <pt x="656" y="-57" on="0"/>
        <pt x="765" y="2" on="1"/>
        <pt x="784" y="202" on="1"/>
        <pt x="784" y="205" on="1"/>
        <pt x="684" y="60" on="0"/>
        <pt x="528" y="4" on="1"/>
        <pt x="473" y="-16" on="0"/>
        <pt x="330" y="-16" on="0"/>
        <pt x="210" y="46" on="0"/>
        <pt x="170" y="103" on="1"/>
        <pt x="93" y="215" on="0"/>
        <pt x="93" y="415" on="1"/>
        <pt x="93" y="685" on="0"/>
        <pt x="244" y="903" on="1"/>
        <pt x="353" y="1059" on="0"/>
        <pt x="526" y="1123" on="1"/>
        <pt x="616" y="1156" on="0"/>
        <pt x="822" y="1156" on="0"/>
        <pt x="940" y="1119" on="1"/>
        <pt x="1053" y="1156" on="1"/>
        <pt x="896" y="0" on="1"/>
        <pt x="884" y="0" on="1"/>
        <pt x="814" y="-47" on="1"/>
        <pt x="651" y="-157" on="0"/>
        <pt x="651" y="-242" on="1"/>
        <pt x="651" y="-281" on="0"/>
        <pt x="701" y="-322" on="0"/>
        <pt x="739" y="-322" on="1"/>
        <pt x="822" y="-322" on="0"/>
        <pt x="897" y="-263" on="1"/>
      </contour>
      <contour>
        <pt x="247" y="433" on="1"/>
        <pt x="247" y="100" on="0"/>
        <pt x="436" y="100" on="1"/>
        <pt x="548" y="100" on="0"/>
        <pt x="660" y="197" on="1"/>
        <pt x="746" y="271" on="0"/>
        <pt x="803" y="372" on="1"/>
        <pt x="823" y="557" on="1"/>
        <pt x="887" y="1008" on="1"/>
        <pt x="802" y="1046" on="0"/>
        <pt x="626" y="1046" on="0"/>
        <pt x="500" y="993" on="0"/>
        <pt x="399" y="902" on="0"/>
        <pt x="323" y="781" on="0"/>
        <pt x="298" y="713" on="1"/>
        <pt x="247" y="578" on="0"/>
      </contour>
    </TTGlyph>
    <TTGlyph name="approxequal" xMin="68" yMin="307" xMax="1033" yMax="1052">
      <component glyphName="asciitilde" x="-72" y="-434" flags="0x1004"/>
      <component glyphName="asciitilde" x="-19" y="11" flags="0x1004"/>
    </TTGlyph>
    <TTGlyph name="aring" xMin="81" yMin="-16" xMax="1068" yMax="1781">
      <component glyphName="a" x="0" y="0" flags="0x1204"/>
      <component glyphName="ring" x="357" y="0" flags="0x1004"/>
    </TTGlyph>
    <TTGlyph name="asciicircum" xMin="186" yMin="510" xMax="1124" yMax="1530">
      <contour>
        <pt x="704" y="1530" on="1"/>
        <pt x="857" y="1530" on="1"/>
        <pt x="1124" y="510" on="1"/>
        <pt x="993" y="510" on="1"/>
        <pt x="767" y="1385" on="1"/>
        <pt x="321" y="510" on="1"/>
        <pt x="186" y="510" on="1"/>
      </contour>
    </TTGlyph>
    <TTGlyph name="asciitilde" xMin="140" yMin="741" xMax="1052" yMax="1041">
      <contour>
        <pt x="413" y="915" on="1"/>
        <pt x="279" y="915" on="0"/>
        <pt x="195" y="787" on="1"/>
        <pt x="140" y="844" on="1"/>
        <pt x="163" y="912" on="0"/>
        <pt x="244" y="972" on="1"/>
        <pt x="335" y="1041" on="0"/>
        <pt x="442" y="1041" on="1"/>
        <pt x="527" y="1041" on="0"/>
        <pt x="724" y="868" on="0"/>
        <pt x="786" y="868" on="1"/>
        <pt x="915" y="868" on="0"/>
        <pt x="996" y="998" on="1"/>
        <pt x="1052" y="941" on="1"/>
        <pt x="1028" y="864" on="0"/>
        <pt x="950" y="806" on="1"/>
        <pt x="864" y="741" on="0"/>
        <pt x="757" y="741" on="1"/>
        <pt x="671" y="741" on="0"/>
        <pt x="475" y="915" on="0"/>
      </contour>
    </TTGlyph>
    <TTGlyph name="asterisk" xMin="240" yMin="647" xMax="1223" yMax="1653">
      <contour>
        <pt x="240" y="960" on="1"/>
        <pt x="526" y="1090" on="1"/>
        <pt x="672" y="1147" on="1"/>
        <pt x="538" y="1205" on="1"/>
        <pt x="278" y="1344" on="1"/>
        <pt x="365" y="1471" on="1"/>
        <pt x="598" y="1295" on="1"/>
        <pt x="707" y="1200" on="1"/>
        <pt x="701" y="1350" on="1"/>
        <pt x="708" y="1653" on="1"/>
        <pt x="856" y="1653" on="1"/>
        <pt x="805" y="1350" on="1"/>
        <pt x="768" y="1200" on="1"/>
        <pt x="897" y="1295" on="1"/>
        <pt x="1164" y="1467" on="1"/>
        <pt x="1223" y="1339" on="1"/>
        <pt x="939" y="1204" on="1"/>
        <pt x="794" y="1146" on="1"/>
        <pt x="923" y="1088" on="1"/>
        <pt x="1177" y="953" on="1"/>
        <pt x="1089" y="827" on="1"/>
        <pt x="862" y="999" on="1"/>
        <pt x="757" y="1096" on="1"/>
        <pt x="766" y="950" on="1"/>
        <pt x="759" y="647" on="1"/>
        <pt x="608" y="648" on="1"/>
        <pt x="660" y="950" on="1"/>
        <pt x="696" y="1096" on="1"/>
        <pt x="568" y="1001" on="1"/>
        <pt x="299" y="831" on="1"/>
      </contour>
    </TTGlyph>
    <TTGlyph name="at" xMin="121" yMin="-440" xMax="1869" yMax="1545">
      <contour>
        <pt x="1353" y="141" on="1"/>
        <pt x="1442" y="141" on="0"/>
        <pt x="1536" y="246" on="1"/>
        <pt x="1682" y="409" on="0"/>
        <pt x="1734" y="682" on="1"/>
        <pt x="1751" y="772" on="0"/>
        <pt x="1751" y="1026" on="0"/>
        <pt x="1660" y="1247" on="0"/>
        <pt x="1580" y="1316" on="1"/>
        <pt x="1431" y="1444" on="0"/>
        <pt x="1161" y="1444" on="1"/>
        <pt x="892" y="1444" on="0"/>
        <pt x="676" y="1294" on="1"/>
        <pt x="472" y="1153" on="0"/>
        <pt x="354" y="910" on="1"/>
        <pt x="238" y="669" on="0"/>
        <pt x="238" y="391" on="1"/>
        <pt x="238" y="30" on="0"/>
        <pt x="437" y="-162" on="1"/>
        <pt x="615" y="-333" on="0"/>
        <pt x="909" y="-333" on="1"/>
        <pt x="1065" y="-333" on="0"/>
        <pt x="1230" y="-276" on="1"/>
        <pt x="1274" y="-261" on="0"/>
        <pt x="1298" y="-248" on="1"/>
        <pt x="1324" y="-324" on="1"/>
        <pt x="1218" y="-405" on="0"/>
        <pt x="1025" y="-432" on="1"/>
        <pt x="963" y="-440" on="0"/>
        <pt x="898" y="-440" on="1"/>
        <pt x="553" y="-440" on="0"/>
        <pt x="342" y="-227" on="1"/>
        <pt x="121" y="-5" on="0"/>
        <pt x="121" y="373" on="1"/>
        <pt x="121" y="725" on="0"/>
        <pt x="266" y="998" on="1"/>
        <pt x="404" y="1258" on="0"/>
        <pt x="650" y="1402" on="1"/>
        <pt x="893" y="1545" on="0"/>
        <pt x="1189" y="1545" on="1"/>
        <pt x="1502" y="1545" on="0"/>
        <pt x="1686" y="1366" on="1"/>
        <pt x="1869" y="1189" on="0"/>
        <pt x="1869" y="889" on="1"/>
        <pt x="1869" y="498" on="0"/>
        <pt x="1671" y="243" on="1"/>
        <pt x="1552" y="90" on="0"/>
        <pt x="1412" y="35" on="1"/>
        <pt x="1343" y="8" on="0"/>
        <pt x="1243" y="8" on="0"/>
        <pt x="1203" y="43" on="0"/>
        <pt x="1193" y="72" on="1"/>
        <pt x="1179" y="111" on="0"/>
        <pt x="1179" y="234" on="0"/>
        <pt x="1184" y="291" on="0"/>
        <pt x="1193" y="357" on="0"/>
        <pt x="1199" y="392" on="1"/>
        <pt x="1211" y="461" on="1"/>
        <pt x="1130" y="266" on="0"/>
        <pt x="993" y="86" on="0"/>
        <pt x="883" y="5" on="0"/>
        <pt x="773" y="5" on="0"/>
        <pt x="722" y="30" on="1"/>
        <pt x="613" y="85" on="0"/>
        <pt x="566" y="242" on="1"/>
        <pt x="543" y="317" on="0"/>
        <pt x="543" y="426" on="0"/>
        <pt x="544" y="507" on="0"/>
        <pt x="575" y="661" on="0"/>
        <pt x="634" y="807" on="0"/>
        <pt x="722" y="937" on="0"/>
        <pt x="782" y="986" on="1"/>
        <pt x="912" y="1092" on="0"/>
        <pt x="1086" y="1092" on="1"/>
        <pt x="1177" y="1092" on="0"/>
        <pt x="1298" y="1051" on="0"/>
        <pt x="1319" y="1038" on="1"/>
        <pt x="1447" y="1062" on="1"/>
        <pt x="1380" y="803" on="0"/>
        <pt x="1333" y="446" on="1"/>
        <pt x="1314" y="298" on="0"/>
        <pt x="1314" y="141" on="0"/>
      </contour>
      <contour>
        <pt x="681" y="293" on="0"/>
        <pt x="769" y="123" on="0"/>
        <pt x="847" y="122" on="1"/>
        <pt x="952" y="122" on="0"/>
        <pt x="1094" y="410" on="1"/>
        <pt x="1225" y="673" on="0"/>
        <pt x="1282" y="926" on="1"/>
        <pt x="1243" y="973" on="0"/>
        <pt x="1131" y="990" on="1"/>
        <pt x="1102" y="995" on="0"/>
        <pt x="1015" y="995" on="0"/>
        <pt x="905" y="947" on="0"/>
        <pt x="817" y="866" on="0"/>
        <pt x="749" y="758" on="0"/>
        <pt x="726" y="696" on="1"/>
        <pt x="681" y="572" on="0"/>
      </contour>
    </TTGlyph>
    <TTGlyph name="atilde" xMin="81" yMin="-16" xMax="1101" yMax="1647">
      <component glyphName="a" x="0" y="0" flags="0x1204"/>
      <component glyphName="tilde" x="328" y="0" flags="0x1004"/>
    </TTGlyph>
    <TTGlyph name="b" xMin="95" yMin="-16" xMax="1060" yMax="1637">
      <contour>
        <pt x="619" y="17" on="1"/>
        <pt x="529" y="-16" on="0"/>
        <pt x="308" y="-16" on="0"/>
        <pt x="179" y="27" on="1"/>
        <pt x="95" y="2" on="1"/>
        <pt x="313" y="1637" on="1"/>
        <pt x="454" y="1637" on="1"/>
        <pt x="396" y="1147" on="1"/>
        <pt x="361" y="939" on="1"/>
        <pt x="463" y="1082" on="0"/>
        <pt x="622" y="1136" on="1"/>
        <pt x="679" y="1156" on="0"/>
        <pt x="823" y="1156" on="0"/>
        <pt x="943" y="1093" on="0"/>
        <pt x="982" y="1036" on="1"/>
        <pt x="1060" y="924" on="0"/>
        <pt x="1060" y="723" on="1"/>
        <pt x="1060" y="455" on="0"/>
        <pt x="904" y="236" on="1"/>
        <pt x="795" y="81" on="0"/>
      </contour>
      <contour>
        <pt x="906" y="706" on="1"/>
        <pt x="906" y="1040" on="0"/>
        <pt x="716" y="1040" on="1"/>
        <pt x="606" y="1040" on="0"/>
        <pt x="494" y="950" on="1"/>
        <pt x="409" y="882" on="0"/>
        <pt x="347" y="784" on="1"/>
        <pt x="259" y="129" on="1"/>
        <pt x="339" y="94" on="0"/>
        <pt x="521" y="94" on="0"/>
        <pt x="650" y="149" on="0"/>
        <pt x="753" y="242" on="0"/>
        <pt x="830" y="365" on="0"/>
        <pt x="856" y="433" on="1"/>
        <pt x="906" y="568" on="0"/>
      </contour>
    </TTGlyph>
    <TTGlyph name="backslash" xMin="46" yMin="-362" xMax="755" yMax="1597">
      <contour>
        <pt x="622" y="-362" on="1"/>
        <pt x="46" y="1597" on="1"/>
        <pt x="178" y="1597" on="1"/>
        <pt x="755" y="-362" on="1"/>
      </contour>
    </TTGlyph>
    <TTGlyph name="bar" xMin="375" yMin="-186" xMax="506" yMax="1780">
      <contour>
        <pt x="375" y="1780" on="1"/>
        <pt x="506" y="1780" on="1"/>
        <pt x="506" y="-186" on="1"/>
        <pt x="375" y="-186" on="1"/>
      </contour>
    </TTGlyph>
    <TTGlyph name="braceleft" xMin="162" yMin="-159" xMax="979" yMax="1710">
      <contour>
        <pt x="979" y="1674" on="1"/>
        <pt x="969" y="1624" on="0"/>
        <pt x="969" y="1607" on="1"/>
        <pt x="693" y="1607" on="1"/>
        <pt x="597" y="969" on="1"/>
        <pt x="586" y="891" on="0"/>
        <pt x="489" y="844" on="1"/>
        <pt x="452" y="827" on="1"/>
        <pt x="429" y="816" on="0"/>
        <pt x="404" y="806" on="1"/>
        <pt x="356" y="786" on="1"/>
        <pt x="335" y="778" on="0"/>
        <pt x="327" y="776" on="1"/>
        <pt x="433" y="727" on="0"/>
        <pt x="473" y="696" on="1"/>
        <pt x="545" y="638" on="0"/>
        <pt x="536" y="576" on="1"/>
        <pt x="442" y="-55" on="1"/>
        <pt x="717" y="-55" on="1"/>
        <pt x="716" y="-60" on="0"/>
        <pt x="714" y="-81" on="0"/>
        <pt x="710" y="-107" on="0"/>
        <pt x="708" y="-123" on="1"/>
        <pt x="555" y="-159" on="0"/>
        <pt x="398" y="-159" on="0"/>
        <pt x="348" y="-149" on="0"/>
        <pt x="332" y="-136" on="1"/>
        <pt x="303" y="-111" on="0"/>
        <pt x="305" y="-48" on="1"/>
        <pt x="305" y="-44" on="0"/>
        <pt x="309" y="-15" on="1"/>
        <pt x="354" y="308" on="0"/>
        <pt x="395" y="579" on="1"/>
        <pt x="400" y="637" on="0"/>
        <pt x="254" y="696" on="1"/>
        <pt x="209" y="715" on="0"/>
        <pt x="162" y="728" on="1"/>
        <pt x="176" y="825" on="1"/>
        <pt x="390" y="883" on="0"/>
        <pt x="432" y="926" on="1"/>
        <pt x="450" y="946" on="0"/>
        <pt x="454" y="968" on="1"/>
        <pt x="536" y="1519" on="1"/>
        <pt x="554" y="1634" on="0"/>
        <pt x="610" y="1692" on="0"/>
        <pt x="670" y="1710" on="0"/>
        <pt x="709" y="1710" on="1"/>
        <pt x="795" y="1710" on="0"/>
      </contour>
    </TTGlyph>
    <TTGlyph name="braceright" xMin="93" yMin="-164" xMax="910" yMax="1705">
      <component glyphName="braceleft" x="1072" y="1546" scale="-0.999938964844" flags="0x1004"/>
    </TTGlyph>
    <TTGlyph name="bracketleft" xMin="194" yMin="-172" xMax="862" yMax="1710">
      <contour>
        <pt x="331" y="-68" on="1"/>
        <pt x="480" y="-69" on="1"/>
        <pt x="523" y="-69" on="0"/>
        <pt x="603" y="-70" on="0"/>
        <pt x="627" y="-70" on="1"/>
        <pt x="620" y="-136" on="1"/>
        <pt x="455" y="-172" on="0"/>
        <pt x="253" y="-172" on="0"/>
        <pt x="194" y="-126" on="0"/>
        <pt x="194" y="-26" on="0"/>
        <pt x="200" y="72" on="0"/>
        <pt x="218" y="227" on="0"/>
        <pt x="243" y="418" on="0"/>
        <pt x="259" y="526" on="1"/>
        <pt x="386" y="1369" on="1"/>
        <pt x="399" y="1456" on="0"/>
        <pt x="414" y="1574" on="0"/>
        <pt x="437" y="1647" on="0"/>
        <pt x="457" y="1669" on="1"/>
        <pt x="494" y="1710" on="0"/>
        <pt x="583" y="1710" on="1"/>
        <pt x="660" y="1710" on="0"/>
        <pt x="854" y="1673" on="0"/>
        <pt x="862" y="1673" on="1"/>
        <pt x="853" y="1607" on="1"/>
        <pt x="561" y="1607" on="1"/>
      </contour>
    </TTGlyph>
    <TTGlyph name="bracketright" xMin="55" yMin="-154" xMax="723" yMax="1728">
      <component glyphName="bracketleft" x="917" y="1556" scale="-0.999938964844" flags="0x1004"/>
    </TTGlyph>
    <TTGlyph name="breve" xMin="52" yMin="1305" xMax="683" yMax="1648">
      <contour>
        <pt x="537" y="1361" on="0"/>
        <pt x="419" y="1305" on="0"/>
        <pt x="270" y="1305" on="0"/>
        <pt x="158" y="1361" on="0"/>
        <pt x="122" y="1406" on="1"/>
        <pt x="52" y="1494" on="0"/>
        <pt x="52" y="1627" on="1"/>
        <pt x="52" y="1638" on="1"/>
        <pt x="52" y="1643" on="0"/>
        <pt x="53" y="1648" on="1"/>
        <pt x="156" y="1648" on="1"/>
        <pt x="156" y="1630" on="0"/>
        <pt x="163" y="1582" on="0"/>
        <pt x="187" y="1511" on="0"/>
        <pt x="210" y="1482" on="1"/>
        <pt x="260" y="1417" on="0"/>
        <pt x="353" y="1417" on="1"/>
        <pt x="452" y="1417" on="0"/>
        <pt x="518" y="1501" on="1"/>
        <pt x="566" y="1563" on="0"/>
        <pt x="582" y="1648" on="1"/>
        <pt x="683" y="1648" on="1"/>
        <pt x="683" y="1644" on="0"/>
        <pt x="683" y="1630" on="0"/>
        <pt x="675" y="1561" on="0"/>
        <pt x="623" y="1450" on="0"/>
      </contour>
    </TTGlyph>
    <TTGlyph name="breve.cap" xMin="52" yMin="1637" xMax="683" yMax="1980">
      <contour>
        <pt x="537" y="1693" on="0"/>
        <pt x="419" y="1637" on="0"/>
        <pt x="270" y="1637" on="0"/>
        <pt x="158" y="1693" on="0"/>
        <pt x="122" y="1738" on="1"/>
        <pt x="52" y="1826" on="0"/>
        <pt x="52" y="1959" on="1"/>
        <pt x="52" y="1970" on="1"/>
        <pt x="52" y="1975" on="0"/>
        <pt x="53" y="1980" on="1"/>
        <pt x="156" y="1980" on="1"/>
        <pt x="156" y="1962" on="0"/>
        <pt x="163" y="1914" on="0"/>
        <pt x="187" y="1843" on="0"/>
        <pt x="210" y="1814" on="1"/>
        <pt x="260" y="1749" on="0"/>
        <pt x="353" y="1749" on="1"/>
        <pt x="452" y="1749" on="0"/>
        <pt x="518" y="1833" on="1"/>
        <pt x="566" y="1895" on="0"/>
        <pt x="582" y="1980" on="1"/>
        <pt x="683" y="1980" on="1"/>
        <pt x="683" y="1976" on="0"/>
        <pt x="683" y="1962" on="0"/>
        <pt x="675" y="1893" on="0"/>
        <pt x="623" y="1782" on="0"/>
      </contour>
    </TTGlyph>
    <TTGlyph name="brokenbar" xMin="375" yMin="-186" xMax="506" yMax="1780">
      <contour>
        <pt x="375" y="1780" on="1"/>
        <pt x="506" y="1780" on="1"/>
        <pt x="506" y="886" on="1"/>
        <pt x="375" y="886" on="1"/>
      </contour>
      <contour>
        <pt x="375" y="708" on="1"/>
        <pt x="506" y="708" on="1"/>
        <pt x="506" y="-186" on="1"/>
        <pt x="375" y="-186" on="1"/>
      </contour>
    </TTGlyph>
    <TTGlyph name="bullet" xMin="282" yMin="557" xMax="613" yMax="891">
      <contour>
        <pt x="535" y="594" on="0"/>
        <pt x="463" y="557" on="0"/>
        <pt x="390" y="557" on="0"/>
        <pt x="340" y="578" on="0"/>
        <pt x="322" y="596" on="1"/>
        <pt x="282" y="636" on="0"/>
        <pt x="282" y="728" on="0"/>
        <pt x="312" y="798" on="0"/>
        <pt x="338" y="826" on="1"/>
        <pt x="397" y="891" on="0"/>
        <pt x="477" y="891" on="1"/>
        <pt x="568" y="891" on="0"/>
        <pt x="602" y="812" on="1"/>
        <pt x="613" y="787" on="0"/>
        <pt x="613" y="723" on="0"/>
        <pt x="586" y="652" on="0"/>
      </contour>
    </TTGlyph>
    <TTGlyph name="c" xMin="89" yMin="-16" xMax="883" yMax="1156">
      <contour>
        <pt x="241" y="448" on="1"/>
        <pt x="241" y="98" on="0"/>
        <pt x="483" y="98" on="1"/>
        <pt x="568" y="98" on="0"/>
        <pt x="704" y="180" on="0"/>
        <pt x="769" y="245" on="1"/>
        <pt x="819" y="163" on="1"/>
        <pt x="733" y="50" on="0"/>
        <pt x="586" y="2" on="1"/>
        <pt x="528" y="-16" on="0"/>
        <pt x="370" y="-16" on="0"/>
        <pt x="231" y="46" on="0"/>
        <pt x="184" y="104" on="1"/>
        <pt x="89" y="221" on="0"/>
        <pt x="89" y="433" on="1"/>
        <pt x="89" y="697" on="0"/>
        <pt x="234" y="912" on="1"/>
        <pt x="335" y="1063" on="0"/>
        <pt x="490" y="1124" on="1"/>
        <pt x="569" y="1156" on="0"/>
        <pt x="691" y="1156" on="0"/>
        <pt x="750" y="1151" on="0"/>
        <pt x="779" y="1146" on="1"/>
        <pt x="846" y="1134" on="0"/>
        <pt x="883" y="1115" on="1"/>
        <pt x="844" y="987" on="1"/>
        <pt x="772" y="1044" on="0"/>
        <pt x="569" y="1044" on="0"/>
        <pt x="420" y="948" on="0"/>
        <pt x="364" y="866" on="1"/>
        <pt x="241" y="687" on="0"/>
      </contour>
    </TTGlyph>
    <TTGlyph name="cacute" xMin="89" yMin="-16" xMax="988" yMax="1704">
      <component glyphName="acute" x="507" y="0" flags="0x1004"/>
      <component glyphName="c" x="0" y="0" flags="0x1004"/>
    </TTGlyph>
    <TTGlyph name="caron" xMin="50" yMin="1255" xMax="762" yMax="1650">
      <contour>
        <pt x="50" y="1583" on="1"/>
        <pt x="117" y="1650" on="1"/>
        <pt x="366" y="1371" on="1"/>
        <pt x="699" y="1650" on="1"/>
        <pt x="762" y="1583" on="1"/>
        <pt x="427" y="1255" on="1"/>
        <pt x="292" y="1255" on="1"/>
      </contour>
    </TTGlyph>
    <TTGlyph name="caron.cap" xMin="50" yMin="1614" xMax="745" yMax="2000">
      <contour>
        <pt x="50" y="1933" on="1"/>
        <pt x="117" y="2000" on="1"/>
        <pt x="361" y="1730" on="1"/>
        <pt x="682" y="2000" on="1"/>
        <pt x="745" y="1933" on="1"/>
        <pt x="423" y="1614" on="1"/>
        <pt x="288" y="1614" on="1"/>
      </contour>
    </TTGlyph>
    <TTGlyph name="caronvertical" xMin="197" yMin="1038" xMax="408" yMax="1680">
      <contour>
        <pt x="379" y="1680" on="1"/>
        <pt x="408" y="1624" on="0"/>
        <pt x="408" y="1491" on="1"/>
        <pt x="408" y="1299" on="0"/>
        <pt x="328" y="1125" on="1"/>
        <pt x="305" y="1076" on="0"/>
        <pt x="279" y="1038" on="1"/>
        <pt x="201" y="1068" on="1"/>
        <pt x="197" y="1088" on="1"/>
        <pt x="268" y="1284" on="0"/>
        <pt x="268" y="1575" on="0"/>
        <pt x="239" y="1620" on="1"/>
        <pt x="246" y="1645" on="1"/>
      </contour>
    </TTGlyph>
    <TTGlyph name="ccaron" xMin="89" yMin="-16" xMax="1055" yMax="1650">
      <component glyphName="caron" x="293" y="0" flags="0x1004"/>
      <component glyphName="c" x="0" y="0" flags="0x1004"/>
    </TTGlyph>
    <TTGlyph name="ccedilla" xMin="89" yMin="-465" xMax="883" yMax="1156">
      <contour>
        <pt x="160" y="-321" on="1"/>
        <pt x="193" y="-339" on="0"/>
        <pt x="248" y="-339" on="1"/>
        <pt x="418" y="-339" on="0"/>
        <pt x="418" y="-146" on="1"/>
        <pt x="418" y="-65" on="0"/>
        <pt x="409" y="-13" on="1"/>
        <pt x="254" y="5" on="0"/>
        <pt x="170" y="122" on="1"/>
        <pt x="89" y="237" on="0"/>
        <pt x="89" y="433" on="1"/>
        <pt x="89" y="697" on="0"/>
        <pt x="234" y="912" on="1"/>
        <pt x="335" y="1063" on="0"/>
        <pt x="490" y="1124" on="1"/>
        <pt x="569" y="1156" on="0"/>
        <pt x="691" y="1156" on="0"/>
        <pt x="750" y="1151" on="0"/>
        <pt x="779" y="1146" on="1"/>
        <pt x="846" y="1134" on="0"/>
        <pt x="883" y="1115" on="1"/>
        <pt x="844" y="987" on="1"/>
        <pt x="772" y="1044" on="0"/>
        <pt x="569" y="1044" on="0"/>
        <pt x="420" y="948" on="0"/>
        <pt x="364" y="866" on="1"/>
        <pt x="241" y="687" on="0"/>
        <pt x="241" y="448" on="1"/>
        <pt x="241" y="98" on="0"/>
        <pt x="483" y="98" on="1"/>
        <pt x="568" y="98" on="0"/>
        <pt x="704" y="180" on="0"/>
        <pt x="769" y="245" on="1"/>
        <pt x="819" y="163" on="1"/>
        <pt x="745" y="67" on="0"/>
        <pt x="624" y="16" on="1"/>
        <pt x="576" y="-4" on="0"/>
        <pt x="520" y="-12" on="1"/>
        <pt x="549" y="-78" on="0"/>
        <pt x="549" y="-262" on="0"/>
        <pt x="507" y="-371" on="0"/>
        <pt x="471" y="-404" on="1"/>
        <pt x="404" y="-465" on="0"/>
        <pt x="286" y="-465" on="1"/>
        <pt x="179" y="-465" on="0"/>
        <pt x="140" y="-436" on="1"/>
      </contour>
    </TTGlyph>
    <TTGlyph name="ccircumflex" xMin="89" yMin="-16" xMax="988" yMax="1650">
      <component glyphName="circumflex" x="248" y="0" flags="0x1004"/>
      <component glyphName="c" x="0" y="0" flags="0x1004"/>
    </TTGlyph>
    <TTGlyph name="cdotaccent" xMin="89" yMin="-16" xMax="883" yMax="1640">
      <component glyphName="c" x="0" y="0" flags="0x1204"/>
      <component glyphName="dotaccent" x="520" y="0" flags="0x1004"/>
    </TTGlyph>
    <TTGlyph name="cedilla" xMin="3" yMin="-465" xMax="412" yMax="26">
      <contour>
        <pt x="281" y="-146" on="1"/>
        <pt x="281" y="-38" on="0"/>
        <pt x="265" y="22" on="1"/>
        <pt x="324" y="26" on="1"/>
        <pt x="365" y="22" on="1"/>
        <pt x="412" y="-52" on="0"/>
        <pt x="412" y="-262" on="0"/>
        <pt x="370" y="-371" on="0"/>
        <pt x="334" y="-404" on="1"/>
        <pt x="267" y="-465" on="0"/>
        <pt x="149" y="-465" on="1"/>
        <pt x="42" y="-465" on="0"/>
        <pt x="3" y="-436" on="1"/>
        <pt x="23" y="-321" on="1"/>
        <pt x="56" y="-339" on="0"/>
        <pt x="111" y="-339" on="1"/>
        <pt x="281" y="-339" on="0"/>
      </contour>
    </TTGlyph>
    <TTGlyph name="cent" xMin="140" yMin="-215" xMax="934" yMax="1358">
      <contour>
        <pt x="292" y="448" on="1"/>
        <pt x="292" y="98" on="0"/>
        <pt x="534" y="98" on="1"/>
        <pt x="619" y="98" on="0"/>
        <pt x="755" y="180" on="0"/>
        <pt x="820" y="245" on="1"/>
        <pt x="870" y="163" on="1"/>
        <pt x="784" y="54" on="0"/>
        <pt x="646" y="6" on="1"/>
        <pt x="591" y="-14" on="0"/>
        <pt x="527" y="-16" on="1"/>
        <pt x="490" y="-215" on="1"/>
        <pt x="375" y="-215" on="1"/>
        <pt x="414" y="-5" on="1"/>
        <pt x="212" y="40" on="0"/>
        <pt x="158" y="270" on="1"/>
        <pt x="140" y="344" on="0"/>
        <pt x="140" y="505" on="0"/>
        <pt x="167" y="660" on="0"/>
        <pt x="222" y="810" on="0"/>
        <pt x="304" y="947" on="0"/>
        <pt x="358" y="1002" on="1"/>
        <pt x="475" y="1122" on="0"/>
        <pt x="628" y="1148" on="1"/>
        <pt x="678" y="1358" on="1"/>
        <pt x="794" y="1358" on="1"/>
        <pt x="744" y="1155" on="1"/>
        <pt x="864" y="1150" on="0"/>
        <pt x="934" y="1115" on="1"/>
        <pt x="895" y="987" on="1"/>
        <pt x="823" y="1044" on="0"/>
        <pt x="620" y="1044" on="0"/>
        <pt x="471" y="948" on="0"/>
        <pt x="415" y="866" on="1"/>
        <pt x="292" y="687" on="0"/>
      </contour>
    </TTGlyph>
    <TTGlyph name="circumflex" xMin="57" yMin="1215" xMax="740" yMax="1650">
      <contour>
        <pt x="57" y="1274" on="1"/>
        <pt x="400" y="1650" on="1"/>
        <pt x="537" y="1650" on="1"/>
        <pt x="740" y="1273" on="1"/>
        <pt x="667" y="1220" on="1"/>
        <pt x="449" y="1514" on="1"/>
        <pt x="116" y="1215" on="1"/>
      </contour>
    </TTGlyph>
    <TTGlyph name="circumflex.cap" xMin="51" yMin="1594" xMax="732" yMax="2000">
      <contour>
        <pt x="51" y="1653" on="1"/>
        <pt x="391" y="2000" on="1"/>
        <pt x="527" y="2000" on="1"/>
        <pt x="732" y="1652" on="1"/>
        <pt x="659" y="1599" on="1"/>
        <pt x="440" y="1864" on="1"/>
        <pt x="110" y="1594" on="1"/>
      </contour>
    </TTGlyph>
    <TTGlyph name="colon" xMin="86" yMin="-17" xMax="392" yMax="1035">
      <component glyphName="period" x="-15" y="0" flags="0x1204"/>
      <component glyphName="period" x="81" y="832" flags="0x1004"/>
    </TTGlyph>
    <TTGlyph name="comma" xMin="-22" yMin="-501" xMax="343" yMax="265">
      <contour>
        <pt x="96" y="168" on="1"/>
        <pt x="175" y="265" on="1"/>
        <pt x="265" y="225" on="0"/>
        <pt x="308" y="134" on="1"/>
        <pt x="343" y="62" on="0"/>
        <pt x="343" y="-115" on="0"/>
        <pt x="298" y="-262" on="0"/>
        <pt x="257" y="-323" on="1"/>
        <pt x="175" y="-446" on="0"/>
        <pt x="33" y="-501" on="1"/>
        <pt x="-22" y="-434" on="1"/>
        <pt x="-20" y="-416" on="1"/>
        <pt x="120" y="-346" on="0"/>
        <pt x="168" y="-194" on="1"/>
        <pt x="184" y="-142" on="0"/>
        <pt x="184" y="-3" on="0"/>
        <pt x="131" y="108" on="0"/>
        <pt x="90" y="127" on="1"/>
      </contour>
    </TTGlyph>
    <TTGlyph name="commaaccent" xMin="26" yMin="-560" xMax="261" yMax="-52">
      <contour>
        <pt x="142" y="-52" on="1"/>
        <pt x="226" y="-79" on="0"/>
        <pt x="253" y="-194" on="1"/>
        <pt x="261" y="-228" on="0"/>
        <pt x="261" y="-324" on="0"/>
        <pt x="227" y="-427" on="0"/>
        <pt x="201" y="-466" on="1"/>
        <pt x="148" y="-544" on="0"/>
        <pt x="87" y="-560" on="1"/>
        <pt x="26" y="-521" on="1"/>
        <pt x="28" y="-501" on="1"/>
        <pt x="116" y="-442" on="0"/>
        <pt x="116" y="-310" on="1"/>
        <pt x="116" y="-268" on="0"/>
        <pt x="76" y="-197" on="0"/>
        <pt x="44" y="-184" on="1"/>
        <pt x="48" y="-143" on="1"/>
      </contour>
    </TTGlyph>
    <TTGlyph name="copyright" xMin="196" yMin="90" xMax="1877" yMax="1783">
      <contour>
        <pt x="196" y="938" on="1"/>
        <pt x="196" y="1290" on="0"/>
        <pt x="440" y="1536" on="1"/>
        <pt x="596" y="1693" on="0"/>
        <pt x="812" y="1753" on="1"/>
        <pt x="919" y="1783" on="0"/>
        <pt x="1036" y="1783" on="1"/>
        <pt x="1267" y="1783" on="0"/>
        <pt x="1462" y="1668" on="1"/>
        <pt x="1652" y="1556" on="0"/>
        <pt x="1764" y="1366" on="1"/>
        <pt x="1877" y="1171" on="0"/>
        <pt x="1877" y="938" on="1"/>
        <pt x="1877" y="709" on="0"/>
        <pt x="1763" y="510" on="1"/>
        <pt x="1655" y="321" on="0"/>
        <pt x="1462" y="206" on="1"/>
        <pt x="1268" y="90" on="0"/>
        <pt x="1036" y="90" on="1"/>
        <pt x="687" y="90" on="0"/>
        <pt x="440" y="338" on="1"/>
        <pt x="287" y="493" on="0"/>
        <pt x="226" y="712" on="1"/>
        <pt x="196" y="821" on="0"/>
      </contour>
      <contour>
        <pt x="306" y="938" on="1"/>
        <pt x="306" y="736" on="0"/>
        <pt x="404" y="560" on="1"/>
        <pt x="498" y="391" on="0"/>
        <pt x="662" y="292" on="1"/>
        <pt x="831" y="190" on="0"/>
        <pt x="1192" y="190" on="0"/>
        <pt x="1459" y="308" on="0"/>
        <pt x="1656" y="511" on="0"/>
        <pt x="1767" y="783" on="0"/>
        <pt x="1767" y="1041" on="0"/>
        <pt x="1717" y="1231" on="0"/>
        <pt x="1624" y="1398" on="0"/>
        <pt x="1492" y="1535" on="0"/>
        <pt x="1411" y="1584" on="1"/>
        <pt x="1240" y="1686" on="0"/>
        <pt x="1036" y="1686" on="1"/>
        <pt x="833" y="1686" on="0"/>
        <pt x="662" y="1584" on="1"/>
        <pt x="497" y="1485" on="0"/>
        <pt x="402" y="1314" on="1"/>
        <pt x="306" y="1141" on="0"/>
      </contour>
      <contour>
        <pt x="1307" y="655" on="1"/>
        <pt x="1343" y="560" on="1"/>
        <pt x="1231" y="467" on="0"/>
        <pt x="1032" y="467" on="1"/>
        <pt x="839" y="467" on="0"/>
        <pt x="720" y="607" on="1"/>
        <pt x="607" y="739" on="0"/>
        <pt x="607" y="932" on="1"/>
        <pt x="607" y="1142" on="0"/>
        <pt x="730" y="1274" on="1"/>
        <pt x="859" y="1413" on="0"/>
        <pt x="1085" y="1413" on="1"/>
        <pt x="1208" y="1413" on="0"/>
        <pt x="1317" y="1362" on="1"/>
        <pt x="1290" y="1237" on="1"/>
        <pt x="1199" y="1292" on="0"/>
        <pt x="995" y="1292" on="0"/>
        <pt x="877" y="1237" on="0"/>
        <pt x="837" y="1190" on="1"/>
        <pt x="755" y="1094" on="0"/>
        <pt x="755" y="943" on="1"/>
        <pt x="755" y="774" on="0"/>
        <pt x="840" y="678" on="1"/>
        <pt x="920" y="588" on="0"/>
        <pt x="1194" y="588" on="0"/>
      </contour>
    </TTGlyph>
    <TTGlyph name="currency" xMin="227" yMin="143" xMax="1312" yMax="1236">
      <contour>
        <pt x="1031" y="340" on="1"/>
        <pt x="914" y="252" on="0"/>
        <pt x="624" y="252" on="0"/>
        <pt x="508" y="334" on="1"/>
        <pt x="317" y="143" on="1"/>
        <pt x="230" y="229" on="1"/>
        <pt x="419" y="419" on="1"/>
        <pt x="326" y="539" on="0"/>
        <pt x="326" y="841" on="0"/>
        <pt x="418" y="958" on="1"/>
        <pt x="227" y="1149" on="1"/>
        <pt x="314" y="1236" on="1"/>
        <pt x="505" y="1043" on="1"/>
        <pt x="622" y="1128" on="0"/>
        <pt x="918" y="1128" on="0"/>
        <pt x="1038" y="1035" on="1"/>
        <pt x="1225" y="1223" on="1"/>
        <pt x="1312" y="1136" on="1"/>
        <pt x="1122" y="946" on="1"/>
        <pt x="1206" y="833" on="0"/>
        <pt x="1206" y="542" on="0"/>
        <pt x="1118" y="427" on="1"/>
        <pt x="1310" y="235" on="1"/>
        <pt x="1223" y="149" on="1"/>
      </contour>
      <contour>
        <pt x="440" y="690" on="1"/>
        <pt x="440" y="550" on="0"/>
        <pt x="536" y="452" on="1"/>
        <pt x="632" y="354" on="0"/>
        <pt x="766" y="354" on="1"/>
        <pt x="902" y="354" on="0"/>
        <pt x="997" y="452" on="1"/>
        <pt x="1092" y="551" on="0"/>
        <pt x="1092" y="690" on="1"/>
        <pt x="1092" y="829" on="0"/>
        <pt x="997" y="928" on="1"/>
        <pt x="902" y="1026" on="0"/>
        <pt x="766" y="1026" on="1"/>
        <pt x="632" y="1026" on="0"/>
        <pt x="536" y="928" on="1"/>
        <pt x="440" y="830" on="0"/>
      </contour>
    </TTGlyph>
    <TTGlyph name="d" xMin="79" yMin="-16" xMax="1114" yMax="1637">
      <contour>
        <pt x="520" y="1123" on="1"/>
        <pt x="609" y="1156" on="0"/>
        <pt x="801" y="1156" on="0"/>
        <pt x="896" y="1131" on="1"/>
        <pt x="966" y="1637" on="1"/>
        <pt x="1114" y="1637" on="1"/>
        <pt x="890" y="0" on="1"/>
        <pt x="758" y="0" on="1"/>
        <pt x="778" y="208" on="1"/>
        <pt x="674" y="59" on="0"/>
        <pt x="517" y="4" on="1"/>
        <pt x="460" y="-16" on="0"/>
        <pt x="316" y="-16" on="0"/>
        <pt x="196" y="47" on="0"/>
        <pt x="156" y="104" on="1"/>
        <pt x="79" y="216" on="0"/>
        <pt x="79" y="416" on="1"/>
        <pt x="79" y="685" on="0"/>
        <pt x="234" y="904" on="1"/>
        <pt x="344" y="1058" on="0"/>
      </contour>
      <contour>
        <pt x="233" y="434" on="1"/>
        <pt x="233" y="100" on="0"/>
        <pt x="423" y="100" on="1"/>
        <pt x="532" y="100" on="0"/>
        <pt x="644" y="192" on="1"/>
        <pt x="729" y="263" on="0"/>
        <pt x="791" y="363" on="1"/>
        <pt x="880" y="1011" on="1"/>
        <pt x="797" y="1047" on="0"/>
        <pt x="618" y="1047" on="0"/>
        <pt x="489" y="992" on="0"/>
        <pt x="386" y="898" on="0"/>
        <pt x="309" y="775" on="0"/>
        <pt x="284" y="707" on="1"/>
        <pt x="233" y="572" on="0"/>
      </contour>
    </TTGlyph>
    <TTGlyph name="dagger" xMin="138" yMin="151" xMax="873" yMax="1646">
      <contour>
        <pt x="410" y="1008" on="1"/>
        <pt x="437" y="1146" on="1"/>
        <pt x="138" y="1146" on="1"/>
        <pt x="154" y="1260" on="1"/>
        <pt x="470" y="1260" on="1"/>
        <pt x="481" y="1469" on="1"/>
        <pt x="507" y="1646" on="1"/>
        <pt x="651" y="1646" on="1"/>
        <pt x="622" y="1469" on="1"/>
        <pt x="566" y="1260" on="1"/>
        <pt x="873" y="1260" on="1"/>
        <pt x="857" y="1146" on="1"/>
        <pt x="566" y="1146" on="1"/>
        <pt x="554" y="1008" on="1"/>
        <pt x="396" y="151" on="1"/>
        <pt x="306" y="151" on="1"/>
      </contour>
    </TTGlyph>
    <TTGlyph name="daggerdbl" xMin="131" yMin="-51" xMax="869" yMax="1646">
      <contour>
        <pt x="344" y="510" on="1"/>
        <pt x="373" y="649" on="1"/>
        <pt x="131" y="650" on="1"/>
        <pt x="149" y="764" on="1"/>
        <pt x="400" y="764" on="1"/>
        <pt x="408" y="981" on="1"/>
        <pt x="447" y="1146" on="1"/>
        <pt x="176" y="1146" on="1"/>
        <pt x="192" y="1260" on="1"/>
        <pt x="479" y="1260" on="1"/>
        <pt x="488" y="1469" on="1"/>
        <pt x="514" y="1646" on="1"/>
        <pt x="658" y="1646" on="1"/>
        <pt x="630" y="1469" on="1"/>
        <pt x="575" y="1260" on="1"/>
        <pt x="869" y="1260" on="1"/>
        <pt x="852" y="1146" on="1"/>
        <pt x="575" y="1146" on="1"/>
        <pt x="563" y="981" on="1"/>
        <pt x="509" y="764" on="1"/>
        <pt x="757" y="764" on="1"/>
        <pt x="741" y="650" on="1"/>
        <pt x="501" y="649" on="1"/>
        <pt x="488" y="510" on="1"/>
        <pt x="380" y="-51" on="1"/>
        <pt x="292" y="-51" on="1"/>
      </contour>
    </TTGlyph>
    <TTGlyph name="dcaron" xMin="79" yMin="-16" xMax="1437" yMax="1659">
      <component glyphName="d" x="0" y="0" flags="0x1004"/>
      <component glyphName="caronvertical" x="1029" y="-21" flags="0x1004"/>
    </TTGlyph>
    <TTGlyph name="dcroat" xMin="79" yMin="-16" xMax="1224" yMax="1637">
      <contour>
        <pt x="520" y="1123" on="1"/>
        <pt x="609" y="1156" on="0"/>
        <pt x="801" y="1156" on="0"/>
        <pt x="896" y="1131" on="1"/>
        <pt x="918" y="1292" on="1"/>
        <pt x="629" y="1292" on="1"/>
        <pt x="642" y="1392" on="1"/>
        <pt x="932" y="1392" on="1"/>
        <pt x="966" y="1637" on="1"/>
        <pt x="1114" y="1637" on="1"/>
        <pt x="1080" y="1392" on="1"/>
        <pt x="1224" y="1392" on="1"/>
        <pt x="1211" y="1292" on="1"/>
        <pt x="1067" y="1292" on="1"/>
        <pt x="890" y="0" on="1"/>
        <pt x="758" y="0" on="1"/>
        <pt x="778" y="208" on="1"/>
        <pt x="674" y="59" on="0"/>
        <pt x="517" y="4" on="1"/>
        <pt x="460" y="-16" on="0"/>
        <pt x="316" y="-16" on="0"/>
        <pt x="196" y="47" on="0"/>
        <pt x="156" y="104" on="1"/>
        <pt x="79" y="216" on="0"/>
        <pt x="79" y="416" on="1"/>
        <pt x="79" y="685" on="0"/>
        <pt x="234" y="904" on="1"/>
        <pt x="344" y="1058" on="0"/>
      </contour>
      <contour>
        <pt x="233" y="434" on="1"/>
        <pt x="233" y="100" on="0"/>
        <pt x="423" y="100" on="1"/>
        <pt x="532" y="100" on="0"/>
        <pt x="644" y="192" on="1"/>
        <pt x="729" y="263" on="0"/>
        <pt x="791" y="363" on="1"/>
        <pt x="880" y="1011" on="1"/>
        <pt x="797" y="1047" on="0"/>
        <pt x="618" y="1047" on="0"/>
        <pt x="489" y="992" on="0"/>
        <pt x="386" y="898" on="0"/>
        <pt x="309" y="775" on="0"/>
        <pt x="284" y="707" on="1"/>
        <pt x="233" y="572" on="0"/>
      </contour>
    </TTGlyph>
    <TTGlyph name="degree" xMin="147" yMin="955" xMax="801" yMax="1600">
      <contour>
        <pt x="464" y="955" on="1"/>
        <pt x="395" y="955" on="0"/>
        <pt x="336" y="980" on="1"/>
        <pt x="218" y="1032" on="0"/>
        <pt x="170" y="1154" on="1"/>
        <pt x="147" y="1211" on="0"/>
        <pt x="147" y="1243" on="1"/>
        <pt x="147" y="1346" on="0"/>
        <pt x="200" y="1465" on="0"/>
        <pt x="244" y="1508" on="1"/>
        <pt x="340" y="1600" on="0"/>
        <pt x="482" y="1600" on="1"/>
        <pt x="619" y="1600" on="0"/>
        <pt x="712" y="1506" on="1"/>
        <pt x="801" y="1415" on="0"/>
        <pt x="801" y="1284" on="1"/>
        <pt x="801" y="1143" on="0"/>
        <pt x="702" y="1048" on="1"/>
        <pt x="606" y="955" on="0"/>
      </contour>
      <contour>
        <pt x="470" y="1048" on="1"/>
        <pt x="517" y="1048" on="0"/>
        <pt x="599" y="1083" on="0"/>
        <pt x="629" y="1114" on="1"/>
        <pt x="693" y="1180" on="0"/>
        <pt x="693" y="1285" on="1"/>
        <pt x="693" y="1378" on="0"/>
        <pt x="633" y="1442" on="1"/>
        <pt x="571" y="1507" on="0"/>
        <pt x="478" y="1507" on="1"/>
        <pt x="382" y="1507" on="0"/>
        <pt x="318" y="1442" on="1"/>
        <pt x="255" y="1376" on="0"/>
        <pt x="255" y="1273" on="1"/>
        <pt x="255" y="1181" on="0"/>
        <pt x="314" y="1116" on="1"/>
        <pt x="376" y="1048" on="0"/>
      </contour>
    </TTGlyph>
    <TTGlyph name="dieresis" xMin="95" yMin="1410" xMax="719" yMax="1623">
      <contour>
        <pt x="564" y="1410" on="0"/>
        <pt x="516" y="1462" on="0"/>
        <pt x="516" y="1499" on="1"/>
        <pt x="516" y="1582" on="0"/>
        <pt x="587" y="1614" on="1"/>
        <pt x="607" y="1623" on="0"/>
        <pt x="672" y="1623" on="0"/>
        <pt x="719" y="1572" on="0"/>
        <pt x="719" y="1535" on="1"/>
        <pt x="719" y="1481" on="0"/>
        <pt x="682" y="1444" on="1"/>
        <pt x="648" y="1410" on="0"/>
      </contour>
      <contour>
        <pt x="143" y="1410" on="0"/>
        <pt x="95" y="1462" on="0"/>
        <pt x="95" y="1499" on="1"/>
        <pt x="95" y="1582" on="0"/>
        <pt x="166" y="1614" on="1"/>
        <pt x="186" y="1623" on="0"/>
        <pt x="251" y="1623" on="0"/>
        <pt x="298" y="1572" on="0"/>
        <pt x="298" y="1535" on="1"/>
        <pt x="298" y="1481" on="0"/>
        <pt x="261" y="1444" on="1"/>
        <pt x="227" y="1410" on="0"/>
      </contour>
    </TTGlyph>
    <TTGlyph name="dieresis.cap" xMin="87" yMin="1721" xMax="709" yMax="1935">
      <contour>
        <pt x="656" y="1740" on="0"/>
        <pt x="615" y="1721" on="0"/>
        <pt x="555" y="1721" on="0"/>
        <pt x="506" y="1774" on="0"/>
        <pt x="506" y="1843" on="0"/>
        <pt x="527" y="1886" on="0"/>
        <pt x="544" y="1902" on="1"/>
        <pt x="579" y="1935" on="0"/>
        <pt x="663" y="1935" on="0"/>
        <pt x="709" y="1885" on="0"/>
        <pt x="709" y="1845" on="0"/>
        <pt x="707" y="1815" on="0"/>
        <pt x="688" y="1772" on="0"/>
      </contour>
      <contour>
        <pt x="135" y="1721" on="0"/>
        <pt x="87" y="1774" on="0"/>
        <pt x="87" y="1813" on="1"/>
        <pt x="87" y="1864" on="0"/>
        <pt x="124" y="1902" on="1"/>
        <pt x="158" y="1935" on="0"/>
        <pt x="242" y="1935" on="0"/>
        <pt x="289" y="1884" on="0"/>
        <pt x="289" y="1846" on="1"/>
        <pt x="289" y="1795" on="0"/>
        <pt x="252" y="1756" on="1"/>
        <pt x="218" y="1721" on="0"/>
      </contour>
    </TTGlyph>
    <TTGlyph name="divide" xMin="243" yMin="277" xMax="1126" yMax="1270">
      <contour>
        <pt x="759" y="1270" on="1"/>
        <pt x="850" y="1270" on="0"/>
        <pt x="850" y="1188" on="1"/>
        <pt x="850" y="1122" on="0"/>
        <pt x="802" y="1082" on="1"/>
        <pt x="764" y="1050" on="0"/>
        <pt x="696" y="1050" on="0"/>
        <pt x="660" y="1063" on="0"/>
        <pt x="647" y="1076" on="1"/>
        <pt x="619" y="1104" on="0"/>
        <pt x="628" y="1179" on="0"/>
        <pt x="654" y="1222" on="0"/>
        <pt x="673" y="1238" on="1"/>
        <pt x="713" y="1270" on="0"/>
      </contour>
      <contour>
        <pt x="257" y="836" on="1"/>
        <pt x="1126" y="836" on="1"/>
        <pt x="1112" y="714" on="1"/>
        <pt x="243" y="714" on="1"/>
      </contour>
      <contour>
        <pt x="664" y="497" on="1"/>
        <pt x="754" y="497" on="0"/>
        <pt x="754" y="415" on="1"/>
        <pt x="754" y="350" on="0"/>
        <pt x="706" y="308" on="1"/>
        <pt x="669" y="277" on="0"/>
        <pt x="600" y="277" on="0"/>
        <pt x="582" y="284" on="1"/>
        <pt x="529" y="303" on="0"/>
        <pt x="529" y="363" on="1"/>
        <pt x="529" y="425" on="0"/>
        <pt x="578" y="464" on="1"/>
        <pt x="618" y="497" on="0"/>
      </contour>
    </TTGlyph>
    <TTGlyph name="dollar" xMin="128" yMin="-230" xMax="1090" yMax="1729">
      <contour>
        <pt x="170" y="191" on="1"/>
        <pt x="222" y="135" on="0"/>
        <pt x="398" y="106" on="1"/>
        <pt x="452" y="97" on="0"/>
        <pt x="575" y="97" on="0"/>
        <pt x="704" y="129" on="0"/>
        <pt x="754" y="163" on="1"/>
        <pt x="864" y="238" on="0"/>
        <pt x="864" y="374" on="1"/>
        <pt x="864" y="517" on="0"/>
        <pt x="724" y="628" on="1"/>
        <pt x="679" y="665" on="0"/>
        <pt x="565" y="739" on="0"/>
        <pt x="448" y="823" on="0"/>
        <pt x="400" y="876" on="1"/>
        <pt x="286" y="1000" on="0"/>
        <pt x="286" y="1161" on="1"/>
        <pt x="286" y="1326" on="0"/>
        <pt x="399" y="1429" on="1"/>
        <pt x="511" y="1531" on="0"/>
        <pt x="695" y="1543" on="1"/>
        <pt x="725" y="1729" on="1"/>
        <pt x="862" y="1729" on="1"/>
        <pt x="832" y="1541" on="1"/>
        <pt x="993" y="1526" on="0"/>
        <pt x="1090" y="1461" on="1"/>
        <pt x="1042" y="1346" on="1"/>
        <pt x="982" y="1406" on="0"/>
        <pt x="836" y="1424" on="1"/>
        <pt x="794" y="1430" on="0"/>
        <pt x="708" y="1430" on="0"/>
        <pt x="599" y="1411" on="0"/>
        <pt x="552" y="1384" on="1"/>
        <pt x="437" y="1321" on="0"/>
        <pt x="437" y="1177" on="1"/>
        <pt x="437" y="1017" on="0"/>
        <pt x="598" y="900" on="1"/>
        <pt x="649" y="863" on="0"/>
        <pt x="706" y="826" on="1"/>
        <pt x="818" y="748" on="1"/>
        <pt x="1020" y="602" on="0"/>
        <pt x="1020" y="405" on="1"/>
        <pt x="1020" y="221" on="0"/>
        <pt x="898" y="109" on="1"/>
        <pt x="781" y="2" on="0"/>
        <pt x="578" y="-17" on="1"/>
        <pt x="543" y="-230" on="1"/>
        <pt x="406" y="-230" on="1"/>
        <pt x="440" y="-18" on="1"/>
        <pt x="275" y="-6" on="0"/>
        <pt x="173" y="42" on="1"/>
        <pt x="143" y="56" on="0"/>
        <pt x="128" y="68" on="1"/>
      </contour>
    </TTGlyph>
    <TTGlyph name="dotaccent" xMin="61" yMin="1426" xMax="264" yMax="1640">
      <contour>
        <pt x="190" y="1436" on="1"/>
        <pt x="170" y="1426" on="0"/>
        <pt x="128" y="1426" on="0"/>
        <pt x="112" y="1434" on="1"/>
        <pt x="61" y="1457" on="0"/>
        <pt x="61" y="1515" on="1"/>
        <pt x="61" y="1520" on="0"/>
        <pt x="62" y="1549" on="0"/>
        <pt x="81" y="1591" on="0"/>
        <pt x="96" y="1606" on="1"/>
        <pt x="130" y="1640" on="0"/>
        <pt x="217" y="1640" on="0"/>
        <pt x="264" y="1589" on="0"/>
        <pt x="264" y="1552" on="1"/>
        <pt x="264" y="1470" on="0"/>
      </contour>
    </TTGlyph>
    <TTGlyph name="dotaccent.cap" xMin="59" yMin="1707" xMax="260" yMax="1920">
      <contour>
        <pt x="106" y="1707" on="0"/>
        <pt x="59" y="1759" on="0"/>
        <pt x="59" y="1796" on="1"/>
        <pt x="59" y="1877" on="0"/>
        <pt x="131" y="1911" on="1"/>
        <pt x="150" y="1920" on="0"/>
        <pt x="214" y="1920" on="0"/>
        <pt x="260" y="1869" on="0"/>
        <pt x="260" y="1831" on="1"/>
        <pt x="260" y="1778" on="0"/>
        <pt x="223" y="1741" on="1"/>
        <pt x="189" y="1707" on="0"/>
      </contour>
    </TTGlyph>
    <TTGlyph name="dotlessi" xMin="133" yMin="0" xMax="436" yMax="1144">
      <contour>
        <pt x="287" y="1144" on="1"/>
        <pt x="436" y="1144" on="1"/>
        <pt x="281" y="0" on="1"/>
        <pt x="133" y="0" on="1"/>
      </contour>
    </TTGlyph>
    <TTGlyph name="dotlessj" xMin="-244" yMin="-515" xMax="444" yMax="1144">
      <contour>
        <pt x="-204" y="-391" on="1"/>
        <pt x="-179" y="-411" on="0"/>
        <pt x="-58" y="-411" on="0"/>
        <pt x="37" y="-339" on="0"/>
        <pt x="68" y="-276" on="1"/>
        <pt x="119" y="-173" on="0"/>
        <pt x="149" y="59" on="1"/>
        <pt x="295" y="1144" on="1"/>
        <pt x="444" y="1144" on="1"/>
        <pt x="291" y="5" on="1"/>
        <pt x="238" y="-375" on="0"/>
        <pt x="40" y="-480" on="1"/>
        <pt x="-27" y="-515" on="0"/>
        <pt x="-92" y="-515" on="1"/>
        <pt x="-192" y="-515" on="0"/>
        <pt x="-244" y="-477" on="1"/>
      </contour>
    </TTGlyph>
    <TTGlyph name="e" xMin="90" yMin="-16" xMax="959" yMax="1156">
      <contour>
        <pt x="496" y="102" on="1"/>
        <pt x="676" y="102" on="0"/>
        <pt x="844" y="272" on="1"/>
        <pt x="887" y="186" on="1"/>
        <pt x="837" y="115" on="0"/>
        <pt x="734" y="56" on="1"/>
        <pt x="610" y="-16" on="0"/>
        <pt x="371" y="-16" on="0"/>
        <pt x="296" y="24" on="1"/>
        <pt x="90" y="133" on="0"/>
        <pt x="90" y="425" on="1"/>
        <pt x="90" y="578" on="0"/>
        <pt x="183" y="851" on="0"/>
        <pt x="260" y="948" on="1"/>
        <pt x="428" y="1156" on="0"/>
        <pt x="680" y="1156" on="1"/>
        <pt x="885" y="1156" on="0"/>
        <pt x="942" y="1004" on="1"/>
        <pt x="959" y="959" on="0"/>
        <pt x="959" y="823" on="0"/>
        <pt x="886" y="692" on="0"/>
        <pt x="766" y="591" on="0"/>
        <pt x="613" y="519" on="0"/>
        <pt x="534" y="495" on="1"/>
        <pt x="387" y="450" on="0"/>
        <pt x="247" y="443" on="1"/>
        <pt x="246" y="428" on="0"/>
        <pt x="246" y="369" on="0"/>
        <pt x="261" y="264" on="0"/>
        <pt x="289" y="214" on="1"/>
        <pt x="353" y="102" on="0"/>
      </contour>
      <contour>
        <pt x="252" y="550" on="1"/>
        <pt x="446" y="557" on="0"/>
        <pt x="616" y="646" on="1"/>
        <pt x="810" y="747" on="0"/>
        <pt x="810" y="1043" on="0"/>
        <pt x="490" y="1043" on="0"/>
        <pt x="268" y="734" on="0"/>
      </contour>
    </TTGlyph>
    <TTGlyph name="eacute" xMin="90" yMin="-16" xMax="972" yMax="1704">
      <component glyphName="acute" x="491" y="0" flags="0x1004"/>
      <component glyphName="e" x="0" y="0" flags="0x1004"/>
    </TTGlyph>
    <TTGlyph name="ebreve" xMin="90" yMin="-16" xMax="980" yMax="1648">
      <component glyphName="e" x="0" y="0" flags="0x1204"/>
      <component glyphName="breve" x="297" y="0" flags="0x1004"/>
    </TTGlyph>
    <TTGlyph name="ecaron" xMin="90" yMin="-16" xMax="1040" yMax="1650">
      <component glyphName="caron" x="278" y="0" flags="0x1004"/>
      <component glyphName="e" x="0" y="0" flags="0x1004"/>
    </TTGlyph>
    <TTGlyph name="ecircumflex" xMin="90" yMin="-16" xMax="973" yMax="1650">
      <component glyphName="circumflex" x="233" y="0" flags="0x1004"/>
      <component glyphName="e" x="0" y="0" flags="0x1004"/>
    </TTGlyph>
    <TTGlyph name="edieresis" xMin="90" yMin="-16" xMax="979" yMax="1623">
      <component glyphName="dieresis" x="260" y="0" flags="0x1004"/>
      <component glyphName="e" x="0" y="0" flags="0x1004"/>
    </TTGlyph>
    <TTGlyph name="edotaccent" xMin="90" yMin="-16" xMax="959" yMax="1640">
      <component glyphName="e" x="0" y="0" flags="0x1204"/>
      <component glyphName="dotaccent" x="505" y="0" flags="0x1004"/>
    </TTGlyph>
    <TTGlyph name="egrave" xMin="90" yMin="-16" xMax="959" yMax="1701">
      <component glyphName="e" x="0" y="0" flags="0x1204"/>
      <component glyphName="grave" x="215" y="0" flags="0x1004"/>
    </TTGlyph>
    <TTGlyph name="eight" xMin="120" yMin="-17" xMax="1132" yMax="1569">
      <contour>
        <pt x="120" y="343" on="1"/>
        <pt x="120" y="431" on="0"/>
        <pt x="191" y="576" on="0"/>
        <pt x="248" y="636" on="1"/>
        <pt x="354" y="749" on="0"/>
        <pt x="517" y="820" on="1"/>
        <pt x="416" y="898" on="0"/>
        <pt x="376" y="954" on="1"/>
        <pt x="296" y="1062" on="0"/>
        <pt x="296" y="1268" on="0"/>
        <pt x="368" y="1416" on="0"/>
        <pt x="430" y="1466" on="1"/>
        <pt x="556" y="1569" on="0"/>
        <pt x="758" y="1569" on="1"/>
        <pt x="920" y="1569" on="0"/>
        <pt x="1024" y="1482" on="1"/>
        <pt x="1132" y="1391" on="0"/>
        <pt x="1132" y="1243" on="1"/>
        <pt x="1132" y="1101" on="0"/>
        <pt x="1022" y="977" on="1"/>
        <pt x="921" y="862" on="0"/>
        <pt x="762" y="805" on="1"/>
        <pt x="898" y="711" on="0"/>
        <pt x="953" y="645" on="1"/>
        <pt x="1062" y="516" on="0"/>
        <pt x="1062" y="303" on="0"/>
        <pt x="980" y="148" on="0"/>
        <pt x="910" y="94" on="1"/>
        <pt x="765" y="-17" on="0"/>
        <pt x="546" y="-17" on="1"/>
        <pt x="378" y="-17" on="0"/>
        <pt x="256" y="73" on="1"/>
        <pt x="120" y="175" on="0"/>
      </contour>
      <contour>
        <pt x="683" y="864" on="1"/>
        <pt x="881" y="953" on="0"/>
        <pt x="954" y="1108" on="1"/>
        <pt x="982" y="1165" on="0"/>
        <pt x="982" y="1292" on="0"/>
        <pt x="942" y="1381" on="0"/>
        <pt x="908" y="1411" on="1"/>
        <pt x="843" y="1470" on="0"/>
        <pt x="741" y="1470" on="1"/>
        <pt x="618" y="1470" on="0"/>
        <pt x="534" y="1394" on="1"/>
        <pt x="449" y="1316" on="0"/>
        <pt x="449" y="1198" on="1"/>
        <pt x="449" y="1057" on="0"/>
        <pt x="594" y="933" on="1"/>
        <pt x="636" y="897" on="0"/>
      </contour>
      <contour>
        <pt x="282" y="372" on="1"/>
        <pt x="281" y="307" on="0"/>
        <pt x="320" y="205" on="0"/>
        <pt x="358" y="168" on="1"/>
        <pt x="438" y="87" on="0"/>
        <pt x="573" y="87" on="1"/>
        <pt x="706" y="87" on="0"/>
        <pt x="800" y="166" on="1"/>
        <pt x="899" y="248" on="0"/>
        <pt x="899" y="373" on="1"/>
        <pt x="899" y="527" on="0"/>
        <pt x="716" y="675" on="1"/>
        <pt x="661" y="720" on="0"/>
        <pt x="597" y="763" on="1"/>
        <pt x="474" y="705" on="0"/>
        <pt x="387" y="610" on="1"/>
        <pt x="282" y="495" on="0"/>
      </contour>
    </TTGlyph>
    <TTGlyph name="ellipsis" xMin="105" yMin="-17" xMax="1324" yMax="203">
      <contour>
        <pt x="1234" y="203" on="1"/>
        <pt x="1324" y="203" on="0"/>
        <pt x="1324" y="121" on="1"/>
        <pt x="1324" y="52" on="0"/>
        <pt x="1241" y="-17" on="0"/>
        <pt x="1153" y="-17" on="0"/>
        <pt x="1110" y="28" on="0"/>
        <pt x="1110" y="51" on="1"/>
        <pt x="1110" y="129" on="0"/>
        <pt x="1189" y="203" on="0"/>
      </contour>
      <contour>
        <pt x="731" y="203" on="1"/>
        <pt x="822" y="203" on="0"/>
        <pt x="822" y="121" on="1"/>
        <pt x="822" y="53" on="0"/>
        <pt x="738" y="-17" on="0"/>
        <pt x="650" y="-17" on="0"/>
        <pt x="608" y="28" on="0"/>
        <pt x="608" y="51" on="1"/>
        <pt x="608" y="130" on="0"/>
        <pt x="687" y="203" on="0"/>
      </contour>
      <contour>
        <pt x="228" y="203" on="1"/>
        <pt x="319" y="203" on="0"/>
        <pt x="319" y="121" on="1"/>
        <pt x="319" y="54" on="0"/>
        <pt x="272" y="14" on="1"/>
        <pt x="236" y="-17" on="0"/>
        <pt x="148" y="-17" on="0"/>
        <pt x="105" y="28" on="0"/>
        <pt x="105" y="51" on="1"/>
        <pt x="105" y="130" on="0"/>
        <pt x="184" y="203" on="0"/>
      </contour>
    </TTGlyph>
    <TTGlyph name="emacron" xMin="90" yMin="-16" xMax="959" yMax="1548">
      <component glyphName="e" x="0" y="0" flags="0x1204"/>
      <component glyphName="macron" x="329" y="0" flags="0x1004"/>
    </TTGlyph>
    <TTGlyph name="emdash" xMin="220" yMin="712" xMax="1833" yMax="833">
      <contour>
        <pt x="242" y="833" on="1"/>
        <pt x="1833" y="833" on="1"/>
        <pt x="1810" y="712" on="1"/>
        <pt x="220" y="712" on="1"/>
      </contour>
    </TTGlyph>
    <TTGlyph name="endash" xMin="220" yMin="712" xMax="1340" yMax="833">
      <contour>
        <pt x="243" y="833" on="1"/>
        <pt x="1340" y="833" on="1"/>
        <pt x="1317" y="712" on="1"/>
        <pt x="220" y="712" on="1"/>
      </contour>
    </TTGlyph>
    <TTGlyph name="eng" xMin="93" yMin="-518" xMax="1061" yMax="1156">
      <contour>
        <pt x="385" y="-416" on="1"/>
        <pt x="423" y="-437" on="0"/>
        <pt x="555" y="-437" on="0"/>
        <pt x="663" y="-355" on="0"/>
        <pt x="700" y="-287" on="1"/>
        <pt x="763" y="-173" on="0"/>
        <pt x="799" y="49" on="1"/>
        <pt x="809" y="114" on="0"/>
        <pt x="822" y="188" on="1"/>
        <pt x="870" y="487" on="1"/>
        <pt x="909" y="745" on="0"/>
        <pt x="909" y="936" on="0"/>
        <pt x="850" y="1019" on="0"/>
        <pt x="725" y="1019" on="0"/>
        <pt x="607" y="966" on="0"/>
        <pt x="548" y="923" on="1"/>
        <pt x="421" y="832" on="0"/>
        <pt x="338" y="713" on="1"/>
        <pt x="241" y="0" on="1"/>
        <pt x="93" y="0" on="1"/>
        <pt x="248" y="1140" on="1"/>
        <pt x="389" y="1140" on="1"/>
        <pt x="359" y="872" on="1"/>
        <pt x="513" y="1063" on="0"/>
        <pt x="706" y="1132" on="1"/>
        <pt x="771" y="1156" on="0"/>
        <pt x="836" y="1156" on="1"/>
        <pt x="949" y="1156" on="0"/>
        <pt x="1061" y="1018" on="0"/>
        <pt x="1061" y="863" on="1"/>
        <pt x="1058" y="751" on="0"/>
        <pt x="1033" y="582" on="1"/>
        <pt x="985" y="275" on="0"/>
        <pt x="969" y="178" on="1"/>
        <pt x="940" y="0" on="1"/>
        <pt x="878" y="-389" on="0"/>
        <pt x="660" y="-486" on="1"/>
        <pt x="589" y="-518" on="0"/>
        <pt x="523" y="-518" on="1"/>
        <pt x="396" y="-518" on="0"/>
        <pt x="358" y="-478" on="1"/>
      </contour>
    </TTGlyph>
    <TTGlyph name="eogonek" xMin="90" yMin="-435" xMax="959" yMax="1156">
      <contour>
        <pt x="607" y="2" on="1"/>
        <pt x="540" y="-16" on="0"/>
        <pt x="371" y="-16" on="0"/>
        <pt x="296" y="24" on="1"/>
        <pt x="90" y="133" on="0"/>
        <pt x="90" y="425" on="1"/>
        <pt x="90" y="578" on="0"/>
        <pt x="183" y="851" on="0"/>
        <pt x="260" y="948" on="1"/>
        <pt x="428" y="1156" on="0"/>
        <pt x="680" y="1156" on="1"/>
        <pt x="885" y="1156" on="0"/>
        <pt x="942" y="1004" on="1"/>
        <pt x="959" y="959" on="0"/>
        <pt x="959" y="823" on="0"/>
        <pt x="886" y="692" on="0"/>
        <pt x="766" y="591" on="0"/>
        <pt x="613" y="519" on="0"/>
        <pt x="534" y="495" on="1"/>
        <pt x="387" y="450" on="0"/>
        <pt x="247" y="443" on="1"/>
        <pt x="246" y="428" on="0"/>
        <pt x="246" y="369" on="0"/>
        <pt x="261" y="264" on="0"/>
        <pt x="289" y="214" on="1"/>
        <pt x="353" y="102" on="0"/>
        <pt x="496" y="102" on="1"/>
        <pt x="676" y="102" on="0"/>
        <pt x="844" y="272" on="1"/>
        <pt x="887" y="186" on="1"/>
        <pt x="865" y="154" on="0"/>
        <pt x="824" y="119" on="1"/>
        <pt x="828" y="121" on="1"/>
        <pt x="813" y="106" on="0"/>
        <pt x="784" y="80" on="1"/>
        <pt x="634" y="-56" on="0"/>
        <pt x="591" y="-105" on="1"/>
        <pt x="509" y="-200" on="0"/>
        <pt x="509" y="-281" on="0"/>
        <pt x="559" y="-322" on="0"/>
        <pt x="597" y="-322" on="1"/>
        <pt x="680" y="-322" on="0"/>
        <pt x="755" y="-263" on="1"/>
        <pt x="795" y="-341" on="1"/>
        <pt x="688" y="-435" on="0"/>
        <pt x="549" y="-435" on="1"/>
        <pt x="456" y="-435" on="0"/>
        <pt x="404" y="-382" on="1"/>
        <pt x="361" y="-340" on="0"/>
        <pt x="361" y="-241" on="0"/>
        <pt x="412" y="-157" on="0"/>
        <pt x="450" y="-120" on="1"/>
        <pt x="510" y="-59" on="0"/>
      </contour>
      <contour>
        <pt x="252" y="550" on="1"/>
        <pt x="446" y="557" on="0"/>
        <pt x="616" y="646" on="1"/>
        <pt x="810" y="747" on="0"/>
        <pt x="810" y="1043" on="0"/>
        <pt x="490" y="1043" on="0"/>
        <pt x="268" y="734" on="0"/>
      </contour>
    </TTGlyph>
    <TTGlyph name="equal" xMin="99" yMin="358" xMax="997" yMax="987">
      <contour>
        <pt x="182" y="987" on="1"/>
        <pt x="997" y="987" on="1"/>
        <pt x="983" y="867" on="1"/>
        <pt x="169" y="867" on="1"/>
      </contour>
      <contour>
        <pt x="112" y="478" on="1"/>
        <pt x="927" y="478" on="1"/>
        <pt x="913" y="358" on="1"/>
        <pt x="99" y="358" on="1"/>
      </contour>
    </TTGlyph>
    <TTGlyph name="estimated" xMin="113" yMin="-16" xMax="1278" yMax="1356">
      <contour>
        <pt x="1278" y="832" on="1"/>
        <pt x="1278" y="683" on="0"/>
        <pt x="1267" y="631" on="1"/>
        <pt x="340" y="631" on="1"/>
        <pt x="340" y="266" on="1"/>
        <pt x="464" y="74" on="0"/>
        <pt x="753" y="74" on="1"/>
        <pt x="901" y="74" on="0"/>
        <pt x="1060" y="138" on="1"/>
        <pt x="1102" y="154" on="0"/>
        <pt x="1128" y="169" on="1"/>
        <pt x="1158" y="82" on="1"/>
        <pt x="1063" y="14" on="0"/>
        <pt x="848" y="-10" on="1"/>
        <pt x="788" y="-16" on="0"/>
        <pt x="736" y="-16" on="1"/>
        <pt x="444" y="-16" on="0"/>
        <pt x="278" y="166" on="1"/>
        <pt x="113" y="347" on="0"/>
        <pt x="113" y="671" on="1"/>
        <pt x="113" y="975" on="0"/>
        <pt x="270" y="1158" on="1"/>
        <pt x="441" y="1356" on="0"/>
        <pt x="751" y="1356" on="1"/>
        <pt x="966" y="1356" on="0"/>
        <pt x="1113" y="1219" on="1"/>
        <pt x="1270" y="1073" on="0"/>
      </contour>
      <contour>
        <pt x="730" y="1266" on="1"/>
        <pt x="466" y="1266" on="0"/>
        <pt x="340" y="1064" on="1"/>
        <pt x="340" y="737" on="1"/>
        <pt x="1066" y="737" on="1"/>
        <pt x="1066" y="1117" on="1"/>
        <pt x="962" y="1266" on="0"/>
      </contour>
    </TTGlyph>
    <TTGlyph name="eth" xMin="89" yMin="-17" xMax="1065" yMax="1816">
      <contour>
        <pt x="382" y="1769" on="1"/>
        <pt x="515" y="1736" on="0"/>
        <pt x="673" y="1632" on="1"/>
        <pt x="831" y="1816" on="1"/>
        <pt x="907" y="1747" on="1"/>
        <pt x="755" y="1572" on="1"/>
        <pt x="762" y="1566" on="1"/>
        <pt x="1065" y="1284" on="0"/>
        <pt x="1065" y="868" on="1"/>
        <pt x="1065" y="494" on="0"/>
        <pt x="918" y="246" on="1"/>
        <pt x="818" y="80" on="0"/>
        <pt x="662" y="16" on="1"/>
        <pt x="583" y="-17" on="0"/>
        <pt x="387" y="-17" on="0"/>
        <pt x="237" y="65" on="0"/>
        <pt x="188" y="130" on="1"/>
        <pt x="89" y="259" on="0"/>
        <pt x="89" y="606" on="0"/>
        <pt x="183" y="873" on="0"/>
        <pt x="338" y="1058" on="0"/>
        <pt x="538" y="1155" on="0"/>
        <pt x="645" y="1155" on="1"/>
        <pt x="784" y="1155" on="0"/>
        <pt x="873" y="1092" on="1"/>
        <pt x="903" y="1070" on="0"/>
        <pt x="921" y="1041" on="1"/>
        <pt x="899" y="1188" on="0"/>
        <pt x="856" y="1266" on="1"/>
        <pt x="787" y="1392" on="0"/>
        <pt x="680" y="1487" on="1"/>
        <pt x="520" y="1308" on="1"/>
        <pt x="438" y="1376" on="1"/>
        <pt x="601" y="1548" on="1"/>
        <pt x="455" y="1652" on="0"/>
        <pt x="348" y="1677" on="1"/>
      </contour>
      <contour>
        <pt x="301" y="771" on="0"/>
        <pt x="249" y="548" on="0"/>
        <pt x="249" y="363" on="0"/>
        <pt x="283" y="240" on="0"/>
        <pt x="316" y="192" on="1"/>
        <pt x="389" y="88" on="0"/>
        <pt x="510" y="88" on="1"/>
        <pt x="652" y="88" on="0"/>
        <pt x="760" y="242" on="1"/>
        <pt x="863" y="390" on="0"/>
        <pt x="894" y="615" on="1"/>
        <pt x="897" y="644" on="0"/>
        <pt x="901" y="676" on="1"/>
        <pt x="913" y="777" on="0"/>
        <pt x="913" y="832" on="0"/>
        <pt x="910" y="859" on="0"/>
        <pt x="876" y="930" on="0"/>
        <pt x="843" y="964" on="1"/>
        <pt x="762" y="1047" on="0"/>
        <pt x="547" y="1047" on="0"/>
        <pt x="402" y="943" on="0"/>
      </contour>
    </TTGlyph>
    <TTGlyph name="exclam" xMin="131" yMin="-17" xMax="571" yMax="1778">
      <contour>
        <pt x="399" y="1778" on="1"/>
        <pt x="571" y="1778" on="1"/>
        <pt x="356" y="488" on="1"/>
        <pt x="236" y="488" on="1"/>
      </contour>
      <contour>
        <pt x="267" y="203" on="1"/>
        <pt x="358" y="203" on="0"/>
        <pt x="358" y="120" on="1"/>
        <pt x="358" y="51" on="0"/>
        <pt x="272" y="-17" on="0"/>
        <pt x="201" y="-17" on="0"/>
        <pt x="183" y="-10" on="1"/>
        <pt x="131" y="8" on="0"/>
        <pt x="131" y="68" on="1"/>
        <pt x="131" y="131" on="0"/>
        <pt x="178" y="170" on="1"/>
        <pt x="217" y="203" on="0"/>
      </contour>
    </TTGlyph>
    <TTGlyph name="exclamdbl" xMin="131" yMin="-17" xMax="1146" yMax="1778">
      <component glyphName="exclam" x="575" y="0" flags="0x1004"/>
      <component glyphName="exclam" x="0" y="0" flags="0x1004"/>
    </TTGlyph>
    <TTGlyph name="exclamdown" xMin="84" yMin="-434" xMax="524" yMax="1361">
      <component glyphName="exclam" x="655" y="1344" scale="-0.999938964844" flags="0x1004"/>
    </TTGlyph>
    <TTGlyph name="f" xMin="152" yMin="0" xMax="889" yMax="1678">
      <contour>
        <pt x="851" y="1531" on="1"/>
        <pt x="806" y="1562" on="0"/>
        <pt x="729" y="1562" on="1"/>
        <pt x="724" y="1562" on="0"/>
        <pt x="672" y="1562" on="0"/>
        <pt x="594" y="1520" on="0"/>
        <pt x="564" y="1485" on="1"/>
        <pt x="504" y="1414" on="0"/>
        <pt x="490" y="1302" on="1"/>
        <pt x="469" y="1140" on="1"/>
        <pt x="712" y="1140" on="1"/>
        <pt x="703" y="1021" on="1"/>
        <pt x="453" y="1021" on="1"/>
        <pt x="315" y="0" on="1"/>
        <pt x="167" y="0" on="1"/>
        <pt x="304" y="1021" on="1"/>
        <pt x="152" y="1021" on="1"/>
        <pt x="174" y="1139" on="1"/>
        <pt x="320" y="1140" on="1"/>
        <pt x="338" y="1264" on="1"/>
        <pt x="363" y="1452" on="0"/>
        <pt x="464" y="1563" on="1"/>
        <pt x="570" y="1678" on="0"/>
        <pt x="738" y="1678" on="1"/>
        <pt x="832" y="1678" on="0"/>
        <pt x="889" y="1652" on="1"/>
      </contour>
    </TTGlyph>
    <TTGlyph name="f_f" xMin="152" yMin="0" xMax="1584" yMax="1678">
      <component glyphName="f" x="0" y="0" flags="0x1004"/>
      <component glyphName="f" x="695" y="0" flags="0x1004"/>
    </TTGlyph>
    <TTGlyph name="f_f_i" xMin="152" yMin="0" xMax="1909" yMax="1678">
      <component glyphName="dotlessi" x="1389" y="0" flags="0x1004"/>
      <component glyphName="dotaccent" x="1645" y="0" flags="0x1004"/>
      <component glyphName="f" x="0" y="0" flags="0x1004"/>
      <component glyphName="f" x="695" y="0" flags="0x1004"/>
    </TTGlyph>
    <TTGlyph name="f_f_l" xMin="152" yMin="0" xMax="1893" yMax="1678">
      <component glyphName="l" x="1389" y="0" flags="0x1004"/>
      <component glyphName="f" x="0" y="0" flags="0x1004"/>
      <component glyphName="f" x="695" y="0" flags="0x1004"/>
    </TTGlyph>
    <TTGlyph name="f_i" xMin="152" yMin="0" xMax="1215" yMax="1678">
      <component glyphName="dotlessi" x="695" y="0" flags="0x1004"/>
      <component glyphName="dotaccent" x="951" y="0" flags="0x1004"/>
      <component glyphName="f" x="0" y="0" flags="0x1004"/>
    </TTGlyph>
    <TTGlyph name="f_l" xMin="152" yMin="0" xMax="1199" yMax="1678">
      <component glyphName="l" x="695" y="0" flags="0x1004"/>
      <component glyphName="f" x="0" y="0" flags="0x1004"/>
    </TTGlyph>
    <TTGlyph name="ffi_dflt" xMin="152" yMin="0" xMax="1909" yMax="1678">
      <component glyphName="dotlessi" x="1389" y="0" flags="0x1004"/>
      <component glyphName="dotaccent" x="1645" y="0" flags="0x1004"/>
      <component glyphName="f" x="0" y="0" flags="0x1004"/>
      <component glyphName="f" x="695" y="0" flags="0x1004"/>
    </TTGlyph>
    <TTGlyph name="fi_trk" xMin="152" yMin="0" xMax="1215" yMax="1678">
      <component glyphName="dotlessi" x="695" y="0" flags="0x1004"/>
      <component glyphName="dotaccent" x="951" y="0" flags="0x1004"/>
      <component glyphName="f" x="0" y="0" flags="0x1004"/>
    </TTGlyph>
    <TTGlyph name="five" xMin="39" yMin="-346" xMax="1039" yMax="1160">
      <contour>
        <pt x="57" y="-221" on="1"/>
        <pt x="107" y="-231" on="0"/>
        <pt x="265" y="-231" on="0"/>
        <pt x="488" y="-178" on="0"/>
        <pt x="576" y="-126" on="1"/>
        <pt x="770" y="-10" on="0"/>
        <pt x="770" y="182" on="1"/>
        <pt x="770" y="312" on="0"/>
        <pt x="636" y="460" on="0"/>
        <pt x="358" y="460" on="0"/>
        <pt x="214" y="391" on="1"/>
        <pt x="156" y="449" on="1"/>
        <pt x="310" y="1144" on="1"/>
        <pt x="892" y="1144" on="1"/>
        <pt x="911" y="1160" on="1"/>
        <pt x="1039" y="1160" on="1"/>
        <pt x="1008" y="1016" on="1"/>
        <pt x="427" y="1016" on="1"/>
        <pt x="307" y="528" on="1"/>
        <pt x="438" y="577" on="0"/>
        <pt x="666" y="577" on="0"/>
        <pt x="809" y="523" on="0"/>
        <pt x="855" y="474" on="1"/>
        <pt x="945" y="380" on="0"/>
        <pt x="945" y="210" on="1"/>
        <pt x="945" y="50" on="0"/>
        <pt x="835" y="-81" on="1"/>
        <pt x="675" y="-272" on="0"/>
        <pt x="370" y="-328" on="1"/>
        <pt x="272" y="-346" on="0"/>
        <pt x="157" y="-346" on="0"/>
        <pt x="124" y="-345" on="0"/>
        <pt x="106" y="-343" on="1"/>
        <pt x="68" y="-339" on="0"/>
        <pt x="39" y="-329" on="1"/>
      </contour>
    </TTGlyph>
    <TTGlyph name="florin" xMin="196" yMin="-356" xMax="1018" yMax="1678">
      <contour>
        <pt x="1009" y="1532" on="1"/>
        <pt x="955" y="1559" on="0"/>
        <pt x="814" y="1559" on="0"/>
        <pt x="735" y="1533" on="0"/>
        <pt x="704" y="1500" on="1"/>
        <pt x="642" y="1434" on="0"/>
        <pt x="621" y="1271" on="1"/>
        <pt x="605" y="1152" on="1"/>
        <pt x="902" y="1152" on="1"/>
        <pt x="890" y="1033" on="1"/>
        <pt x="589" y="1033" on="1"/>
        <pt x="407" y="-356" on="1"/>
        <pt x="257" y="-356" on="1"/>
        <pt x="441" y="1033" on="1"/>
        <pt x="196" y="1033" on="1"/>
        <pt x="207" y="1112" on="1"/>
        <pt x="457" y="1152" on="1"/>
        <pt x="467" y="1228" on="1"/>
        <pt x="493" y="1444" on="0"/>
        <pt x="616" y="1568" on="1"/>
        <pt x="726" y="1678" on="0"/>
        <pt x="987" y="1678" on="0"/>
        <pt x="1018" y="1661" on="1"/>
      </contour>
    </TTGlyph>
    <TTGlyph name="four" xMin="23" yMin="-375" xMax="1119" yMax="1256">
      <contour>
        <pt x="23" y="72" on="1"/>
        <pt x="23" y="72" on="0"/>
        <pt x="365" y="626" on="1"/>
        <pt x="729" y="1256" on="1"/>
        <pt x="767" y="1256" on="1"/>
        <pt x="873" y="1188" on="1"/>
        <pt x="296" y="259" on="1"/>
        <pt x="188" y="101" on="1"/>
        <pt x="712" y="114" on="1"/>
        <pt x="776" y="621" on="1"/>
        <pt x="923" y="649" on="1"/>
        <pt x="856" y="122" on="1"/>
        <pt x="1119" y="133" on="1"/>
        <pt x="1103" y="0" on="1"/>
        <pt x="840" y="0" on="1"/>
        <pt x="793" y="-375" on="1"/>
        <pt x="648" y="-375" on="1"/>
        <pt x="697" y="0" on="1"/>
        <pt x="50" y="0" on="1"/>
      </contour>
    </TTGlyph>
    <TTGlyph name="foursuperior" xMin="131" yMin="476" xMax="1118" yMax="1765">
      <contour>
        <pt x="684" y="824" on="1"/>
        <pt x="159" y="824" on="1"/>
        <pt x="131" y="898" on="1"/>
        <pt x="741" y="1765" on="1"/>
        <pt x="779" y="1765" on="1"/>
        <pt x="880" y="1687" on="1"/>
        <pt x="297" y="933" on="1"/>
        <pt x="701" y="945" on="1"/>
        <pt x="740" y="1225" on="1"/>
        <pt x="895" y="1243" on="1"/>
        <pt x="855" y="950" on="1"/>
        <pt x="1118" y="958" on="1"/>
        <pt x="1103" y="824" on="1"/>
        <pt x="838" y="824" on="1"/>
        <pt x="791" y="476" on="1"/>
        <pt x="635" y="476" on="1"/>
      </contour>
    </TTGlyph>
    <TTGlyph name="fraction" xMin="158" yMin="0" xMax="962" yMax="1530">
      <contour>
        <pt x="839" y="1530" on="1"/>
        <pt x="962" y="1530" on="1"/>
        <pt x="281" y="0" on="1"/>
        <pt x="158" y="0" on="1"/>
      </contour>
    </TTGlyph>
    <TTGlyph name="g" xMin="79" yMin="-505" xMax="1055" yMax="1156">
      <contour>
        <pt x="520" y="1123" on="1"/>
        <pt x="609" y="1156" on="0"/>
        <pt x="816" y="1156" on="0"/>
        <pt x="939" y="1120" on="1"/>
        <pt x="1055" y="1156" on="1"/>
        <pt x="879" y="-89" on="1"/>
        <pt x="848" y="-305" on="0"/>
        <pt x="682" y="-416" on="1"/>
        <pt x="547" y="-505" on="0"/>
        <pt x="371" y="-505" on="1"/>
        <pt x="202" y="-505" on="0"/>
        <pt x="115" y="-470" on="1"/>
        <pt x="153" y="-344" on="1"/>
        <pt x="259" y="-392" on="0"/>
        <pt x="538" y="-392" on="0"/>
        <pt x="704" y="-237" on="0"/>
        <pt x="730" y="-92" on="1"/>
        <pt x="778" y="207" on="1"/>
        <pt x="672" y="59" on="0"/>
        <pt x="516" y="4" on="1"/>
        <pt x="460" y="-16" on="0"/>
        <pt x="316" y="-16" on="0"/>
        <pt x="196" y="47" on="0"/>
        <pt x="156" y="104" on="1"/>
        <pt x="79" y="216" on="0"/>
        <pt x="79" y="416" on="1"/>
        <pt x="79" y="685" on="0"/>
        <pt x="234" y="904" on="1"/>
        <pt x="344" y="1058" on="0"/>
      </contour>
      <contour>
        <pt x="233" y="434" on="1"/>
        <pt x="233" y="100" on="0"/>
        <pt x="423" y="100" on="1"/>
        <pt x="581" y="100" on="0"/>
        <pt x="726" y="274" on="1"/>
        <pt x="764" y="319" on="0"/>
        <pt x="788" y="358" on="1"/>
        <pt x="884" y="1010" on="1"/>
        <pt x="799" y="1046" on="0"/>
        <pt x="618" y="1046" on="0"/>
        <pt x="489" y="991" on="0"/>
        <pt x="386" y="898" on="0"/>
        <pt x="309" y="774" on="0"/>
        <pt x="284" y="706" on="1"/>
        <pt x="233" y="571" on="0"/>
      </contour>
    </TTGlyph>
    <TTGlyph name="gbreve" xMin="79" yMin="-505" xMax="1055" yMax="1648">
      <component glyphName="g" x="0" y="0" flags="0x1204"/>
      <component glyphName="breve" x="368" y="0" flags="0x1004"/>
    </TTGlyph>
    <TTGlyph name="gcircumflex" xMin="79" yMin="-505" xMax="1055" yMax="1650">
      <component glyphName="circumflex" x="304" y="0" flags="0x1004"/>
      <component glyphName="g" x="0" y="0" flags="0x1004"/>
    </TTGlyph>
    <TTGlyph name="gcommaaccent" xMin="79" yMin="-505" xMax="1055" yMax="1762">
      <contour>
        <pt x="697" y="1253" on="1"/>
        <pt x="603" y="1273" on="0"/>
        <pt x="572" y="1400" on="1"/>
        <pt x="564" y="1433" on="0"/>
        <pt x="564" y="1469" on="0"/>
        <pt x="566" y="1533" on="0"/>
        <pt x="605" y="1634" on="0"/>
        <pt x="634" y="1672" on="1"/>
        <pt x="691" y="1746" on="0"/>
        <pt x="759" y="1762" on="1"/>
        <pt x="820" y="1723" on="1"/>
        <pt x="818" y="1703" on="1"/>
        <pt x="715" y="1642" on="0"/>
        <pt x="710" y="1521" on="1"/>
        <pt x="707" y="1448" on="0"/>
        <pt x="760" y="1403" on="1"/>
        <pt x="776" y="1389" on="0"/>
        <pt x="796" y="1385" on="1"/>
        <pt x="791" y="1345" on="1"/>
      </contour>
      <contour>
        <pt x="520" y="1123" on="1"/>
        <pt x="609" y="1156" on="0"/>
        <pt x="816" y="1156" on="0"/>
        <pt x="939" y="1120" on="1"/>
        <pt x="1055" y="1156" on="1"/>
        <pt x="879" y="-89" on="1"/>
        <pt x="848" y="-305" on="0"/>
        <pt x="682" y="-416" on="1"/>
        <pt x="547" y="-505" on="0"/>
        <pt x="371" y="-505" on="1"/>
        <pt x="202" y="-505" on="0"/>
        <pt x="115" y="-470" on="1"/>
        <pt x="153" y="-344" on="1"/>
        <pt x="259" y="-392" on="0"/>
        <pt x="538" y="-392" on="0"/>
        <pt x="704" y="-237" on="0"/>
        <pt x="730" y="-92" on="1"/>
        <pt x="778" y="207" on="1"/>
        <pt x="672" y="59" on="0"/>
        <pt x="516" y="4" on="1"/>
        <pt x="460" y="-16" on="0"/>
        <pt x="316" y="-16" on="0"/>
        <pt x="196" y="47" on="0"/>
        <pt x="156" y="104" on="1"/>
        <pt x="79" y="216" on="0"/>
        <pt x="79" y="416" on="1"/>
        <pt x="79" y="685" on="0"/>
        <pt x="234" y="904" on="1"/>
        <pt x="344" y="1058" on="0"/>
      </contour>
      <contour>
        <pt x="233" y="434" on="1"/>
        <pt x="233" y="100" on="0"/>
        <pt x="423" y="100" on="1"/>
        <pt x="581" y="100" on="0"/>
        <pt x="726" y="274" on="1"/>
        <pt x="764" y="319" on="0"/>
        <pt x="788" y="358" on="1"/>
        <pt x="884" y="1010" on="1"/>
        <pt x="799" y="1046" on="0"/>
        <pt x="618" y="1046" on="0"/>
        <pt x="489" y="991" on="0"/>
        <pt x="386" y="898" on="0"/>
        <pt x="309" y="774" on="0"/>
        <pt x="284" y="706" on="1"/>
        <pt x="233" y="571" on="0"/>
      </contour>
    </TTGlyph>
    <TTGlyph name="gdotaccent" xMin="79" yMin="-505" xMax="1055" yMax="1640">
      <component glyphName="g" x="0" y="0" flags="0x1204"/>
      <component glyphName="dotaccent" x="577" y="0" flags="0x1004"/>
    </TTGlyph>
    <TTGlyph name="germandbls" xMin="85" yMin="-16" xMax="1088" yMax="1588">
      <contour>
        <pt x="202" y="929" on="1"/>
        <pt x="237" y="1203" on="0"/>
        <pt x="339" y="1366" on="1"/>
        <pt x="457" y="1556" on="0"/>
        <pt x="667" y="1581" on="1"/>
        <pt x="725" y="1588" on="0"/>
        <pt x="847" y="1588" on="0"/>
        <pt x="961" y="1551" on="0"/>
        <pt x="1002" y="1514" on="1"/>
        <pt x="1088" y="1438" on="0"/>
        <pt x="1088" y="1301" on="1"/>
        <pt x="1088" y="1145" on="0"/>
        <pt x="955" y="1012" on="1"/>
        <pt x="891" y="947" on="1"/>
        <pt x="822" y="876" on="0"/>
        <pt x="822" y="824" on="1"/>
        <pt x="822" y="788" on="0"/>
        <pt x="880" y="712" on="0"/>
        <pt x="925" y="660" on="0"/>
        <pt x="969" y="600" on="0"/>
        <pt x="1014" y="532" on="0"/>
        <pt x="1032" y="492" on="1"/>
        <pt x="1073" y="403" on="0"/>
        <pt x="1073" y="234" on="0"/>
        <pt x="1018" y="115" on="0"/>
        <pt x="967" y="72" on="1"/>
        <pt x="861" y="-16" on="0"/>
        <pt x="679" y="-16" on="1"/>
        <pt x="572" y="-16" on="0"/>
        <pt x="472" y="18" on="1"/>
        <pt x="445" y="28" on="0"/>
        <pt x="429" y="37" on="1"/>
        <pt x="449" y="181" on="1"/>
        <pt x="503" y="131" on="0"/>
        <pt x="596" y="109" on="1"/>
        <pt x="629" y="101" on="0"/>
        <pt x="728" y="101" on="0"/>
        <pt x="821" y="122" on="0"/>
        <pt x="852" y="146" on="1"/>
        <pt x="916" y="194" on="0"/>
        <pt x="916" y="301" on="1"/>
        <pt x="916" y="411" on="0"/>
        <pt x="819" y="550" on="1"/>
        <pt x="723" y="663" on="0"/>
        <pt x="678" y="774" on="0"/>
        <pt x="678" y="836" on="0"/>
        <pt x="692" y="887" on="0"/>
        <pt x="716" y="931" on="0"/>
        <pt x="732" y="950" on="1"/>
        <pt x="768" y="991" on="1"/>
        <pt x="853" y="1079" on="0"/>
        <pt x="881" y="1124" on="1"/>
        <pt x="934" y="1210" on="0"/>
        <pt x="934" y="1296" on="1"/>
        <pt x="934" y="1420" on="0"/>
        <pt x="828" y="1464" on="1"/>
        <pt x="790" y="1480" on="0"/>
        <pt x="692" y="1480" on="0"/>
        <pt x="608" y="1461" on="0"/>
        <pt x="532" y="1411" on="0"/>
        <pt x="464" y="1326" on="0"/>
        <pt x="435" y="1260" on="1"/>
        <pt x="376" y="1124" on="0"/>
        <pt x="343" y="884" on="1"/>
        <pt x="233" y="3" on="1"/>
        <pt x="85" y="3" on="1"/>
      </contour>
    </TTGlyph>
    <TTGlyph name="grave" xMin="72" yMin="1249" xMax="481" yMax="1701">
      <contour>
        <pt x="416" y="1249" on="1"/>
        <pt x="368" y="1281" on="0"/>
        <pt x="316" y="1329" on="1"/>
        <pt x="165" y="1472" on="0"/>
        <pt x="86" y="1572" on="0"/>
        <pt x="72" y="1597" on="1"/>
        <pt x="187" y="1701" on="1"/>
        <pt x="481" y="1304" on="1"/>
      </contour>
    </TTGlyph>
    <TTGlyph name="grave.cap" xMin="52" yMin="1601" xMax="419" yMax="2000">
      <contour>
        <pt x="363" y="1601" on="1"/>
        <pt x="234" y="1680" on="0"/>
        <pt x="113" y="1820" on="1"/>
        <pt x="75" y="1864" on="0"/>
        <pt x="52" y="1903" on="1"/>
        <pt x="146" y="2000" on="1"/>
        <pt x="419" y="1651" on="1"/>
      </contour>
    </TTGlyph>
    <TTGlyph name="greater" xMin="250" yMin="179" xMax="1273" yMax="1327">
      <component glyphName="less" x="1470" y="1503" scale="-0.999938964844" flags="0x1004"/>
    </TTGlyph>
    <TTGlyph name="greaterequal" xMin="141" yMin="-1" xMax="1211" yMax="1204">
      <contour>
        <pt x="197" y="246" on="1"/>
        <pt x="216" y="395" on="1"/>
        <pt x="993" y="734" on="1"/>
        <pt x="305" y="1067" on="1"/>
        <pt x="324" y="1204" on="1"/>
        <pt x="1211" y="758" on="1"/>
        <pt x="1203" y="699" on="1"/>
      </contour>
      <contour>
        <pt x="141" y="-1" on="1"/>
        <pt x="156" y="113" on="1"/>
        <pt x="1104" y="113" on="1"/>
        <pt x="1089" y="-1" on="1"/>
      </contour>
    </TTGlyph>
    <TTGlyph name="guillemotleft" xMin="249" yMin="152" xMax="1665" yMax="1086">
      <component glyphName="guilsinglleft" x="12" y="0" flags="0x1004"/>
      <component glyphName="guilsinglleft" x="688" y="0" flags="0x1004"/>
    </TTGlyph>
    <TTGlyph name="guillemotright" xMin="226" yMin="152" xMax="1642" yMax="1086">
      <component glyphName="guilsinglleft" x="1203" y="1238" scale="-0.999938964844" flags="0x1004"/>
      <component glyphName="guilsinglleft" x="1879" y="1238" scale="-0.999938964844" flags="0x1004"/>
    </TTGlyph>
    <TTGlyph name="guilsinglleft" xMin="237" yMin="152" xMax="977" yMax="1086">
      <contour>
        <pt x="253" y="671" on="1"/>
        <pt x="948" y="1086" on="1"/>
        <pt x="977" y="997" on="1"/>
        <pt x="421" y="614" on="1"/>
        <pt x="873" y="237" on="1"/>
        <pt x="820" y="152" on="1"/>
        <pt x="237" y="551" on="1"/>
      </contour>
    </TTGlyph>
    <TTGlyph name="guilsinglright" xMin="193" yMin="152" xMax="933" yMax="1086">
      <component glyphName="guilsinglleft" x="1170" y="1238" scale="-0.999938964844" flags="0x1004"/>
    </TTGlyph>
    <TTGlyph name="h" xMin="97" yMin="0" xMax="1062" yMax="1637">
      <contour>
        <pt x="308" y="1637" on="1"/>
        <pt x="456" y="1637" on="1"/>
        <pt x="401" y="1158" on="1"/>
        <pt x="357" y="869" on="1"/>
        <pt x="507" y="1063" on="0"/>
        <pt x="701" y="1132" on="1"/>
        <pt x="767" y="1156" on="0"/>
        <pt x="832" y="1156" on="1"/>
        <pt x="955" y="1156" on="0"/>
        <pt x="1062" y="1015" on="0"/>
        <pt x="1062" y="875" on="1"/>
        <pt x="1062" y="873" on="0"/>
        <pt x="1062" y="843" on="0"/>
        <pt x="1055" y="766" on="0"/>
        <pt x="1043" y="673" on="0"/>
        <pt x="1036" y="620" on="1"/>
        <pt x="1020" y="513" on="1"/>
        <pt x="1014" y="469" on="0"/>
        <pt x="1004" y="401" on="1"/>
        <pt x="942" y="0" on="1"/>
        <pt x="793" y="0" on="1"/>
        <pt x="797" y="32" on="0"/>
        <pt x="804" y="74" on="1"/>
        <pt x="852" y="395" on="0"/>
        <pt x="866" y="483" on="0"/>
        <pt x="872" y="524" on="1"/>
        <pt x="886" y="616" on="1"/>
        <pt x="911" y="787" on="0"/>
        <pt x="911" y="944" on="0"/>
        <pt x="850" y="1018" on="0"/>
        <pt x="723" y="1018" on="0"/>
        <pt x="607" y="968" on="0"/>
        <pt x="549" y="926" on="1"/>
        <pt x="425" y="838" on="0"/>
        <pt x="343" y="721" on="1"/>
        <pt x="245" y="0" on="1"/>
        <pt x="97" y="0" on="1"/>
      </contour>
    </TTGlyph>
    <TTGlyph name="hbar" xMin="97" yMin="0" xMax="1062" yMax="1637">
      <contour>
        <pt x="263" y="1292" on="1"/>
        <pt x="133" y="1292" on="1"/>
        <pt x="146" y="1392" on="1"/>
        <pt x="276" y="1392" on="1"/>
        <pt x="308" y="1637" on="1"/>
        <pt x="456" y="1637" on="1"/>
        <pt x="428" y="1392" on="1"/>
        <pt x="728" y="1392" on="1"/>
        <pt x="715" y="1292" on="1"/>
        <pt x="416" y="1292" on="1"/>
        <pt x="401" y="1158" on="1"/>
        <pt x="357" y="869" on="1"/>
        <pt x="507" y="1063" on="0"/>
        <pt x="701" y="1132" on="1"/>
        <pt x="767" y="1156" on="0"/>
        <pt x="832" y="1156" on="1"/>
        <pt x="955" y="1156" on="0"/>
        <pt x="1062" y="1015" on="0"/>
        <pt x="1062" y="875" on="1"/>
        <pt x="1062" y="873" on="0"/>
        <pt x="1062" y="843" on="0"/>
        <pt x="1055" y="766" on="0"/>
        <pt x="1043" y="673" on="0"/>
        <pt x="1036" y="620" on="1"/>
        <pt x="1020" y="513" on="1"/>
        <pt x="1014" y="469" on="0"/>
        <pt x="1004" y="401" on="1"/>
        <pt x="942" y="0" on="1"/>
        <pt x="793" y="0" on="1"/>
        <pt x="797" y="32" on="0"/>
        <pt x="804" y="74" on="1"/>
        <pt x="852" y="395" on="0"/>
        <pt x="866" y="483" on="0"/>
        <pt x="872" y="524" on="1"/>
        <pt x="886" y="616" on="1"/>
        <pt x="911" y="787" on="0"/>
        <pt x="911" y="944" on="0"/>
        <pt x="850" y="1018" on="0"/>
        <pt x="723" y="1018" on="0"/>
        <pt x="607" y="968" on="0"/>
        <pt x="549" y="926" on="1"/>
        <pt x="425" y="838" on="0"/>
        <pt x="343" y="721" on="1"/>
        <pt x="245" y="0" on="1"/>
        <pt x="97" y="0" on="1"/>
      </contour>
    </TTGlyph>
    <TTGlyph name="hcircumflex" xMin="97" yMin="0" xMax="1111" yMax="1796">
      <contour>
        <pt x="308" y="1637" on="1"/>
        <pt x="456" y="1637" on="1"/>
        <pt x="435" y="1454" on="1"/>
        <pt x="770" y="1796" on="1"/>
        <pt x="906" y="1796" on="1"/>
        <pt x="1111" y="1448" on="1"/>
        <pt x="1038" y="1395" on="1"/>
        <pt x="819" y="1660" on="1"/>
        <pt x="489" y="1390" on="1"/>
        <pt x="434" y="1445" on="1"/>
        <pt x="401" y="1158" on="1"/>
        <pt x="357" y="869" on="1"/>
        <pt x="507" y="1063" on="0"/>
        <pt x="701" y="1132" on="1"/>
        <pt x="767" y="1156" on="0"/>
        <pt x="832" y="1156" on="1"/>
        <pt x="955" y="1156" on="0"/>
        <pt x="1062" y="1015" on="0"/>
        <pt x="1062" y="875" on="1"/>
        <pt x="1062" y="873" on="0"/>
        <pt x="1062" y="843" on="0"/>
        <pt x="1055" y="766" on="0"/>
        <pt x="1043" y="673" on="0"/>
        <pt x="1036" y="620" on="1"/>
        <pt x="1020" y="513" on="1"/>
        <pt x="1014" y="469" on="0"/>
        <pt x="1004" y="401" on="1"/>
        <pt x="942" y="0" on="1"/>
        <pt x="793" y="0" on="1"/>
        <pt x="797" y="32" on="0"/>
        <pt x="804" y="74" on="1"/>
        <pt x="852" y="395" on="0"/>
        <pt x="866" y="483" on="0"/>
        <pt x="872" y="524" on="1"/>
        <pt x="886" y="616" on="1"/>
        <pt x="911" y="787" on="0"/>
        <pt x="911" y="944" on="0"/>
        <pt x="850" y="1018" on="0"/>
        <pt x="723" y="1018" on="0"/>
        <pt x="607" y="968" on="0"/>
        <pt x="549" y="926" on="1"/>
        <pt x="425" y="838" on="0"/>
        <pt x="343" y="721" on="1"/>
        <pt x="245" y="0" on="1"/>
        <pt x="97" y="0" on="1"/>
      </contour>
    </TTGlyph>
    <TTGlyph name="hungarumlaut" xMin="49" yMin="1250" xMax="832" yMax="1706">
      <contour>
        <pt x="474" y="1292" on="1"/>
        <pt x="722" y="1706" on="1"/>
        <pt x="832" y="1617" on="1"/>
        <pt x="803" y="1558" on="0"/>
        <pt x="766" y="1505" on="1"/>
        <pt x="766" y="1505" on="0"/>
        <pt x="701" y="1416" on="1"/>
        <pt x="611" y="1298" on="0"/>
        <pt x="547" y="1250" on="1"/>
      </contour>
      <contour>
        <pt x="49" y="1292" on="1"/>
        <pt x="287" y="1706" on="1"/>
        <pt x="397" y="1618" on="1"/>
        <pt x="359" y="1534" on="0"/>
        <pt x="297" y="1450" on="1"/>
        <pt x="192" y="1308" on="0"/>
        <pt x="121" y="1250" on="1"/>
      </contour>
    </TTGlyph>
    <TTGlyph name="hungarumlaut.cap" xMin="59" yMin="1569" xMax="887" yMax="1996">
      <contour>
        <pt x="472" y="1621" on="1"/>
        <pt x="784" y="1996" on="1"/>
        <pt x="887" y="1906" on="1"/>
        <pt x="846" y="1831" on="0"/>
        <pt x="728" y="1723" on="1"/>
        <pt x="618" y="1623" on="0"/>
        <pt x="529" y="1571" on="1"/>
      </contour>
      <contour>
        <pt x="59" y="1619" on="1"/>
        <pt x="371" y="1994" on="1"/>
        <pt x="472" y="1905" on="1"/>
        <pt x="421" y="1800" on="0"/>
        <pt x="222" y="1638" on="1"/>
        <pt x="171" y="1597" on="0"/>
        <pt x="131" y="1569" on="1"/>
      </contour>
    </TTGlyph>
    <TTGlyph name="hyphen" xMin="220" yMin="712" xMax="1071" yMax="833">
      <contour>
        <pt x="234" y="833" on="1"/>
        <pt x="1071" y="833" on="1"/>
        <pt x="1057" y="712" on="1"/>
        <pt x="220" y="712" on="1"/>
      </contour>
    </TTGlyph>
    <TTGlyph name="i" xMin="133" yMin="0" xMax="520" yMax="1643">
      <component glyphName="dotlessi" x="0" y="0" flags="0x1204"/>
      <component glyphName="dotaccent" x="256" y="3" flags="0x1004"/>
    </TTGlyph>
    <TTGlyph name="i.cy" xMin="133" yMin="0" xMax="520" yMax="1640">
      <component glyphName="dotlessi" x="0" y="0" flags="0x1204"/>
      <component glyphName="dotaccent" x="256" y="0" flags="0x1004"/>
    </TTGlyph>
    <TTGlyph name="i.dot" xMin="133" yMin="0" xMax="520" yMax="1640">
      <component glyphName="dotlessi" x="0" y="0" flags="0x1204"/>
      <component glyphName="dotaccent" x="256" y="0" flags="0x1004"/>
    </TTGlyph>
    <TTGlyph name="i.uc" xMin="145" yMin="0" xMax="572" yMax="1920">
      <component glyphName="I" x="0" y="0" flags="0x1204"/>
      <component glyphName="dotaccent.cap" x="312" y="0" flags="0x1004"/>
    </TTGlyph>
    <TTGlyph name="iacute" xMin="133" yMin="0" xMax="723" yMax="1704">
      <component glyphName="acute" x="242" y="0" flags="0x1004"/>
      <component glyphName="dotlessi" x="0" y="0" flags="0x1004"/>
    </TTGlyph>
    <TTGlyph name="ibreve" xMin="99" yMin="0" xMax="730" yMax="1648">
      <component glyphName="dotlessi" x="0" y="0" flags="0x1204"/>
      <component glyphName="breve" x="47" y="0" flags="0x1004"/>
    </TTGlyph>
    <TTGlyph name="icircumflex" xMin="41" yMin="0" xMax="724" yMax="1650">
      <component glyphName="circumflex" x="-16" y="0" flags="0x1004"/>
      <component glyphName="dotlessi" x="0" y="0" flags="0x1004"/>
    </TTGlyph>
    <TTGlyph name="idieresis" xMin="105" yMin="0" xMax="729" yMax="1623">
      <component glyphName="dieresis" x="10" y="0" flags="0x1004"/>
      <component glyphName="dotlessi" x="0" y="0" flags="0x1004"/>
    </TTGlyph>
    <TTGlyph name="igrave" xMin="39" yMin="0" xMax="448" yMax="1701">
      <component glyphName="dotlessi" x="0" y="0" flags="0x1204"/>
      <component glyphName="grave" x="-33" y="0" flags="0x1004"/>
    </TTGlyph>
    <TTGlyph name="ij" xMin="133" yMin="-515" xMax="1077" yMax="1640">
      <component glyphName="dotlessj" x="565" y="0" flags="0x1004"/>
      <component glyphName="dotlessi" x="0" y="0" flags="0x1004"/>
      <component glyphName="dotaccent" x="256" y="0" flags="0x1004"/>
      <component glyphName="dotaccent" x="813" y="0" flags="0x1004"/>
    </TTGlyph>
    <TTGlyph name="imacron" xMin="125" yMin="0" xMax="639" yMax="1548">
      <component glyphName="dotlessi" x="0" y="0" flags="0x1204"/>
      <component glyphName="macron" x="79" y="0" flags="0x1004"/>
    </TTGlyph>
    <TTGlyph name="infinity" xMin="74" yMin="229" xMax="1731" yMax="1004">
      <contour>
        <pt x="614" y="254" on="1"/>
        <pt x="552" y="231" on="0"/>
        <pt x="478" y="230" on="0"/>
        <pt x="472" y="230" on="1"/>
        <pt x="294" y="230" on="0"/>
        <pt x="182" y="340" on="1"/>
        <pt x="74" y="446" on="0"/>
        <pt x="74" y="600" on="1"/>
        <pt x="74" y="790" on="0"/>
        <pt x="198" y="901" on="1"/>
        <pt x="313" y="1004" on="0"/>
        <pt x="494" y="1004" on="1"/>
        <pt x="690" y="1004" on="0"/>
        <pt x="831" y="828" on="1"/>
        <pt x="871" y="778" on="0"/>
        <pt x="905" y="726" on="1"/>
        <pt x="1026" y="909" on="0"/>
        <pt x="1196" y="978" on="1"/>
        <pt x="1261" y="1004" on="0"/>
        <pt x="1432" y="1004" on="0"/>
        <pt x="1584" y="945" on="0"/>
        <pt x="1634" y="894" on="1"/>
        <pt x="1731" y="792" on="0"/>
        <pt x="1731" y="638" on="1"/>
        <pt x="1731" y="452" on="0"/>
        <pt x="1614" y="340" on="1"/>
        <pt x="1496" y="229" on="0"/>
        <pt x="1299" y="229" on="1"/>
        <pt x="1105" y="229" on="0"/>
        <pt x="973" y="402" on="1"/>
        <pt x="935" y="451" on="0"/>
        <pt x="902" y="502" on="1"/>
        <pt x="781" y="318" on="0"/>
      </contour>
      <contour>
        <pt x="982" y="622" on="1"/>
        <pt x="1148" y="345" on="0"/>
        <pt x="1325" y="345" on="1"/>
        <pt x="1443" y="345" on="0"/>
        <pt x="1516" y="434" on="1"/>
        <pt x="1580" y="514" on="0"/>
        <pt x="1580" y="624" on="1"/>
        <pt x="1580" y="797" on="0"/>
        <pt x="1430" y="858" on="1"/>
        <pt x="1379" y="879" on="0"/>
        <pt x="1256" y="879" on="0"/>
        <pt x="1160" y="831" on="0"/>
        <pt x="1118" y="794" on="1"/>
        <pt x="1046" y="728" on="0"/>
      </contour>
      <contour>
        <pt x="375" y="368" on="1"/>
        <pt x="427" y="346" on="0"/>
        <pt x="546" y="346" on="0"/>
        <pt x="635" y="384" on="0"/>
        <pt x="676" y="418" on="1"/>
        <pt x="760" y="489" on="0"/>
        <pt x="827" y="605" on="1"/>
        <pt x="768" y="697" on="1"/>
        <pt x="647" y="879" on="0"/>
        <pt x="508" y="879" on="1"/>
        <pt x="377" y="879" on="0"/>
        <pt x="298" y="796" on="1"/>
        <pt x="225" y="720" on="0"/>
        <pt x="225" y="609" on="1"/>
        <pt x="225" y="433" on="0"/>
      </contour>
    </TTGlyph>
    <TTGlyph name="integral" xMin="111" yMin="-518" xMax="964" yMax="1685">
      <contour>
        <pt x="877" y="1470" on="1"/>
        <pt x="820" y="1560" on="0"/>
        <pt x="665" y="1560" on="1"/>
        <pt x="406" y="1560" on="0"/>
        <pt x="406" y="1206" on="1"/>
        <pt x="406" y="1039" on="0"/>
        <pt x="515" y="802" on="1"/>
        <pt x="562" y="700" on="0"/>
        <pt x="671" y="495" on="0"/>
        <pt x="718" y="392" on="1"/>
        <pt x="827" y="151" on="0"/>
        <pt x="827" y="-28" on="1"/>
        <pt x="827" y="-377" on="0"/>
        <pt x="617" y="-481" on="1"/>
        <pt x="542" y="-518" on="0"/>
        <pt x="386" y="-518" on="0"/>
        <pt x="292" y="-500" on="0"/>
        <pt x="250" y="-484" on="1"/>
        <pt x="161" y="-451" on="0"/>
        <pt x="111" y="-395" on="1"/>
        <pt x="175" y="-292" on="1"/>
        <pt x="231" y="-353" on="0"/>
        <pt x="327" y="-382" on="1"/>
        <pt x="366" y="-393" on="0"/>
        <pt x="475" y="-393" on="0"/>
        <pt x="571" y="-357" on="0"/>
        <pt x="605" y="-315" on="1"/>
        <pt x="675" y="-229" on="0"/>
        <pt x="675" y="-29" on="1"/>
        <pt x="675" y="139" on="0"/>
        <pt x="566" y="376" on="1"/>
        <pt x="519" y="478" on="0"/>
        <pt x="410" y="684" on="0"/>
        <pt x="363" y="788" on="1"/>
        <pt x="254" y="1029" on="0"/>
        <pt x="254" y="1206" on="1"/>
        <pt x="254" y="1542" on="0"/>
        <pt x="485" y="1649" on="1"/>
        <pt x="563" y="1685" on="0"/>
        <pt x="666" y="1685" on="1"/>
        <pt x="881" y="1685" on="0"/>
        <pt x="964" y="1557" on="1"/>
      </contour>
    </TTGlyph>
    <TTGlyph name="iogonek" xMin="-113" yMin="-435" xMax="526" yMax="1640">
      <contour>
        <pt x="452" y="1436" on="1"/>
        <pt x="432" y="1426" on="0"/>
        <pt x="390" y="1426" on="0"/>
        <pt x="357" y="1441" on="0"/>
        <pt x="346" y="1454" on="1"/>
        <pt x="319" y="1484" on="0"/>
        <pt x="324" y="1549" on="0"/>
        <pt x="343" y="1591" on="0"/>
        <pt x="358" y="1606" on="1"/>
        <pt x="392" y="1640" on="0"/>
        <pt x="479" y="1640" on="0"/>
        <pt x="526" y="1589" on="0"/>
        <pt x="526" y="1552" on="1"/>
        <pt x="526" y="1470" on="0"/>
      </contour>
      <contour>
        <pt x="322" y="-341" on="1"/>
        <pt x="215" y="-435" on="0"/>
        <pt x="75" y="-435" on="1"/>
        <pt x="-18" y="-435" on="0"/>
        <pt x="-70" y="-382" on="1"/>
        <pt x="-113" y="-340" on="0"/>
        <pt x="-113" y="-235" on="0"/>
        <pt x="-56" y="-145" on="0"/>
        <pt x="-15" y="-108" on="1"/>
        <pt x="46" y="-54" on="0"/>
        <pt x="149" y="2" on="1"/>
        <pt x="303" y="1144" on="1"/>
        <pt x="452" y="1144" on="1"/>
        <pt x="297" y="0" on="1"/>
        <pt x="269" y="0" on="1"/>
        <pt x="199" y="-47" on="1"/>
        <pt x="36" y="-157" on="0"/>
        <pt x="36" y="-242" on="1"/>
        <pt x="36" y="-281" on="0"/>
        <pt x="85" y="-322" on="0"/>
        <pt x="123" y="-322" on="1"/>
        <pt x="207" y="-322" on="0"/>
        <pt x="282" y="-264" on="1"/>
      </contour>
    </TTGlyph>
    <TTGlyph name="itilde" xMin="19" yMin="0" xMax="783" yMax="1647">
      <component glyphName="dotlessi" x="0" y="0" flags="0x1204"/>
      <component glyphName="tilde" x="10" y="0" flags="0x1004"/>
    </TTGlyph>
    <TTGlyph name="j" xMin="-244" yMin="-515" xMax="524" yMax="1643">
      <component glyphName="dotlessj" x="0" y="0" flags="0x1004"/>
      <component glyphName="dotaccent" x="260" y="3" flags="0x1004"/>
    </TTGlyph>
    <TTGlyph name="jcircumflex" xMin="-244" yMin="-515" xMax="713" yMax="1650">
      <component glyphName="dotlessj" x="0" y="0" flags="0x1204"/>
      <component glyphName="circumflex" x="-27" y="0" flags="0x1004"/>
    </TTGlyph>
    <TTGlyph name="k" xMin="97" yMin="0" xMax="1003" yMax="1637">
      <contour>
        <pt x="305" y="1637" on="1"/>
        <pt x="453" y="1637" on="1"/>
        <pt x="246" y="0" on="1"/>
        <pt x="97" y="0" on="1"/>
      </contour>
      <contour>
        <pt x="376" y="628" on="1"/>
        <pt x="375" y="629" on="1"/>
        <pt x="375" y="629" on="0"/>
        <pt x="459" y="678" on="1"/>
        <pt x="626" y="778" on="0"/>
        <pt x="709" y="876" on="1"/>
        <pt x="816" y="999" on="0"/>
        <pt x="860" y="1140" on="1"/>
        <pt x="1003" y="1140" on="1"/>
        <pt x="992" y="1012" on="0"/>
        <pt x="891" y="876" on="1"/>
        <pt x="774" y="718" on="0"/>
        <pt x="547" y="605" on="1"/>
        <pt x="967" y="3" on="1"/>
        <pt x="794" y="3" on="1"/>
        <pt x="375" y="628" on="1"/>
      </contour>
    </TTGlyph>
    <TTGlyph name="kcommaaccent" xMin="97" yMin="-560" xMax="1003" yMax="1637">
      <component glyphName="commaaccent" x="327" y="0" flags="0x1004"/>
      <component glyphName="k" x="0" y="0" flags="0x1004"/>
    </TTGlyph>
    <TTGlyph name="kgreenlandic" xMin="83" yMin="0" xMax="1007" yMax="1151">
      <contour>
        <pt x="375" y="626" on="1"/>
        <pt x="789" y="856" on="0"/>
        <pt x="865" y="1151" on="1"/>
        <pt x="1007" y="1151" on="1"/>
        <pt x="1002" y="1072" on="0"/>
        <pt x="935" y="931" on="0"/>
        <pt x="831" y="806" on="0"/>
        <pt x="772" y="754" on="1"/>
        <pt x="665" y="662" on="0"/>
        <pt x="547" y="602" on="1"/>
        <pt x="967" y="0" on="1"/>
        <pt x="794" y="0" on="1"/>
        <pt x="375" y="625" on="1"/>
        <pt x="376" y="625" on="1"/>
      </contour>
      <contour>
        <pt x="237" y="1151" on="1"/>
        <pt x="384" y="1151" on="1"/>
        <pt x="231" y="0" on="1"/>
        <pt x="83" y="0" on="1"/>
      </contour>
    </TTGlyph>
    <TTGlyph name="l" xMin="133" yMin="3" xMax="504" yMax="1637">
      <contour>
        <pt x="356" y="1637" on="1"/>
        <pt x="504" y="1637" on="1"/>
        <pt x="282" y="3" on="1"/>
        <pt x="133" y="3" on="1"/>
      </contour>
    </TTGlyph>
    <TTGlyph name="lacute" xMin="133" yMin="0" xMax="757" yMax="2000">
      <contour>
        <pt x="342" y="1524" on="1"/>
        <pt x="490" y="1524" on="1"/>
        <pt x="282" y="0" on="1"/>
        <pt x="133" y="0" on="1"/>
      </contour>
      <contour>
        <pt x="384" y="1654" on="1"/>
        <pt x="662" y="2000" on="1"/>
        <pt x="757" y="1903" on="1"/>
        <pt x="715" y="1832" on="0"/>
        <pt x="642" y="1764" on="1"/>
        <pt x="523" y="1653" on="0"/>
        <pt x="441" y="1603" on="1"/>
      </contour>
    </TTGlyph>
    <TTGlyph name="lcaron" xMin="133" yMin="5" xMax="870" yMax="1659">
      <component glyphName="l" x="0" y="2" flags="0x1004"/>
      <component glyphName="caronvertical" x="462" y="-21" flags="0x1004"/>
    </TTGlyph>
    <TTGlyph name="lcommaaccent" xMin="79" yMin="-560" xMax="504" yMax="1637">
      <component glyphName="commaaccent" x="53" y="0" flags="0x1004"/>
      <component glyphName="l" x="0" y="0" flags="0x1004"/>
    </TTGlyph>
    <TTGlyph name="ldot" xMin="133" yMin="3" xMax="837" yMax="1637">
      <component glyphName="l" x="0" y="0" flags="0x1004"/>
      <component glyphName="period" x="526" y="666" flags="0x1004"/>
    </TTGlyph>
    <TTGlyph name="less" xMin="197" yMin="176" xMax="1220" yMax="1324">
      <contour>
        <pt x="209" y="800" on="1"/>
        <pt x="1220" y="1324" on="1"/>
        <pt x="1201" y="1175" on="1"/>
        <pt x="368" y="743" on="1"/>
        <pt x="1100" y="311" on="1"/>
        <pt x="1085" y="176" on="1"/>
        <pt x="197" y="702" on="1"/>
      </contour>
    </TTGlyph>
    <TTGlyph name="lessequal" xMin="139" yMin="-1" xMax="1204" yMax="1204">
      <contour>
        <pt x="205" y="759" on="1"/>
        <pt x="1204" y="1204" on="1"/>
        <pt x="1188" y="1063" on="1"/>
        <pt x="418" y="727" on="1"/>
        <pt x="1109" y="385" on="1"/>
        <pt x="1093" y="246" on="1"/>
        <pt x="199" y="700" on="1"/>
      </contour>
      <contour>
        <pt x="153" y="113" on="1"/>
        <pt x="1101" y="113" on="1"/>
        <pt x="1087" y="-1" on="1"/>
        <pt x="139" y="-1" on="1"/>
      </contour>
    </TTGlyph>
    <TTGlyph name="logicalnot" xMin="213" yMin="322" xMax="1186" yMax="835">
      <contour>
        <pt x="226" y="835" on="1"/>
        <pt x="1186" y="835" on="1"/>
        <pt x="1126" y="322" on="1"/>
        <pt x="992" y="322" on="1"/>
        <pt x="1039" y="718" on="1"/>
        <pt x="213" y="718" on="1"/>
      </contour>
    </TTGlyph>
    <TTGlyph name="lozenge" xMin="57" yMin="0" xMax="1128" yMax="1516">
      <contour>
        <pt x="57" y="760" on="1"/>
        <pt x="57" y="773" on="1"/>
        <pt x="588" y="1516" on="1"/>
        <pt x="596" y="1516" on="1"/>
        <pt x="1128" y="773" on="1"/>
        <pt x="1128" y="760" on="1"/>
        <pt x="597" y="0" on="1"/>
        <pt x="586" y="0" on="1"/>
      </contour>
      <contour>
        <pt x="593" y="221" on="1"/>
        <pt x="964" y="767" on="1"/>
        <pt x="964" y="770" on="1"/>
        <pt x="593" y="1298" on="1"/>
        <pt x="590" y="1298" on="1"/>
        <pt x="222" y="770" on="1"/>
        <pt x="222" y="764" on="1"/>
        <pt x="590" y="221" on="1"/>
      </contour>
    </TTGlyph>
    <TTGlyph name="lslash" xMin="113" yMin="3" xMax="647" yMax="1637">
      <contour>
        <pt x="238" y="775" on="1"/>
        <pt x="113" y="726" on="1"/>
        <pt x="113" y="831" on="1"/>
        <pt x="254" y="889" on="1"/>
        <pt x="356" y="1637" on="1"/>
        <pt x="504" y="1637" on="1"/>
        <pt x="411" y="953" on="1"/>
        <pt x="647" y="1050" on="1"/>
        <pt x="647" y="937" on="1"/>
        <pt x="395" y="837" on="1"/>
        <pt x="282" y="3" on="1"/>
        <pt x="133" y="3" on="1"/>
      </contour>
    </TTGlyph>
    <TTGlyph name="m" xMin="93" yMin="3" xMax="1649" yMax="1156">
      <contour>
        <pt x="248" y="1140" on="1"/>
        <pt x="389" y="1140" on="1"/>
        <pt x="361" y="887" on="1"/>
        <pt x="502" y="1072" on="0"/>
        <pt x="674" y="1134" on="1"/>
        <pt x="733" y="1156" on="0"/>
        <pt x="792" y="1156" on="1"/>
        <pt x="901" y="1156" on="0"/>
        <pt x="1007" y="1042" on="0"/>
        <pt x="1016" y="925" on="1"/>
        <pt x="1150" y="1086" on="0"/>
        <pt x="1310" y="1138" on="1"/>
        <pt x="1366" y="1156" on="0"/>
        <pt x="1477" y="1156" on="0"/>
        <pt x="1563" y="1125" on="0"/>
        <pt x="1592" y="1092" on="1"/>
        <pt x="1649" y="1024" on="0"/>
        <pt x="1649" y="872" on="1"/>
        <pt x="1649" y="769" on="0"/>
        <pt x="1603" y="483" on="0"/>
        <pt x="1597" y="442" on="1"/>
        <pt x="1562" y="213" on="0"/>
        <pt x="1555" y="166" on="1"/>
        <pt x="1540" y="76" on="1"/>
        <pt x="1534" y="34" on="0"/>
        <pt x="1530" y="3" on="1"/>
        <pt x="1380" y="3" on="1"/>
        <pt x="1384" y="35" on="0"/>
        <pt x="1390" y="77" on="1"/>
        <pt x="1440" y="401" on="0"/>
        <pt x="1453" y="483" on="0"/>
        <pt x="1464" y="550" on="1"/>
        <pt x="1497" y="766" on="0"/>
        <pt x="1497" y="944" on="0"/>
        <pt x="1437" y="1018" on="0"/>
        <pt x="1322" y="1018" on="0"/>
        <pt x="1232" y="981" on="0"/>
        <pt x="1186" y="950" on="1"/>
        <pt x="1092" y="887" on="0"/>
        <pt x="1012" y="791" on="1"/>
        <pt x="1007" y="734" on="0"/>
        <pt x="996" y="662" on="1"/>
        <pt x="975" y="513" on="1"/>
        <pt x="969" y="469" on="0"/>
        <pt x="959" y="402" on="1"/>
        <pt x="898" y="3" on="1"/>
        <pt x="749" y="3" on="1"/>
        <pt x="758" y="76" on="0"/>
        <pt x="780" y="213" on="0"/>
        <pt x="794" y="311" on="0"/>
        <pt x="802" y="357" on="1"/>
        <pt x="815" y="443" on="1"/>
        <pt x="840" y="616" on="1"/>
        <pt x="866" y="787" on="0"/>
        <pt x="866" y="945" on="0"/>
        <pt x="806" y="1019" on="0"/>
        <pt x="686" y="1019" on="0"/>
        <pt x="580" y="969" on="0"/>
        <pt x="527" y="928" on="1"/>
        <pt x="417" y="843" on="0"/>
        <pt x="339" y="725" on="1"/>
        <pt x="241" y="3" on="1"/>
        <pt x="93" y="3" on="1"/>
      </contour>
    </TTGlyph>
    <TTGlyph name="macron" xMin="46" yMin="1434" xMax="560" yMax="1548">
      <contour>
        <pt x="50" y="1548" on="1"/>
        <pt x="560" y="1548" on="1"/>
        <pt x="555" y="1434" on="1"/>
        <pt x="46" y="1434" on="1"/>
      </contour>
    </TTGlyph>
    <TTGlyph name="macron.cap" xMin="44" yMin="1748" xMax="558" yMax="1862">
      <contour>
        <pt x="48" y="1862" on="1"/>
        <pt x="558" y="1862" on="1"/>
        <pt x="553" y="1748" on="1"/>
        <pt x="44" y="1748" on="1"/>
      </contour>
    </TTGlyph>
    <TTGlyph name="minus" xMin="220" yMin="712" xMax="1071" yMax="833">
      <contour>
        <pt x="234" y="833" on="1"/>
        <pt x="1071" y="833" on="1"/>
        <pt x="1057" y="712" on="1"/>
        <pt x="220" y="712" on="1"/>
      </contour>
    </TTGlyph>
    <TTGlyph name="minute" xMin="301" yMin="1190" xMax="591" yMax="1782">
      <contour>
        <pt x="435" y="1782" on="1"/>
        <pt x="591" y="1782" on="1"/>
        <pt x="407" y="1190" on="1"/>
        <pt x="301" y="1190" on="1"/>
      </contour>
    </TTGlyph>
    <TTGlyph name="mu" xMin="130" yMin="-372" xMax="1235" yMax="1150">
      <contour>
        <pt x="1062" y="114" on="1"/>
        <pt x="1118" y="114" on="0"/>
        <pt x="1186" y="196" on="1"/>
        <pt x="1235" y="111" on="1"/>
        <pt x="1193" y="43" on="0"/>
        <pt x="1093" y="-2" on="1"/>
        <pt x="1054" y="-19" on="0"/>
        <pt x="980" y="-19" on="0"/>
        <pt x="956" y="-10" on="1"/>
        <pt x="877" y="19" on="0"/>
        <pt x="877" y="129" on="1"/>
        <pt x="877" y="132" on="0"/>
        <pt x="877" y="136" on="1"/>
        <pt x="806" y="63" on="0"/>
        <pt x="754" y="35" on="1"/>
        <pt x="651" y="-19" on="0"/>
        <pt x="535" y="-19" on="1"/>
        <pt x="474" y="-19" on="0"/>
        <pt x="432" y="5" on="1"/>
        <pt x="354" y="49" on="0"/>
        <pt x="341" y="100" on="1"/>
        <pt x="271" y="-372" on="1"/>
        <pt x="130" y="-372" on="1"/>
        <pt x="318" y="894" on="1"/>
        <pt x="329" y="975" on="0"/>
        <pt x="305" y="1008" on="0"/>
        <pt x="293" y="1008" on="1"/>
        <pt x="245" y="1008" on="0"/>
        <pt x="188" y="951" on="1"/>
        <pt x="138" y="1039" on="1"/>
        <pt x="184" y="1101" on="0"/>
        <pt x="278" y="1136" on="1"/>
        <pt x="318" y="1150" on="0"/>
        <pt x="394" y="1150" on="0"/>
        <pt x="417" y="1140" on="1"/>
        <pt x="478" y="1112" on="0"/>
        <pt x="478" y="1013" on="1"/>
        <pt x="478" y="992" on="0"/>
        <pt x="476" y="973" on="1"/>
        <pt x="391" y="361" on="0"/>
        <pt x="390" y="351" on="1"/>
        <pt x="386" y="327" on="1"/>
        <pt x="385" y="311" on="0"/>
        <pt x="385" y="256" on="0"/>
        <pt x="409" y="186" on="0"/>
        <pt x="436" y="162" on="1"/>
        <pt x="487" y="115" on="0"/>
        <pt x="576" y="115" on="1"/>
        <pt x="656" y="115" on="0"/>
        <pt x="752" y="178" on="1"/>
        <pt x="830" y="229" on="0"/>
        <pt x="883" y="297" on="1"/>
        <pt x="1001" y="1140" on="1"/>
        <pt x="1149" y="1140" on="1"/>
        <pt x="1025" y="225" on="1"/>
        <pt x="1021" y="203" on="0"/>
        <pt x="1021" y="184" on="1"/>
        <pt x="1021" y="114" on="0"/>
      </contour>
    </TTGlyph>
    <TTGlyph name="multiply" xMin="244" yMin="328" xMax="1183" yMax="1204">
      <contour>
        <pt x="244" y="423" on="1"/>
        <pt x="637" y="765" on="1"/>
        <pt x="328" y="1104" on="1"/>
        <pt x="429" y="1199" on="1"/>
        <pt x="722" y="841" on="1"/>
        <pt x="1104" y="1204" on="1"/>
        <pt x="1183" y="1110" on="1"/>
        <pt x="790" y="764" on="1"/>
        <pt x="1100" y="424" on="1"/>
        <pt x="999" y="329" on="1"/>
        <pt x="705" y="688" on="1"/>
        <pt x="323" y="328" on="1"/>
      </contour>
    </TTGlyph>
    <TTGlyph name="n" xMin="93" yMin="3" xMax="1060" yMax="1156">
      <contour>
        <pt x="247" y="1140" on="1"/>
        <pt x="388" y="1140" on="1"/>
        <pt x="359" y="875" on="1"/>
        <pt x="508" y="1065" on="0"/>
        <pt x="700" y="1133" on="1"/>
        <pt x="765" y="1156" on="0"/>
        <pt x="830" y="1156" on="1"/>
        <pt x="953" y="1156" on="0"/>
        <pt x="1060" y="1016" on="0"/>
        <pt x="1060" y="877" on="1"/>
        <pt x="1060" y="875" on="0"/>
        <pt x="1060" y="845" on="0"/>
        <pt x="1053" y="767" on="0"/>
        <pt x="1041" y="674" on="0"/>
        <pt x="1034" y="621" on="1"/>
        <pt x="1018" y="513" on="1"/>
        <pt x="1012" y="469" on="0"/>
        <pt x="1002" y="402" on="1"/>
        <pt x="941" y="3" on="1"/>
        <pt x="792" y="3" on="1"/>
        <pt x="801" y="76" on="0"/>
        <pt x="823" y="213" on="0"/>
        <pt x="837" y="311" on="0"/>
        <pt x="844" y="357" on="1"/>
        <pt x="858" y="443" on="1"/>
        <pt x="884" y="616" on="1"/>
        <pt x="909" y="787" on="0"/>
        <pt x="909" y="945" on="0"/>
        <pt x="848" y="1018" on="0"/>
        <pt x="719" y="1018" on="0"/>
        <pt x="602" y="967" on="0"/>
        <pt x="544" y="924" on="1"/>
        <pt x="423" y="837" on="0"/>
        <pt x="338" y="716" on="1"/>
        <pt x="241" y="3" on="1"/>
        <pt x="93" y="3" on="1"/>
      </contour>
    </TTGlyph>
    <TTGlyph name="nacute" xMin="93" yMin="3" xMax="1060" yMax="1704">
      <component glyphName="acute" x="515" y="0" flags="0x1004"/>
      <component glyphName="n" x="0" y="0" flags="0x1004"/>
    </TTGlyph>
    <TTGlyph name="ncaron" xMin="93" yMin="3" xMax="1064" yMax="1650">
      <component glyphName="caron" x="302" y="0" flags="0x1004"/>
      <component glyphName="n" x="0" y="0" flags="0x1004"/>
    </TTGlyph>
    <TTGlyph name="ncommaaccent" xMin="93" yMin="-560" xMax="1060" yMax="1156">
      <component glyphName="commaaccent" x="336" y="0" flags="0x1004"/>
      <component glyphName="n" x="0" y="0" flags="0x1004"/>
    </TTGlyph>
    <TTGlyph name="nine" xMin="139" yMin="-430" xMax="1088" yMax="1161">
      <contour>
        <pt x="869" y="301" on="1"/>
        <pt x="725" y="151" on="0"/>
        <pt x="521" y="151" on="1"/>
        <pt x="328" y="151" on="0"/>
        <pt x="226" y="272" on="1"/>
        <pt x="139" y="375" on="0"/>
        <pt x="139" y="540" on="1"/>
        <pt x="139" y="777" on="0"/>
        <pt x="279" y="960" on="1"/>
        <pt x="433" y="1161" on="0"/>
        <pt x="683" y="1161" on="1"/>
        <pt x="878" y="1161" on="0"/>
        <pt x="988" y="1011" on="1"/>
        <pt x="1088" y="874" on="0"/>
        <pt x="1088" y="657" on="1"/>
        <pt x="1088" y="278" on="0"/>
        <pt x="848" y="-25" on="1"/>
        <pt x="695" y="-218" on="0"/>
        <pt x="472" y="-337" on="1"/>
        <pt x="362" y="-396" on="0"/>
        <pt x="239" y="-430" on="1"/>
        <pt x="205" y="-341" on="1"/>
        <pt x="442" y="-260" on="0"/>
        <pt x="620" y="-86" on="1"/>
        <pt x="791" y="81" on="0"/>
      </contour>
      <contour>
        <pt x="447" y="286" on="1"/>
        <pt x="496" y="267" on="0"/>
        <pt x="630" y="267" on="0"/>
        <pt x="746" y="308" on="0"/>
        <pt x="833" y="364" on="0"/>
        <pt x="862" y="394" on="1"/>
        <pt x="908" y="443" on="1"/>
        <pt x="938" y="575" on="0"/>
        <pt x="938" y="755" on="0"/>
        <pt x="902" y="896" on="0"/>
        <pt x="866" y="947" on="1"/>
        <pt x="790" y="1055" on="0"/>
        <pt x="649" y="1055" on="1"/>
        <pt x="474" y="1055" on="0"/>
        <pt x="375" y="884" on="1"/>
        <pt x="290" y="737" on="0"/>
        <pt x="290" y="561" on="1"/>
        <pt x="290" y="347" on="0"/>
      </contour>
    </TTGlyph>
    <TTGlyph name="nonbreakingspace" xMin="0" yMin="0" xMax="0" yMax="0">
      <component glyphName="space" x="0" y="0" flags="0x1204"/>
    </TTGlyph>
</ttFont>
